<ttFont>
<head>
    <!-- Most of this table will be recalculated by the compiler -->
    <tableVersion value="1.0"/>
    <fontRevision value="1.0"/>
    <checkSumAdjustment value="0xf8b89311"/>
    <magicNumber value="0x5f0f3cf5"/>
    <flags value="00000000 00011001"/>
    <unitsPerEm value="1000"/>
    <created value="Mon Apr 16 12:58:52 2001"/>
    <modified value="Mon Apr 16 12:58:52 2001"/>
    <xMin value="0"/>
    <yMin value="0"/>
    <xMax value="2190"/>
    <yMax value="2180"/>
    <macStyle value="00000000 00000000"/>
    <lowestRecPPEM value="0"/>
    <fontDirectionHint value="0"/>
    <indexToLocFormat value="0"/>
    <glyphDataFormat value="0"/>
  </head>
    <TTGlyph name="A" xMin="10" yMin="0" xMax="2180" yMax="2170">
      <contour>
        <pt x="10" y="0" on="1"/>
        <pt x="550" y="0" on="1"/>
        <pt x="905" y="340" on="1"/>
        <pt x="905" y="0" on="1"/>
        <pt x="1450" y="0" on="1"/>
        <pt x="2180" y="730" on="1"/>
        <pt x="2180" y="2170" on="1"/>
        <pt x="720" y="2170" on="1"/>
        <pt x="10" y="1460" on="1"/>
      </contour>
      <contour>
        <pt x="30" y="1430" on="1"/>
        <pt x="545" y="1430" on="1"/>
        <pt x="545" y="720" on="1"/>
        <pt x="925" y="720" on="1"/>
        <pt x="925" y="1430" on="1"/>
        <pt x="1440" y="1430" on="1"/>
        <pt x="1440" y="20" on="1"/>
        <pt x="925" y="20" on="1"/>
        <pt x="925" y="550" on="1"/>
        <pt x="545" y="550" on="1"/>
        <pt x="545" y="20" on="1"/>
        <pt x="30" y="20" on="1"/>
      </contour>
      <contour>
        <pt x="570" y="530" on="1"/>
        <pt x="900" y="530" on="1"/>
        <pt x="900" y="380" on="1"/>
        <pt x="570" y="50" on="1"/>
      </contour>
      <contour>
        <pt x="1470" y="1450" on="1"/>
        <pt x="2160" y="2140" on="1"/>
        <pt x="2160" y="740" on="1"/>
        <pt x="1470" y="50" on="1"/>
      </contour>
      <contour>
        <pt x="820" y="990" on="1"/>
        <pt x="820" y="1000" on="1"/>
        <pt x="820" y="1026" on="0"/>
        <pt x="822" y="1134" on="0"/>
        <pt x="824" y="1270" on="0"/>
        <pt x="826" y="1420" on="0"/>
        <pt x="828" y="1556" on="0"/>
        <pt x="829" y="1664" on="0"/>
        <pt x="830" y="1690" on="1"/>
        <pt x="1130" y="1690" on="1"/>
        <pt x="905" y="1460" on="1"/>
        <pt x="905" y="1015" on="1"/>
        <pt x="840" y="1015" on="1"/>
        <pt x="840" y="995" on="1"/>
        <pt x="900" y="995" on="1"/>
        <pt x="900" y="740" on="1"/>
        <pt x="580" y="740" on="1"/>
      </contour>
      <contour>
        <pt x="570" y="1450" on="1"/>
        <pt x="800" y="1680" on="1"/>
        <pt x="800" y="1000" on="1"/>
        <pt x="570" y="770" on="1"/>
      </contour>
      <contour>
        <pt x="730" y="2150" on="1"/>
        <pt x="2130" y="2150" on="1"/>
        <pt x="1440" y="1460" on="1"/>
        <pt x="940" y="1460" on="1"/>
        <pt x="1179" y="1710" on="1"/>
        <pt x="810" y="1720" on="1"/>
        <pt x="540" y="1460" on="1"/>
        <pt x="40" y="1460" on="1"/>
      </contour>
      <contour>
        <pt x="1090" y="2000" on="1"/>
        <pt x="970" y="1880" on="1"/>
        <pt x="1340" y="1880" on="1"/>
        <pt x="1440" y="1980" on="1"/>
        <pt x="1440" y="2000" on="1"/>
      </contour>
      <contour>
        <pt x="1090" y="1980" on="1"/>
        <pt x="1090" y="1900" on="1"/>
        <pt x="1010" y="1900" on="1"/>
      </contour>
      <contour>
        <pt x="1120" y="1980" on="1"/>
        <pt x="1420" y="1980" on="1"/>
        <pt x="1340" y="1900" on="1"/>
        <pt x="1120" y="1900" on="1"/>
      </contour>
    </TTGlyph>
    <TTGlyph name="B" xMin="10" yMin="0" xMax="2180" yMax="2170">
      <contour>
        <pt x="10" y="0" on="1"/>
        <pt x="1450" y="0" on="1"/>
        <pt x="2180" y="730" on="1"/>
        <pt x="2180" y="2170" on="1"/>
        <pt x="720" y="2170" on="1"/>
        <pt x="10" y="1460" on="1"/>
        <pt x="10" y="0" on="1"/>
      </contour>
      <contour>
        <pt x="30" y="1430" on="1"/>
        <pt x="1440" y="1430" on="1"/>
        <pt x="1440" y="20" on="1"/>
        <pt x="30" y="20" on="1"/>
        <pt x="30" y="1430" on="1"/>
      </contour>
      <contour>
        <pt x="1470" y="1450" on="1"/>
        <pt x="2160" y="2140" on="1"/>
        <pt x="2160" y="740" on="1"/>
        <pt x="1470" y="50" on="1"/>
        <pt x="1470" y="1450" on="1"/>
      </contour>
      <contour>
        <pt x="730" y="2150" on="1"/>
        <pt x="2130" y="2150" on="1"/>
        <pt x="1440" y="1460" on="1"/>
        <pt x="40" y="1460" on="1"/>
        <pt x="730" y="2150" on="1"/>
      </contour>
      <contour>
        <pt x="550" y="1640" on="1"/>
        <pt x="550" y="1630" on="1"/>
        <pt x="1080" y="1630" on="1"/>
        <pt x="1080" y="1645" on="1"/>
        <pt x="690" y="1645" on="1"/>
        <pt x="690" y="1740" on="1"/>
        <pt x="1190" y="1740" on="1"/>
        <pt x="1100" y="1640" on="1"/>
        <pt x="1100" y="1630" on="1"/>
        <pt x="1200" y="1730" on="1"/>
        <pt x="1200" y="1760" on="1"/>
        <pt x="670" y="1760" on="1"/>
        <pt x="550" y="1640" on="1"/>
      </contour>
      <contour>
        <pt x="660" y="1730" on="1"/>
        <pt x="660" y="1650" on="1"/>
        <pt x="580" y="1650" on="1"/>
        <pt x="660" y="1730" on="1"/>
      </contour>
      <contour>
        <pt x="811" y="1910" on="1"/>
        <pt x="1390" y="1910" on="1"/>
        <pt x="1510" y="2030" on="1"/>
        <pt x="1510" y="2050" on="1"/>
        <pt x="940" y="2050" on="1"/>
        <pt x="811" y="1910" on="1"/>
      </contour>
      <contour>
        <pt x="930" y="2010" on="1"/>
        <pt x="930" y="1930" on="1"/>
        <pt x="850" y="1930" on="1"/>
        <pt x="930" y="2010" on="1"/>
      </contour>
      <contour>
        <pt x="960" y="2030" on="1"/>
        <pt x="1490" y="2030" on="1"/>
        <pt x="1390" y="1930" on="1"/>
        <pt x="960" y="1930" on="1"/>
        <pt x="960" y="2030" on="1"/>
      </contour>
    </TTGlyph>
    <TTGlyph name="C" xMin="10" yMin="0" xMax="2180" yMax="2170">
      <contour>
        <pt x="10" y="0" on="1"/>
        <pt x="1450" y="0" on="1"/>
        <pt x="2180" y="730" on="1"/>
        <pt x="2180" y="2170" on="1"/>
        <pt x="720" y="2170" on="1"/>
        <pt x="10" y="1460" on="1"/>
      </contour>
      <contour>
        <pt x="30" y="1430" on="1"/>
        <pt x="1440" y="1430" on="1"/>
        <pt x="1440" y="20" on="1"/>
        <pt x="30" y="20" on="1"/>
      </contour>
      <contour>
        <pt x="1470" y="1450" on="1"/>
        <pt x="1625" y="1600" on="1"/>
        <pt x="1625" y="370" on="1"/>
        <pt x="1640" y="370" on="1"/>
        <pt x="2005" y="730" on="1"/>
        <pt x="2005" y="1990" on="1"/>
        <pt x="2160" y="2140" on="1"/>
        <pt x="2160" y="740" on="1"/>
        <pt x="1470" y="50" on="1"/>
      </contour>
      <contour>
        <pt x="1650" y="710" on="1"/>
        <pt x="1950" y="710" on="1"/>
        <pt x="1650" y="410" on="1"/>
      </contour>
      <contour>
        <pt x="1645" y="1620" on="1"/>
        <pt x="1630" y="1635" on="1"/>
        <pt x="930" y="1635" on="1"/>
        <pt x="930" y="1970" on="1"/>
        <pt x="1980" y="1970" on="1"/>
        <pt x="1980" y="740" on="1"/>
        <pt x="1645" y="740" on="1"/>
      </contour>
      <contour>
        <pt x="730" y="2150" on="1"/>
        <pt x="2130" y="2150" on="1"/>
        <pt x="1980" y="2000" on="1"/>
        <pt x="910" y="1990" on="1"/>
        <pt x="900" y="1990" on="1"/>
        <pt x="550" y="1640" on="1"/>
        <pt x="550" y="1640" on="0"/>
        <pt x="549" y="1637" on="0"/>
        <pt x="549" y="1635" on="1"/>
        <pt x="549" y="1634" on="0"/>
        <pt x="550" y="1630" on="0"/>
        <pt x="550" y="1630" on="1"/>
        <pt x="552" y="1627" on="0"/>
        <pt x="559" y="1615" on="0"/>
        <pt x="560" y="1615" on="1"/>
        <pt x="1590" y="1615" on="1"/>
        <pt x="1440" y="1460" on="1"/>
        <pt x="40" y="1460" on="1"/>
      </contour>
      <contour>
        <pt x="900" y="1960" on="1"/>
        <pt x="900" y="1640" on="1"/>
        <pt x="580" y="1640" on="1"/>
      </contour>
    </TTGlyph>
    <TTGlyph name="D" xMin="10" yMin="0" xMax="2180" yMax="2170">
      <contour>
        <pt x="10" y="0" on="1"/>
        <pt x="1090" y="0" on="1"/>
        <pt x="2180" y="1090" on="1"/>
        <pt x="2180" y="1810" on="1"/>
        <pt x="1820" y="2170" on="1"/>
        <pt x="720" y="2170" on="1"/>
        <pt x="10" y="1460" on="1"/>
        <pt x="10" y="0" on="1"/>
      </contour>
      <contour>
        <pt x="30" y="1430" on="1"/>
        <pt x="1090" y="1430" on="1"/>
        <pt x="1440" y="1080" on="1"/>
        <pt x="1440" y="380" on="1"/>
        <pt x="1080" y="20" on="1"/>
        <pt x="30" y="20" on="1"/>
        <pt x="30" y="1430" on="1"/>
      </contour>
      <contour>
        <pt x="370" y="360" on="1"/>
        <pt x="910" y="360" on="1"/>
        <pt x="1100" y="550" on="1"/>
        <pt x="1100" y="910" on="1"/>
        <pt x="920" y="1090" on="1"/>
        <pt x="370" y="1090" on="1"/>
        <pt x="370" y="360" on="1"/>
      </contour>
      <contour>
        <pt x="910" y="890" on="1"/>
        <pt x="1080" y="890" on="1"/>
        <pt x="1080" y="560" on="1"/>
        <pt x="900" y="380" on="1"/>
        <pt x="400" y="380" on="1"/>
        <pt x="910" y="890" on="1"/>
      </contour>
      <contour>
        <pt x="390" y="1070" on="1"/>
        <pt x="900" y="1070" on="1"/>
        <pt x="900" y="920" on="1"/>
        <pt x="390" y="410" on="1"/>
        <pt x="390" y="1070" on="1"/>
      </contour>
      <contour>
        <pt x="1470" y="1090" on="1"/>
        <pt x="2160" y="1780" on="1"/>
        <pt x="2160" y="1100" on="1"/>
        <pt x="1470" y="410" on="1"/>
        <pt x="1470" y="1090" on="1"/>
      </contour>
      <contour>
        <pt x="930" y="1050" on="1"/>
        <pt x="1060" y="920" on="1"/>
        <pt x="930" y="920" on="1"/>
        <pt x="930" y="1050" on="1"/>
      </contour>
      <contour>
        <pt x="1110" y="1450" on="1"/>
        <pt x="1810" y="2150" on="1"/>
        <pt x="2150" y="1810" on="1"/>
        <pt x="1450" y="1110" on="1"/>
        <pt x="1110" y="1450" on="1"/>
      </contour>
      <contour>
        <pt x="730" y="2150" on="1"/>
        <pt x="1770" y="2150" on="1"/>
        <pt x="1080" y="1460" on="1"/>
        <pt x="40" y="1460" on="1"/>
        <pt x="730" y="2150" on="1"/>
      </contour>
    </TTGlyph>
    <TTGlyph name="E" xMin="10" yMin="0" xMax="2180" yMax="2170">
      <contour>
        <pt x="10" y="0" on="1"/>
        <pt x="1450" y="0" on="1"/>
        <pt x="1645" y="190" on="1"/>
        <pt x="1645" y="275" on="1"/>
        <pt x="1730" y="275" on="1"/>
        <pt x="1900" y="450" on="1"/>
        <pt x="1900" y="1915" on="1"/>
        <pt x="930" y="1915" on="1"/>
        <pt x="930" y="1980" on="1"/>
        <pt x="1980" y="1980" on="1"/>
        <pt x="1980" y="555" on="1"/>
        <pt x="1920" y="555" on="1"/>
        <pt x="1920" y="540" on="1"/>
        <pt x="1990" y="540" on="1"/>
        <pt x="2180" y="730" on="1"/>
        <pt x="2180" y="2170" on="1"/>
        <pt x="720" y="2170" on="1"/>
        <pt x="10" y="1460" on="1"/>
        <pt x="10" y="0" on="1"/>
      </contour>
      <contour>
        <pt x="30" y="1430" on="1"/>
        <pt x="1440" y="1430" on="1"/>
        <pt x="1440" y="20" on="1"/>
        <pt x="30" y="20" on="1"/>
        <pt x="30" y="1430" on="1"/>
      </contour>
      <contour>
        <pt x="1470" y="1450" on="1"/>
        <pt x="1620" y="1600" on="1"/>
        <pt x="1620" y="200" on="1"/>
        <pt x="1470" y="50" on="1"/>
        <pt x="1470" y="1450" on="1"/>
      </contour>
      <contour>
        <pt x="1645" y="1620" on="1"/>
        <pt x="1620" y="1645" on="1"/>
        <pt x="660" y="1645" on="1"/>
        <pt x="660" y="1710" on="1"/>
        <pt x="1710" y="1710" on="1"/>
        <pt x="1710" y="300" on="1"/>
        <pt x="1645" y="300" on="1"/>
        <pt x="1645" y="1620" on="1"/>
      </contour>
      <contour>
        <pt x="1740" y="1720" on="1"/>
        <pt x="1880" y="1860" on="1"/>
        <pt x="1880" y="450" on="1"/>
        <pt x="1740" y="310" on="1"/>
        <pt x="1740" y="1720" on="1"/>
      </contour>
      <contour>
        <pt x="2010" y="1990" on="1"/>
        <pt x="2160" y="2140" on="1"/>
        <pt x="2160" y="740" on="1"/>
        <pt x="2010" y="590" on="1"/>
        <pt x="2010" y="1990" on="1"/>
      </contour>
      <contour>
        <pt x="730" y="2150" on="1"/>
        <pt x="2130" y="2150" on="1"/>
        <pt x="1990" y="2005" on="1"/>
        <pt x="910" y="2005" on="1"/>
        <pt x="820" y="1910" on="1"/>
        <pt x="830" y="1895" on="1"/>
        <pt x="1870" y="1895" on="1"/>
        <pt x="1716" y="1735" on="1"/>
        <pt x="640" y="1735" on="1"/>
        <pt x="550" y="1640" on="1"/>
        <pt x="550" y="1625" on="1"/>
        <pt x="1600" y="1625" on="1"/>
        <pt x="1440" y="1460" on="1"/>
        <pt x="40" y="1460" on="1"/>
        <pt x="730" y="2150" on="1"/>
      </contour>
      <contour>
        <pt x="630" y="1700" on="1"/>
        <pt x="630" y="1650" on="1"/>
        <pt x="580" y="1650" on="1"/>
        <pt x="630" y="1700" on="1"/>
      </contour>
      <contour>
        <pt x="900" y="1960" on="1"/>
        <pt x="900" y="1920" on="1"/>
        <pt x="860" y="1920" on="1"/>
        <pt x="900" y="1960" on="1"/>
      </contour>
    </TTGlyph>
    <TTGlyph name="F" xMin="10" yMin="0" xMax="2180" yMax="2170">
      <contour>
        <pt x="10" y="0" on="1"/>
        <pt x="370" y="0" on="1"/>
        <pt x="630" y="265" on="1"/>
        <pt x="1710" y="265" on="1"/>
        <pt x="1895" y="460" on="1"/>
        <pt x="1895" y="545" on="1"/>
        <pt x="2000" y="545" on="1"/>
        <pt x="2180" y="730" on="1"/>
        <pt x="2180" y="2170" on="1"/>
        <pt x="720" y="2170" on="1"/>
        <pt x="10" y="1460" on="1"/>
        <pt x="10" y="0" on="1"/>
      </contour>
      <contour>
        <pt x="30" y="1430" on="1"/>
        <pt x="360" y="1430" on="1"/>
        <pt x="360" y="20" on="1"/>
        <pt x="30" y="20" on="1"/>
        <pt x="30" y="1430" on="1"/>
      </contour>
      <contour>
        <pt x="390" y="1450" on="1"/>
        <pt x="610" y="1670" on="1"/>
        <pt x="620" y="280" on="1"/>
        <pt x="390" y="50" on="1"/>
        <pt x="390" y="1450" on="1"/>
      </contour>
      <contour>
        <pt x="640" y="1680" on="1"/>
        <pt x="1690" y="1680" on="1"/>
        <pt x="1690" y="290" on="1"/>
        <pt x="640" y="290" on="1"/>
        <pt x="640" y="1680" on="1"/>
      </contour>
      <contour>
        <pt x="1720" y="1700" on="1"/>
        <pt x="1870" y="1850" on="1"/>
        <pt x="1870" y="470" on="1"/>
        <pt x="1720" y="320" on="1"/>
        <pt x="1720" y="1700" on="1"/>
      </contour>
      <contour>
        <pt x="1895" y="1880" on="1"/>
        <pt x="1880" y="1895" on="1"/>
        <pt x="920" y="1895" on="1"/>
        <pt x="920" y="1985" on="1"/>
        <pt x="1980" y="1985" on="1"/>
        <pt x="1980" y="2000" on="1"/>
        <pt x="910" y="2000" on="1"/>
        <pt x="800" y="1890" on="1"/>
        <pt x="800" y="1875" on="1"/>
        <pt x="1860" y="1875" on="1"/>
        <pt x="1700" y="1705" on="1"/>
        <pt x="616" y="1705" on="1"/>
        <pt x="360" y="1460" on="1"/>
        <pt x="40" y="1460" on="1"/>
        <pt x="730" y="2150" on="1"/>
        <pt x="2160" y="2150" on="1"/>
        <pt x="2160" y="740" on="1"/>
        <pt x="2005" y="590" on="1"/>
        <pt x="2005" y="1980" on="1"/>
        <pt x="1985" y="1980" on="1"/>
        <pt x="1985" y="570" on="1"/>
        <pt x="1895" y="570" on="1"/>
        <pt x="1895" y="1880" on="1"/>
      </contour>
      <contour>
        <pt x="890" y="1960" on="1"/>
        <pt x="890" y="1900" on="1"/>
        <pt x="830" y="1900" on="1"/>
        <pt x="890" y="1960" on="1"/>
      </contour>
    </TTGlyph>
    <TTGlyph name="G" xMin="10" yMin="0" xMax="2170" yMax="2160">
      <contour>
        <pt x="10" y="1450" on="1"/>
        <pt x="10" y="0" on="1"/>
        <pt x="1450" y="0" on="1"/>
        <pt x="1810" y="360" on="1"/>
        <pt x="1810" y="1815" on="1"/>
        <pt x="1560" y="1815" on="1"/>
        <pt x="1560" y="1870" on="1"/>
        <pt x="1875" y="1870" on="1"/>
        <pt x="1875" y="430" on="1"/>
        <pt x="1890" y="430" on="1"/>
        <pt x="2170" y="720" on="1"/>
        <pt x="2170" y="2160" on="1"/>
        <pt x="720" y="2160" on="1"/>
      </contour>
      <contour>
        <pt x="30" y="1430" on="1"/>
        <pt x="1430" y="1430" on="1"/>
        <pt x="1430" y="20" on="1"/>
        <pt x="30" y="20" on="1"/>
      </contour>
      <contour>
        <pt x="1460" y="1440" on="1"/>
        <pt x="1790" y="1770" on="1"/>
        <pt x="1790" y="360" on="1"/>
        <pt x="1460" y="30" on="1"/>
      </contour>
      <contour>
        <pt x="1900" y="1880" on="1"/>
        <pt x="2150" y="2130" on="1"/>
        <pt x="2150" y="720" on="1"/>
        <pt x="1900" y="470" on="1"/>
      </contour>
      <contour>
        <pt x="730" y="2140" on="1"/>
        <pt x="2130" y="2140" on="1"/>
        <pt x="1890" y="1900" on="1"/>
        <pt x="1560" y="1900" on="1"/>
        <pt x="1620" y="1970" on="1"/>
        <pt x="1620" y="1990" on="1"/>
        <pt x="910" y="1990" on="1"/>
        <pt x="550" y="1630" on="1"/>
        <pt x="550" y="1620" on="1"/>
        <pt x="1090" y="1620" on="1"/>
        <pt x="1270" y="1790" on="1"/>
        <pt x="1780" y="1790" on="1"/>
        <pt x="1450" y="1460" on="1"/>
        <pt x="50" y="1460" on="1"/>
      </contour>
      <contour>
        <pt x="890" y="1950" on="1"/>
        <pt x="890" y="1640" on="1"/>
        <pt x="580" y="1640" on="1"/>
      </contour>
      <contour>
        <pt x="920" y="1970" on="1"/>
        <pt x="1600" y="1970" on="1"/>
        <pt x="1562" y="1945" on="0"/>
        <pt x="1521" y="1861" on="0"/>
        <pt x="1530" y="1815" on="1"/>
        <pt x="1270" y="1815" on="1"/>
        <pt x="1090" y="1640" on="1"/>
        <pt x="920" y="1640" on="1"/>
      </contour>
    </TTGlyph>
    <TTGlyph name="H" xMin="10" yMin="0" xMax="2180" yMax="2170">
      <contour>
        <pt x="10" y="0" on="1"/>
        <pt x="565" y="0" on="1"/>
        <pt x="565" y="530" on="1"/>
        <pt x="905" y="530" on="1"/>
        <pt x="905" y="0" on="1"/>
        <pt x="1460" y="0" on="1"/>
        <pt x="2180" y="720" on="1"/>
        <pt x="2180" y="2170" on="1"/>
        <pt x="1640" y="2170" on="1"/>
        <pt x="1640" y="2155" on="1"/>
        <pt x="2150" y="2155" on="1"/>
        <pt x="1460" y="1460" on="1"/>
        <pt x="950" y="1460" on="1"/>
        <pt x="1160" y="1680" on="1"/>
        <pt x="1140" y="1690" on="1"/>
        <pt x="780" y="1690" on="1"/>
        <pt x="550" y="1460" on="1"/>
        <pt x="60" y="1460" on="1"/>
        <pt x="740" y="2140" on="1"/>
        <pt x="1240" y="2140" on="1"/>
        <pt x="1010" y="1900" on="1"/>
        <pt x="1008" y="1898" on="0"/>
        <pt x="1001" y="1883" on="0"/>
        <pt x="1000" y="1880" on="1"/>
        <pt x="999" y="1879" on="0"/>
        <pt x="998" y="1871" on="0"/>
        <pt x="998" y="1870" on="1"/>
        <pt x="1360" y="1870" on="1"/>
        <pt x="1370" y="1890" on="1"/>
        <pt x="1620" y="2150" on="1"/>
        <pt x="1620" y="2160" on="1"/>
        <pt x="1340" y="1890" on="1"/>
        <pt x="1285" y="1890" on="1"/>
        <pt x="1285" y="2160" on="1"/>
        <pt x="730" y="2160" on="1"/>
        <pt x="10" y="1440" on="1"/>
      </contour>
      <contour>
        <pt x="30" y="1430" on="1"/>
        <pt x="545" y="1430" on="1"/>
        <pt x="545" y="900" on="1"/>
        <pt x="925" y="900" on="1"/>
        <pt x="925" y="1430" on="1"/>
        <pt x="1440" y="1430" on="1"/>
        <pt x="1440" y="20" on="1"/>
        <pt x="925" y="20" on="1"/>
        <pt x="925" y="550" on="1"/>
        <pt x="545" y="550" on="1"/>
        <pt x="545" y="20" on="1"/>
        <pt x="30" y="20" on="1"/>
      </contour>
      <contour>
        <pt x="1470" y="1440" on="1"/>
        <pt x="2160" y="2130" on="1"/>
        <pt x="2160" y="720" on="1"/>
        <pt x="1470" y="30" on="1"/>
      </contour>
      <contour>
        <pt x="780" y="1120" on="1"/>
        <pt x="900" y="1120" on="1"/>
        <pt x="900" y="920" on="1"/>
        <pt x="580" y="920" on="1"/>
      </contour>
      <contour>
        <pt x="570" y="1450" on="1"/>
        <pt x="770" y="1650" on="1"/>
        <pt x="770" y="1150" on="1"/>
        <pt x="570" y="950" on="1"/>
      </contour>
      <contour>
        <pt x="800" y="1670" on="1"/>
        <pt x="1130" y="1670" on="1"/>
        <pt x="905" y="1440" on="1"/>
        <pt x="905" y="1150" on="1"/>
        <pt x="800" y="1150" on="1"/>
      </contour>
      <contour>
        <pt x="1260" y="2120" on="1"/>
        <pt x="1260" y="1890" on="1"/>
        <pt x="1030" y="1890" on="1"/>
      </contour>
    </TTGlyph>
    <TTGlyph name="I" xMin="10" yMin="0" xMax="1460" yMax="2170">
      <contour>
        <pt x="10" y="0" on="1"/>
        <pt x="760" y="0" on="1"/>
        <pt x="1185" y="420" on="1"/>
        <pt x="1185" y="535" on="1"/>
        <pt x="1280" y="535" on="1"/>
        <pt x="1460" y="720" on="1"/>
        <pt x="1460" y="2170" on="1"/>
        <pt x="740" y="2170" on="1"/>
        <pt x="545" y="1980" on="1"/>
        <pt x="545" y="1895" on="1"/>
        <pt x="450" y="1895" on="1"/>
        <pt x="10" y="1450" on="1"/>
        <pt x="10" y="0" on="1"/>
      </contour>
      <contour>
        <pt x="30" y="1430" on="1"/>
        <pt x="720" y="1430" on="1"/>
        <pt x="720" y="20" on="1"/>
        <pt x="30" y="20" on="1"/>
        <pt x="30" y="1430" on="1"/>
      </contour>
      <contour>
        <pt x="750" y="1440" on="1"/>
        <pt x="1160" y="1850" on="1"/>
        <pt x="1160" y="430" on="1"/>
        <pt x="750" y="20" on="1"/>
        <pt x="750" y="1440" on="1"/>
      </contour>
      <contour>
        <pt x="1185" y="1870" on="1"/>
        <pt x="1170" y="1895" on="1"/>
        <pt x="570" y="1895" on="1"/>
        <pt x="570" y="1970" on="1"/>
        <pt x="1260" y="1970" on="1"/>
        <pt x="1260" y="560" on="1"/>
        <pt x="1185" y="560" on="1"/>
        <pt x="1185" y="1870" on="1"/>
      </contour>
      <contour>
        <pt x="1290" y="1980" on="1"/>
        <pt x="1440" y="2130" on="1"/>
        <pt x="1440" y="720" on="1"/>
        <pt x="1290" y="570" on="1"/>
        <pt x="1290" y="1980" on="1"/>
      </contour>
      <contour>
        <pt x="460" y="1870" on="1"/>
        <pt x="1150" y="1870" on="1"/>
        <pt x="740" y="1460" on="1"/>
        <pt x="50" y="1460" on="1"/>
        <pt x="460" y="1870" on="1"/>
      </contour>
      <contour>
        <pt x="740" y="2150" on="1"/>
        <pt x="1430" y="2150" on="1"/>
        <pt x="1280" y="2000" on="1"/>
        <pt x="590" y="2000" on="1"/>
        <pt x="740" y="2150" on="1"/>
      </contour>
    </TTGlyph>
    <TTGlyph name="J" xMin="10" yMin="0" xMax="2180" yMax="2170">
      <contour>
        <pt x="10" y="0" on="1"/>
        <pt x="1470" y="0" on="1"/>
        <pt x="2180" y="720" on="1"/>
        <pt x="2180" y="2170" on="1"/>
        <pt x="1640" y="2170" on="1"/>
        <pt x="920" y="1455" on="1"/>
        <pt x="740" y="1455" on="1"/>
        <pt x="10" y="720" on="1"/>
        <pt x="10" y="0" on="1"/>
      </contour>
      <contour>
        <pt x="30" y="710" on="1"/>
        <pt x="545" y="710" on="1"/>
        <pt x="545" y="360" on="1"/>
        <pt x="925" y="360" on="1"/>
        <pt x="925" y="1420" on="1"/>
        <pt x="1450" y="1420" on="1"/>
        <pt x="1450" y="20" on="1"/>
        <pt x="30" y="20" on="1"/>
        <pt x="30" y="710" on="1"/>
      </contour>
      <contour>
        <pt x="1480" y="1440" on="1"/>
        <pt x="2160" y="2120" on="1"/>
        <pt x="2160" y="720" on="1"/>
        <pt x="1480" y="40" on="1"/>
        <pt x="1480" y="1440" on="1"/>
      </contour>
      <contour>
        <pt x="900" y="690" on="1"/>
        <pt x="900" y="380" on="1"/>
        <pt x="590" y="380" on="1"/>
        <pt x="900" y="690" on="1"/>
      </contour>
      <contour>
        <pt x="570" y="720" on="1"/>
        <pt x="900" y="1050" on="1"/>
        <pt x="900" y="720" on="1"/>
        <pt x="570" y="390" on="1"/>
        <pt x="570" y="720" on="1"/>
      </contour>
      <contour>
        <pt x="740" y="1430" on="1"/>
        <pt x="900" y="1430" on="1"/>
        <pt x="900" y="1080" on="1"/>
        <pt x="560" y="740" on="1"/>
        <pt x="50" y="740" on="1"/>
        <pt x="740" y="1430" on="1"/>
      </contour>
      <contour>
        <pt x="1640" y="2150" on="1"/>
        <pt x="2150" y="2150" on="1"/>
        <pt x="1450" y="1450" on="1"/>
        <pt x="940" y="1450" on="1"/>
        <pt x="1640" y="2150" on="1"/>
      </contour>
    </TTGlyph>
    <TTGlyph name="K" xMin="10" yMin="0" xMax="2190" yMax="2160">
      <contour>
        <pt x="10" y="0" on="1"/>
        <pt x="380" y="0" on="1"/>
        <pt x="735" y="345" on="1"/>
        <pt x="905" y="180" on="1"/>
        <pt x="905" y="0" on="1"/>
        <pt x="1470" y="0" on="1"/>
        <pt x="2190" y="720" on="1"/>
        <pt x="2190" y="1080" on="1"/>
        <pt x="1840" y="1440" on="1"/>
        <pt x="2190" y="1800" on="1"/>
        <pt x="2190" y="2160" on="1"/>
        <pt x="1630" y="2160" on="1"/>
        <pt x="1115" y="1660" on="1"/>
        <pt x="1115" y="2160" on="1"/>
        <pt x="730" y="2160" on="1"/>
        <pt x="10" y="1440" on="1"/>
        <pt x="10" y="0" on="1"/>
      </contour>
      <contour>
        <pt x="30" y="1430" on="1"/>
        <pt x="365" y="1430" on="1"/>
        <pt x="365" y="900" on="1"/>
        <pt x="560" y="900" on="1"/>
        <pt x="925" y="1265" on="1"/>
        <pt x="925" y="1430" on="1"/>
        <pt x="1440" y="1430" on="1"/>
        <pt x="1440" y="1080" on="1"/>
        <pt x="1090" y="720" on="1"/>
        <pt x="1440" y="360" on="1"/>
        <pt x="1440" y="20" on="1"/>
        <pt x="925" y="20" on="1"/>
        <pt x="925" y="190" on="1"/>
        <pt x="560" y="550" on="1"/>
        <pt x="365" y="550" on="1"/>
        <pt x="365" y="20" on="1"/>
        <pt x="30" y="20" on="1"/>
        <pt x="30" y="1430" on="1"/>
      </contour>
      <contour>
        <pt x="390" y="530" on="1"/>
        <pt x="550" y="530" on="1"/>
        <pt x="720" y="360" on="1"/>
        <pt x="390" y="30" on="1"/>
        <pt x="390" y="530" on="1"/>
      </contour>
      <contour>
        <pt x="1470" y="350" on="1"/>
        <pt x="2170" y="1050" on="1"/>
        <pt x="2170" y="730" on="1"/>
        <pt x="1470" y="30" on="1"/>
        <pt x="1470" y="350" on="1"/>
      </contour>
      <contour>
        <pt x="1115" y="725" on="1"/>
        <pt x="1820" y="1420" on="1"/>
        <pt x="2160" y="1080" on="1"/>
        <pt x="1460" y="380" on="1"/>
        <pt x="1115" y="725" on="1"/>
      </contour>
      <contour>
        <pt x="900" y="1400" on="1"/>
        <pt x="900" y="1260" on="1"/>
        <pt x="560" y="920" on="1"/>
        <pt x="420" y="920" on="1"/>
        <pt x="900" y="1400" on="1"/>
      </contour>
      <contour>
        <pt x="390" y="1430" on="1"/>
        <pt x="1090" y="2130" on="1"/>
        <pt x="1090" y="1630" on="1"/>
        <pt x="390" y="930" on="1"/>
        <pt x="390" y="1430" on="1"/>
      </contour>
      <contour>
        <pt x="1470" y="1430" on="1"/>
        <pt x="2170" y="2130" on="1"/>
        <pt x="2170" y="1810" on="1"/>
        <pt x="1470" y="1110" on="1"/>
        <pt x="1470" y="1430" on="1"/>
      </contour>
      <contour>
        <pt x="740" y="2140" on="1"/>
        <pt x="1060" y="2140" on="1"/>
        <pt x="380" y="1460" on="1"/>
        <pt x="60" y="1460" on="1"/>
        <pt x="740" y="2140" on="1"/>
      </contour>
      <contour>
        <pt x="1640" y="2140" on="1"/>
        <pt x="2140" y="2140" on="1"/>
        <pt x="1460" y="1460" on="1"/>
        <pt x="960" y="1460" on="1"/>
        <pt x="1640" y="2140" on="1"/>
      </contour>
    </TTGlyph>
    <TTGlyph name="L" xMin="10" yMin="0" xMax="1730" yMax="2170">
      <contour>
        <pt x="10" y="0" on="1"/>
        <pt x="1450" y="0" on="1"/>
        <pt x="1720" y="270" on="1"/>
        <pt x="1730" y="1735" on="1"/>
        <pt x="1275" y="1735" on="1"/>
        <pt x="1275" y="2170" on="1"/>
        <pt x="720" y="2170" on="1"/>
        <pt x="10" y="1460" on="1"/>
        <pt x="10" y="0" on="1"/>
      </contour>
      <contour>
        <pt x="30" y="1430" on="1"/>
        <pt x="1440" y="1430" on="1"/>
        <pt x="1440" y="20" on="1"/>
        <pt x="30" y="20" on="1"/>
        <pt x="30" y="1430" on="1"/>
      </contour>
      <contour>
        <pt x="1470" y="1450" on="1"/>
        <pt x="1700" y="1680" on="1"/>
        <pt x="1700" y="280" on="1"/>
        <pt x="1470" y="50" on="1"/>
        <pt x="1470" y="1450" on="1"/>
      </contour>
      <contour>
        <pt x="730" y="2150" on="1"/>
        <pt x="1230" y="2150" on="1"/>
        <pt x="800" y="1710" on="1"/>
        <pt x="1690" y="1710" on="1"/>
        <pt x="1440" y="1460" on="1"/>
        <pt x="40" y="1460" on="1"/>
        <pt x="730" y="2150" on="1"/>
      </contour>
      <contour>
        <pt x="1250" y="2140" on="1"/>
        <pt x="1250" y="1740" on="1"/>
        <pt x="850" y="1740" on="1"/>
        <pt x="1250" y="2140" on="1"/>
      </contour>
    </TTGlyph>
    <TTGlyph name="M" xMin="10" yMin="0" xMax="2180" yMax="2170">
      <contour>
        <pt x="10" y="0" on="1"/>
        <pt x="370" y="0" on="1"/>
        <pt x="1085" y="700" on="1"/>
        <pt x="1085" y="0" on="1"/>
        <pt x="1450" y="0" on="1"/>
        <pt x="2180" y="730" on="1"/>
        <pt x="2180" y="2170" on="1"/>
        <pt x="1800" y="2170" on="1"/>
        <pt x="1450" y="1830" on="1"/>
        <pt x="1100" y="2170" on="1"/>
        <pt x="720" y="2170" on="1"/>
        <pt x="10" y="1460" on="1"/>
        <pt x="10" y="0" on="1"/>
      </contour>
      <contour>
        <pt x="30" y="1430" on="1"/>
        <pt x="370" y="1430" on="1"/>
        <pt x="730" y="1080" on="1"/>
        <pt x="1090" y="1430" on="1"/>
        <pt x="1440" y="1430" on="1"/>
        <pt x="1440" y="20" on="1"/>
        <pt x="1105" y="20" on="1"/>
        <pt x="1105" y="900" on="1"/>
        <pt x="1080" y="910" on="1"/>
        <pt x="730" y="570" on="1"/>
        <pt x="380" y="910" on="1"/>
        <pt x="365" y="900" on="1"/>
        <pt x="365" y="20" on="1"/>
        <pt x="30" y="20" on="1"/>
        <pt x="30" y="1430" on="1"/>
      </contour>
      <contour>
        <pt x="390" y="870" on="1"/>
        <pt x="730" y="540" on="1"/>
        <pt x="1080" y="880" on="1"/>
        <pt x="1080" y="740" on="1"/>
        <pt x="390" y="50" on="1"/>
        <pt x="390" y="870" on="1"/>
      </contour>
      <contour>
        <pt x="1470" y="1450" on="1"/>
        <pt x="2160" y="2140" on="1"/>
        <pt x="2160" y="740" on="1"/>
        <pt x="1470" y="50" on="1"/>
        <pt x="1470" y="1450" on="1"/>
      </contour>
      <contour>
        <pt x="390" y="1450" on="1"/>
        <pt x="1090" y="2150" on="1"/>
        <pt x="1430" y="1810" on="1"/>
        <pt x="730" y="1110" on="1"/>
        <pt x="390" y="1450" on="1"/>
      </contour>
      <contour>
        <pt x="730" y="2150" on="1"/>
        <pt x="1050" y="2150" on="1"/>
        <pt x="360" y="1460" on="1"/>
        <pt x="40" y="1460" on="1"/>
        <pt x="730" y="2150" on="1"/>
      </contour>
      <contour>
        <pt x="1810" y="2150" on="1"/>
        <pt x="2130" y="2150" on="1"/>
        <pt x="1440" y="1460" on="1"/>
        <pt x="1120" y="1460" on="1"/>
        <pt x="1810" y="2150" on="1"/>
      </contour>
    </TTGlyph>
    <TTGlyph name="N" xMin="10" yMin="0" xMax="2190" yMax="2160">
      <contour>
        <pt x="10" y="0" on="1"/>
        <pt x="390" y="0" on="1"/>
        <pt x="920" y="520" on="1"/>
        <pt x="1085" y="360" on="1"/>
        <pt x="1085" y="0" on="1"/>
        <pt x="1470" y="0" on="1"/>
        <pt x="2190" y="720" on="1"/>
        <pt x="2190" y="2160" on="1"/>
        <pt x="1810" y="2160" on="1"/>
        <pt x="1460" y="1820" on="1"/>
        <pt x="1110" y="2160" on="1"/>
        <pt x="730" y="2160" on="1"/>
        <pt x="10" y="1440" on="1"/>
        <pt x="10" y="0" on="1"/>
      </contour>
      <contour>
        <pt x="30" y="1430" on="1"/>
        <pt x="370" y="1430" on="1"/>
        <pt x="1090" y="720" on="1"/>
        <pt x="1105" y="730" on="1"/>
        <pt x="1105" y="1430" on="1"/>
        <pt x="1440" y="1430" on="1"/>
        <pt x="1440" y="20" on="1"/>
        <pt x="1105" y="20" on="1"/>
        <pt x="1105" y="370" on="1"/>
        <pt x="390" y="1080" on="1"/>
        <pt x="365" y="1080" on="1"/>
        <pt x="365" y="20" on="1"/>
        <pt x="30" y="20" on="1"/>
        <pt x="30" y="1430" on="1"/>
      </contour>
      <contour>
        <pt x="390" y="1050" on="1"/>
        <pt x="900" y="540" on="1"/>
        <pt x="390" y="30" on="1"/>
        <pt x="390" y="1050" on="1"/>
      </contour>
      <contour>
        <pt x="1470" y="1430" on="1"/>
        <pt x="2170" y="2130" on="1"/>
        <pt x="2170" y="730" on="1"/>
        <pt x="1470" y="30" on="1"/>
        <pt x="1470" y="1430" on="1"/>
      </contour>
      <contour>
        <pt x="400" y="1440" on="1"/>
        <pt x="1100" y="2140" on="1"/>
        <pt x="1440" y="1800" on="1"/>
        <pt x="1085" y="1440" on="1"/>
        <pt x="1085" y="760" on="1"/>
        <pt x="400" y="1440" on="1"/>
      </contour>
      <contour>
        <pt x="740" y="2140" on="1"/>
        <pt x="1060" y="2140" on="1"/>
        <pt x="380" y="1460" on="1"/>
        <pt x="60" y="1460" on="1"/>
        <pt x="740" y="2140" on="1"/>
      </contour>
      <contour>
        <pt x="1820" y="2140" on="1"/>
        <pt x="2140" y="2140" on="1"/>
        <pt x="1460" y="1460" on="1"/>
        <pt x="1140" y="1460" on="1"/>
        <pt x="1820" y="2140" on="1"/>
      </contour>
    </TTGlyph>
    <TTGlyph name="O" xMin="10" yMin="0" xMax="2180" yMax="2170">
      <contour>
        <pt x="190" y="0" on="1"/>
        <pt x="1270" y="0" on="1"/>
        <pt x="2180" y="910" on="1"/>
        <pt x="2180" y="1990" on="1"/>
        <pt x="2000" y="2170" on="1"/>
        <pt x="900" y="2170" on="1"/>
        <pt x="10" y="1280" on="1"/>
        <pt x="10" y="180" on="1"/>
        <pt x="190" y="0" on="1"/>
      </contour>
      <contour>
        <pt x="30" y="190" on="1"/>
        <pt x="30" y="1270" on="1"/>
        <pt x="190" y="1430" on="1"/>
        <pt x="1270" y="1430" on="1"/>
        <pt x="1440" y="1260" on="1"/>
        <pt x="1440" y="200" on="1"/>
        <pt x="1260" y="20" on="1"/>
        <pt x="200" y="20" on="1"/>
        <pt x="30" y="190" on="1"/>
      </contour>
      <contour>
        <pt x="1470" y="1270" on="1"/>
        <pt x="2160" y="1960" on="1"/>
        <pt x="2160" y="920" on="1"/>
        <pt x="1470" y="230" on="1"/>
        <pt x="1470" y="1270" on="1"/>
      </contour>
      <contour>
        <pt x="550" y="360" on="1"/>
        <pt x="910" y="360" on="1"/>
        <pt x="1100" y="550" on="1"/>
        <pt x="1100" y="910" on="1"/>
        <pt x="920" y="1090" on="1"/>
        <pt x="540" y="1090" on="1"/>
        <pt x="370" y="920" on="1"/>
        <pt x="370" y="540" on="1"/>
        <pt x="550" y="360" on="1"/>
      </contour>
      <contour>
        <pt x="1080" y="880" on="1"/>
        <pt x="1080" y="560" on="1"/>
        <pt x="900" y="380" on="1"/>
        <pt x="580" y="380" on="1"/>
        <pt x="1080" y="880" on="1"/>
      </contour>
      <contour>
        <pt x="390" y="550" on="1"/>
        <pt x="910" y="1070" on="1"/>
        <pt x="1070" y="910" on="1"/>
        <pt x="550" y="390" on="1"/>
        <pt x="390" y="550" on="1"/>
      </contour>
      <contour>
        <pt x="390" y="910" on="1"/>
        <pt x="550" y="1070" on="1"/>
        <pt x="870" y="1070" on="1"/>
        <pt x="390" y="590" on="1"/>
        <pt x="390" y="910" on="1"/>
      </contour>
      <contour>
        <pt x="1290" y="1450" on="1"/>
        <pt x="1990" y="2150" on="1"/>
        <pt x="2150" y="1990" on="1"/>
        <pt x="1450" y="1290" on="1"/>
        <pt x="1290" y="1450" on="1"/>
      </contour>
      <contour>
        <pt x="910" y="2150" on="1"/>
        <pt x="1950" y="2150" on="1"/>
        <pt x="1260" y="1460" on="1"/>
        <pt x="220" y="1460" on="1"/>
        <pt x="910" y="2150" on="1"/>
      </contour>
    </TTGlyph>
    <TTGlyph name="P" xMin="10" yMin="0" xMax="2180" yMax="2170">
      <contour>
        <pt x="10" y="0" on="1"/>
        <pt x="730" y="0" on="1"/>
        <pt x="1090" y="355" on="1"/>
        <pt x="1810" y="355" on="1"/>
        <pt x="2180" y="730" on="1"/>
        <pt x="2180" y="2170" on="1"/>
        <pt x="720" y="2170" on="1"/>
        <pt x="10" y="1460" on="1"/>
        <pt x="10" y="0" on="1"/>
      </contour>
      <contour>
        <pt x="30" y="1430" on="1"/>
        <pt x="1440" y="1430" on="1"/>
        <pt x="1440" y="555" on="1"/>
        <pt x="740" y="555" on="1"/>
        <pt x="725" y="540" on="1"/>
        <pt x="725" y="20" on="1"/>
        <pt x="30" y="20" on="1"/>
        <pt x="30" y="1430" on="1"/>
      </contour>
      <contour>
        <pt x="750" y="530" on="1"/>
        <pt x="1080" y="530" on="1"/>
        <pt x="1080" y="380" on="1"/>
        <pt x="750" y="50" on="1"/>
        <pt x="750" y="530" on="1"/>
      </contour>
      <contour>
        <pt x="1110" y="535" on="1"/>
        <pt x="1450" y="535" on="1"/>
        <pt x="1800" y="880" on="1"/>
        <pt x="1800" y="380" on="1"/>
        <pt x="1110" y="380" on="1"/>
        <pt x="1110" y="535" on="1"/>
      </contour>
      <contour>
        <pt x="1825" y="900" on="1"/>
        <pt x="1800" y="910" on="1"/>
        <pt x="1470" y="590" on="1"/>
        <pt x="1470" y="1450" on="1"/>
        <pt x="2160" y="2140" on="1"/>
        <pt x="2160" y="740" on="1"/>
        <pt x="1825" y="410" on="1"/>
        <pt x="1825" y="900" on="1"/>
      </contour>
      <contour>
        <pt x="550" y="900" on="1"/>
        <pt x="1100" y="900" on="1"/>
        <pt x="1100" y="1090" on="1"/>
        <pt x="550" y="1090" on="1"/>
        <pt x="550" y="900" on="1"/>
      </contour>
      <contour>
        <pt x="730" y="1070" on="1"/>
        <pt x="1080" y="1070" on="1"/>
        <pt x="1080" y="920" on="1"/>
        <pt x="580" y="920" on="1"/>
        <pt x="730" y="1070" on="1"/>
      </contour>
      <contour>
        <pt x="570" y="1070" on="1"/>
        <pt x="690" y="1070" on="1"/>
        <pt x="570" y="950" on="1"/>
        <pt x="570" y="1070" on="1"/>
      </contour>
      <contour>
        <pt x="1710" y="1360" on="1"/>
        <pt x="1710" y="1170" on="1"/>
        <pt x="1720" y="1170" on="1"/>
        <pt x="2000" y="1450" on="1"/>
        <pt x="2000" y="1620" on="1"/>
        <pt x="1980" y="1630" on="1"/>
        <pt x="1710" y="1360" on="1"/>
      </contour>
      <contour>
        <pt x="1730" y="1350" on="1"/>
        <pt x="1810" y="1430" on="1"/>
        <pt x="1950" y="1430" on="1"/>
        <pt x="1730" y="1210" on="1"/>
        <pt x="1730" y="1350" on="1"/>
      </contour>
      <contour>
        <pt x="730" y="2150" on="1"/>
        <pt x="2130" y="2150" on="1"/>
        <pt x="1440" y="1460" on="1"/>
        <pt x="40" y="1460" on="1"/>
        <pt x="730" y="2150" on="1"/>
      </contour>
      <contour>
        <pt x="1980" y="1600" on="1"/>
        <pt x="1980" y="1460" on="1"/>
        <pt x="1840" y="1460" on="1"/>
        <pt x="1980" y="1600" on="1"/>
      </contour>
    </TTGlyph>
    <TTGlyph name="Q" xMin="10" yMin="0" xMax="2170" yMax="2180">
      <contour>
        <pt x="10" y="0" on="1"/>
        <pt x="1450" y="0" on="1"/>
        <pt x="2170" y="730" on="1"/>
        <pt x="2170" y="2180" on="1"/>
        <pt x="730" y="2180" on="1"/>
        <pt x="10" y="1460" on="1"/>
      </contour>
      <contour>
        <pt x="30" y="1430" on="1"/>
        <pt x="1440" y="1430" on="1"/>
        <pt x="1440" y="20" on="1"/>
        <pt x="30" y="20" on="1"/>
      </contour>
      <contour>
        <pt x="1460" y="1450" on="1"/>
        <pt x="2150" y="2140" on="1"/>
        <pt x="2150" y="730" on="1"/>
        <pt x="1470" y="50" on="1"/>
      </contour>
      <contour>
        <pt x="370" y="360" on="1"/>
        <pt x="745" y="360" on="1"/>
        <pt x="745" y="710" on="1"/>
        <pt x="905" y="710" on="1"/>
        <pt x="905" y="360" on="1"/>
        <pt x="1100" y="360" on="1"/>
        <pt x="1100" y="1090" on="1"/>
        <pt x="370" y="1090" on="1"/>
      </contour>
      <contour>
        <pt x="720" y="700" on="1"/>
        <pt x="720" y="380" on="1"/>
        <pt x="400" y="380" on="1"/>
      </contour>
      <contour>
        <pt x="1080" y="510" on="1"/>
        <pt x="1080" y="380" on="1"/>
        <pt x="950" y="380" on="1"/>
      </contour>
      <contour>
        <pt x="930" y="730" on="1"/>
        <pt x="1080" y="880" on="1"/>
        <pt x="1080" y="550" on="1"/>
        <pt x="1080" y="549" on="0"/>
        <pt x="1064" y="530" on="0"/>
        <pt x="1042" y="505" on="0"/>
        <pt x="1018" y="478" on="0"/>
        <pt x="1010" y="470" on="1"/>
        <pt x="930" y="390" on="1"/>
      </contour>
      <contour>
        <pt x="390" y="1070" on="1"/>
        <pt x="1080" y="1070" on="1"/>
        <pt x="1080" y="1005" on="1"/>
        <pt x="990" y="1005" on="1"/>
        <pt x="390" y="400" on="1"/>
      </contour>
      <contour>
        <pt x="1000" y="980" on="1"/>
        <pt x="1080" y="980" on="1"/>
        <pt x="1080" y="920" on="1"/>
        <pt x="900" y="740" on="1"/>
        <pt x="760" y="740" on="1"/>
      </contour>
      <contour>
        <pt x="730" y="2160" on="1"/>
        <pt x="2140" y="2160" on="1"/>
        <pt x="1440" y="1460" on="1"/>
        <pt x="30" y="1460" on="1"/>
      </contour>
    </TTGlyph>
    <TTGlyph name="R" xMin="10" yMin="0" xMax="2170" yMax="2170">
      <contour>
        <pt x="10" y="1450" on="1"/>
        <pt x="10" y="0" on="1"/>
        <pt x="550" y="0" on="1"/>
        <pt x="730" y="170" on="1"/>
        <pt x="895" y="170" on="1"/>
        <pt x="895" y="0" on="1"/>
        <pt x="1450" y="0" on="1"/>
        <pt x="1635" y="185" on="1"/>
        <pt x="1635" y="355" on="1"/>
        <pt x="1810" y="355" on="1"/>
        <pt x="2170" y="720" on="1"/>
        <pt x="2170" y="2170" on="1"/>
        <pt x="730" y="2170" on="1"/>
      </contour>
      <contour>
        <pt x="30" y="1430" on="1"/>
        <pt x="530" y="1430" on="1"/>
        <pt x="530" y="20" on="1"/>
        <pt x="30" y="20" on="1"/>
      </contour>
      <contour>
        <pt x="920" y="1430" on="1"/>
        <pt x="1430" y="1430" on="1"/>
        <pt x="1430" y="20" on="1"/>
        <pt x="920" y="20" on="1"/>
      </contour>
      <contour>
        <pt x="560" y="1440" on="1"/>
        <pt x="710" y="1590" on="1"/>
        <pt x="710" y="180" on="1"/>
        <pt x="560" y="30" on="1"/>
      </contour>
      <contour>
        <pt x="1460" y="1440" on="1"/>
        <pt x="1610" y="1590" on="1"/>
        <pt x="1610" y="180" on="1"/>
        <pt x="1460" y="30" on="1"/>
      </contour>
      <contour>
        <pt x="740" y="1610" on="1"/>
        <pt x="1060" y="1610" on="1"/>
        <pt x="895" y="1440" on="1"/>
        <pt x="895" y="200" on="1"/>
        <pt x="740" y="200" on="1"/>
      </contour>
      <contour>
        <pt x="1635" y="1630" on="1"/>
        <pt x="1480" y="1790" on="1"/>
        <pt x="1790" y="1790" on="1"/>
        <pt x="1790" y="380" on="1"/>
        <pt x="1635" y="380" on="1"/>
      </contour>
      <contour>
        <pt x="1820" y="1800" on="1"/>
        <pt x="2150" y="2130" on="1"/>
        <pt x="2150" y="720" on="1"/>
        <pt x="1820" y="390" on="1"/>
      </contour>
      <contour>
        <pt x="730" y="2150" on="1"/>
        <pt x="2140" y="2150" on="1"/>
        <pt x="1810" y="1815" on="1"/>
        <pt x="1450" y="1815" on="1"/>
        <pt x="1450" y="1790" on="1"/>
        <pt x="1610" y="1620" on="1"/>
        <pt x="1450" y="1460" on="1"/>
        <pt x="940" y="1460" on="1"/>
        <pt x="1080" y="1610" on="1"/>
        <pt x="1080" y="1630" on="1"/>
        <pt x="730" y="1630" on="1"/>
        <pt x="550" y="1460" on="1"/>
        <pt x="40" y="1460" on="1"/>
      </contour>
      <contour>
        <pt x="999" y="1925" on="1"/>
        <pt x="999" y="1924" on="0"/>
        <pt x="1000" y="1920" on="0"/>
        <pt x="1000" y="1920" on="1"/>
        <pt x="1002" y="1918" on="0"/>
        <pt x="1008" y="1910" on="0"/>
        <pt x="1010" y="1910" on="1"/>
        <pt x="1380" y="1910" on="1"/>
        <pt x="1440" y="1970" on="1"/>
        <pt x="1440" y="1990" on="1"/>
        <pt x="1070" y="1990" on="1"/>
        <pt x="1068" y="1990" on="0"/>
        <pt x="1052" y="1982" on="0"/>
        <pt x="1050" y="1980" on="1"/>
        <pt x="1047" y="1977" on="0"/>
        <pt x="1033" y="1963" on="0"/>
        <pt x="1017" y="1947" on="0"/>
        <pt x="1003" y="1933" on="0"/>
        <pt x="1000" y="1930" on="1"/>
        <pt x="1000" y="1929" on="0"/>
        <pt x="999" y="1926" on="0"/>
      </contour>
      <contour>
        <pt x="1060" y="1960" on="1"/>
        <pt x="1060" y="1930" on="1"/>
        <pt x="1030" y="1930" on="1"/>
      </contour>
      <contour>
        <pt x="1090" y="1970" on="1"/>
        <pt x="1420" y="1970" on="1"/>
        <pt x="1380" y="1930" on="1"/>
        <pt x="1090" y="1930" on="1"/>
      </contour>
    </TTGlyph>
    <TTGlyph name="S" xMin="10" yMin="0" xMax="2180" yMax="2170">
      <contour>
        <pt x="10" y="0" on="1"/>
        <pt x="1480" y="0" on="1"/>
        <pt x="1900" y="420" on="1"/>
        <pt x="1902" y="422" on="0"/>
        <pt x="1909" y="437" on="0"/>
        <pt x="1910" y="440" on="1"/>
        <pt x="1911" y="445" on="0"/>
        <pt x="1914" y="472" on="0"/>
        <pt x="1917" y="503" on="0"/>
        <pt x="1920" y="530" on="0"/>
        <pt x="1920" y="535" on="1"/>
        <pt x="2000" y="535" on="1"/>
        <pt x="2180" y="720" on="1"/>
        <pt x="2180" y="2170" on="1"/>
        <pt x="740" y="2170" on="1"/>
        <pt x="295" y="1730" on="1"/>
        <pt x="295" y="1635" on="1"/>
        <pt x="200" y="1635" on="1"/>
        <pt x="10" y="1440" on="1"/>
      </contour>
      <contour>
        <pt x="30" y="1430" on="1"/>
        <pt x="1440" y="1430" on="1"/>
        <pt x="1440" y="20" on="1"/>
        <pt x="30" y="20" on="1"/>
      </contour>
      <contour>
        <pt x="1470" y="1440" on="1"/>
        <pt x="1890" y="1860" on="1"/>
        <pt x="1890" y="440" on="1"/>
        <pt x="1470" y="20" on="1"/>
      </contour>
      <contour>
        <pt x="1915" y="1880" on="1"/>
        <pt x="1900" y="1915" on="1"/>
        <pt x="930" y="1915" on="1"/>
        <pt x="930" y="1970" on="1"/>
        <pt x="1980" y="1970" on="1"/>
        <pt x="1980" y="560" on="1"/>
        <pt x="1915" y="560" on="1"/>
      </contour>
      <contour>
        <pt x="2010" y="1980" on="1"/>
        <pt x="2160" y="2130" on="1"/>
        <pt x="2160" y="720" on="1"/>
        <pt x="2010" y="570" on="1"/>
      </contour>
      <contour>
        <pt x="200" y="1615" on="1"/>
        <pt x="1280" y="1615" on="1"/>
        <pt x="1370" y="1710" on="1"/>
        <pt x="1370" y="1735" on="1"/>
        <pt x="350" y="1735" on="1"/>
        <pt x="760" y="2150" on="1"/>
        <pt x="2150" y="2150" on="1"/>
        <pt x="2000" y="1995" on="1"/>
        <pt x="920" y="1995" on="1"/>
        <pt x="830" y="1895" on="1"/>
        <pt x="1890" y="1895" on="1"/>
        <pt x="1460" y="1460" on="1"/>
        <pt x="50" y="1460" on="1"/>
      </contour>
      <contour>
        <pt x="320" y="1710" on="1"/>
        <pt x="1350" y="1710" on="1"/>
        <pt x="1280" y="1640" on="1"/>
        <pt x="320" y="1640" on="1"/>
      </contour>
      <contour>
        <pt x="900" y="1950" on="1"/>
        <pt x="900" y="1920" on="1"/>
        <pt x="870" y="1920" on="1"/>
      </contour>
    </TTGlyph>
    <TTGlyph name="T" xMin="10" yMin="0" xMax="1720" yMax="2160">
      <contour>
        <pt x="85" y="0" on="1"/>
        <pt x="470" y="0" on="1"/>
        <pt x="930" y="455" on="1"/>
        <pt x="1460" y="455" on="1"/>
        <pt x="1720" y="720" on="1"/>
        <pt x="1720" y="2160" on="1"/>
        <pt x="270" y="2160" on="1"/>
        <pt x="10" y="1910" on="1"/>
        <pt x="10" y="455" on="1"/>
        <pt x="85" y="455" on="1"/>
      </contour>
      <contour>
        <pt x="110" y="1430" on="1"/>
        <pt x="440" y="1430" on="1"/>
        <pt x="440" y="20" on="1"/>
        <pt x="110" y="20" on="1"/>
      </contour>
      <contour>
        <pt x="470" y="1440" on="1"/>
        <pt x="900" y="1870" on="1"/>
        <pt x="900" y="460" on="1"/>
        <pt x="470" y="30" on="1"/>
      </contour>
      <contour>
        <pt x="30" y="1900" on="1"/>
        <pt x="540" y="1900" on="1"/>
        <pt x="85" y="1440" on="1"/>
        <pt x="85" y="480" on="1"/>
        <pt x="30" y="480" on="1"/>
      </contour>
      <contour>
        <pt x="930" y="1870" on="1"/>
        <pt x="1440" y="1870" on="1"/>
        <pt x="1440" y="480" on="1"/>
        <pt x="930" y="480" on="1"/>
      </contour>
      <contour>
        <pt x="1470" y="1890" on="1"/>
        <pt x="1700" y="2120" on="1"/>
        <pt x="1700" y="720" on="1"/>
        <pt x="1470" y="500" on="1"/>
      </contour>
      <contour>
        <pt x="558" y="1925" on="1"/>
        <pt x="60" y="1925" on="1"/>
        <pt x="270" y="2140" on="1"/>
        <pt x="1680" y="2140" on="1"/>
        <pt x="1440" y="1895" on="1"/>
        <pt x="900" y="1895" on="1"/>
        <pt x="460" y="1460" on="1"/>
        <pt x="130" y="1460" on="1"/>
        <pt x="550" y="1890" on="1"/>
        <pt x="556" y="1896" on="0"/>
        <pt x="560" y="1904" on="0"/>
        <pt x="560" y="1907" on="1"/>
        <pt x="560" y="1911" on="0"/>
        <pt x="558" y="1919" on="0"/>
      </contour>
    </TTGlyph>
    <TTGlyph name="U" xMin="10" yMin="0" xMax="2180" yMax="2170">
      <contour>
        <pt x="10" y="0" on="1"/>
        <pt x="1460" y="0" on="1"/>
        <pt x="2180" y="720" on="1"/>
        <pt x="2180" y="2170" on="1"/>
        <pt x="1820" y="2170" on="1"/>
        <pt x="1280" y="1640" on="1"/>
        <pt x="1105" y="1640" on="1"/>
        <pt x="1105" y="2170" on="1"/>
        <pt x="740" y="2170" on="1"/>
        <pt x="10" y="1440" on="1"/>
        <pt x="10" y="0" on="1"/>
      </contour>
      <contour>
        <pt x="30" y="1430" on="1"/>
        <pt x="1440" y="1430" on="1"/>
        <pt x="1440" y="20" on="1"/>
        <pt x="30" y="20" on="1"/>
        <pt x="30" y="1430" on="1"/>
      </contour>
      <contour>
        <pt x="1470" y="1440" on="1"/>
        <pt x="2160" y="2130" on="1"/>
        <pt x="2160" y="720" on="1"/>
        <pt x="1470" y="30" on="1"/>
        <pt x="1470" y="1440" on="1"/>
      </contour>
      <contour>
        <pt x="740" y="2150" on="1"/>
        <pt x="1070" y="2150" on="1"/>
        <pt x="550" y="1620" on="1"/>
        <pt x="1280" y="1620" on="1"/>
        <pt x="1820" y="2150" on="1"/>
        <pt x="2150" y="2150" on="1"/>
        <pt x="1460" y="1460" on="1"/>
        <pt x="50" y="1460" on="1"/>
        <pt x="740" y="2150" on="1"/>
      </contour>
      <contour>
        <pt x="1080" y="2130" on="1"/>
        <pt x="1080" y="1640" on="1"/>
        <pt x="590" y="1640" on="1"/>
        <pt x="1080" y="2130" on="1"/>
      </contour>
    </TTGlyph>
    <TTGlyph name="V" xMin="10" yMin="0" xMax="2000" yMax="2170">
      <contour>
        <pt x="10" y="180" on="1"/>
        <pt x="190" y="0" on="1"/>
        <pt x="940" y="0" on="1"/>
        <pt x="1450" y="170" on="1"/>
        <pt x="2000" y="720" on="1"/>
        <pt x="2000" y="2170" on="1"/>
        <pt x="1460" y="2170" on="1"/>
        <pt x="1105" y="1830" on="1"/>
        <pt x="1105" y="2170" on="1"/>
        <pt x="560" y="2170" on="1"/>
        <pt x="10" y="1620" on="1"/>
        <pt x="10" y="180" on="1"/>
      </contour>
      <contour>
        <pt x="210" y="1430" on="1"/>
        <pt x="900" y="1430" on="1"/>
        <pt x="900" y="20" on="1"/>
        <pt x="210" y="20" on="1"/>
        <pt x="210" y="1430" on="1"/>
      </contour>
      <contour>
        <pt x="930" y="1433" on="1"/>
        <pt x="1440" y="1603" on="1"/>
        <pt x="1440" y="190" on="1"/>
        <pt x="930" y="20" on="1"/>
        <pt x="930" y="1433" on="1"/>
      </contour>
      <contour>
        <pt x="30" y="190" on="1"/>
        <pt x="30" y="1590" on="1"/>
        <pt x="180" y="1440" on="1"/>
        <pt x="180" y="40" on="1"/>
        <pt x="30" y="190" on="1"/>
      </contour>
      <contour>
        <pt x="1470" y="1620" on="1"/>
        <pt x="1980" y="2130" on="1"/>
        <pt x="1980" y="720" on="1"/>
        <pt x="1470" y="210" on="1"/>
        <pt x="1470" y="1620" on="1"/>
      </contour>
      <contour>
        <pt x="35" y="1625" on="1"/>
        <pt x="560" y="2150" on="1"/>
        <pt x="1070" y="2150" on="1"/>
        <pt x="550" y="1620" on="1"/>
        <pt x="920" y="1620" on="1"/>
        <pt x="1460" y="2150" on="1"/>
        <pt x="1970" y="2150" on="1"/>
        <pt x="1455" y="1635" on="1"/>
        <pt x="930" y="1460" on="1"/>
        <pt x="200" y="1460" on="1"/>
        <pt x="35" y="1625" on="1"/>
      </contour>
      <contour>
        <pt x="1080" y="2130" on="1"/>
        <pt x="1080" y="1800" on="1"/>
        <pt x="920" y="1640" on="1"/>
        <pt x="590" y="1640" on="1"/>
        <pt x="1080" y="2130" on="1"/>
      </contour>
    </TTGlyph>
    <TTGlyph name="W" xMin="10" yMin="0" xMax="2180" yMax="2170">
      <contour>
        <pt x="10" y="0" on="1"/>
        <pt x="1460" y="0" on="1"/>
        <pt x="2180" y="720" on="1"/>
        <pt x="2180" y="2170" on="1"/>
        <pt x="1820" y="2170" on="1"/>
        <pt x="1465" y="1830" on="1"/>
        <pt x="1465" y="1980" on="1"/>
        <pt x="1450" y="1995" on="1"/>
        <pt x="1105" y="1995" on="1"/>
        <pt x="1105" y="2170" on="1"/>
        <pt x="740" y="2170" on="1"/>
        <pt x="10" y="1440" on="1"/>
        <pt x="10" y="0" on="1"/>
      </contour>
      <contour>
        <pt x="30" y="1430" on="1"/>
        <pt x="1440" y="1430" on="1"/>
        <pt x="1440" y="20" on="1"/>
        <pt x="30" y="20" on="1"/>
        <pt x="30" y="1430" on="1"/>
      </contour>
      <contour>
        <pt x="1470" y="1440" on="1"/>
        <pt x="2160" y="2130" on="1"/>
        <pt x="2160" y="720" on="1"/>
        <pt x="1470" y="30" on="1"/>
        <pt x="1470" y="1440" on="1"/>
      </contour>
      <contour>
        <pt x="740" y="2150" on="1"/>
        <pt x="1070" y="2150" on="1"/>
        <pt x="550" y="1620" on="1"/>
        <pt x="740" y="1620" on="1"/>
        <pt x="1100" y="1970" on="1"/>
        <pt x="1430" y="1970" on="1"/>
        <pt x="1090" y="1620" on="1"/>
        <pt x="1280" y="1620" on="1"/>
        <pt x="1820" y="2150" on="1"/>
        <pt x="2150" y="2150" on="1"/>
        <pt x="1460" y="1460" on="1"/>
        <pt x="50" y="1460" on="1"/>
        <pt x="740" y="2150" on="1"/>
      </contour>
      <contour>
        <pt x="1080" y="2130" on="1"/>
        <pt x="1080" y="1980" on="1"/>
        <pt x="740" y="1640" on="1"/>
        <pt x="590" y="1640" on="1"/>
        <pt x="1080" y="2130" on="1"/>
      </contour>
      <contour>
        <pt x="1440" y="1950" on="1"/>
        <pt x="1440" y="1800" on="1"/>
        <pt x="1280" y="1640" on="1"/>
        <pt x="1130" y="1640" on="1"/>
        <pt x="1440" y="1950" on="1"/>
      </contour>
    </TTGlyph>
    <TTGlyph name="X" xMin="10" yMin="0" xMax="2180" yMax="2170">
      <contour>
        <pt x="10" y="0" on="1"/>
        <pt x="370" y="0" on="1"/>
        <pt x="730" y="350" on="1"/>
        <pt x="1090" y="0" on="1"/>
        <pt x="1450" y="0" on="1"/>
        <pt x="2180" y="730" on="1"/>
        <pt x="2180" y="910" on="1"/>
        <pt x="1650" y="1450" on="1"/>
        <pt x="2180" y="1990" on="1"/>
        <pt x="2180" y="2170" on="1"/>
        <pt x="1800" y="2170" on="1"/>
        <pt x="1450" y="1830" on="1"/>
        <pt x="1100" y="2170" on="1"/>
        <pt x="720" y="2170" on="1"/>
        <pt x="10" y="1460" on="1"/>
        <pt x="10" y="1260" on="1"/>
        <pt x="530" y="730" on="1"/>
        <pt x="10" y="200" on="1"/>
        <pt x="10" y="0" on="1"/>
      </contour>
      <contour>
        <pt x="30" y="190" on="1"/>
        <pt x="560" y="730" on="1"/>
        <pt x="30" y="1270" on="1"/>
        <pt x="30" y="1430" on="1"/>
        <pt x="370" y="1430" on="1"/>
        <pt x="730" y="1080" on="1"/>
        <pt x="1090" y="1430" on="1"/>
        <pt x="1440" y="1430" on="1"/>
        <pt x="1440" y="1280" on="1"/>
        <pt x="900" y="730" on="1"/>
        <pt x="1440" y="180" on="1"/>
        <pt x="1440" y="20" on="1"/>
        <pt x="1100" y="20" on="1"/>
        <pt x="730" y="380" on="1"/>
        <pt x="360" y="20" on="1"/>
        <pt x="30" y="20" on="1"/>
        <pt x="30" y="190" on="1"/>
      </contour>
      <contour>
        <pt x="1470" y="190" on="1"/>
        <pt x="2160" y="880" on="1"/>
        <pt x="2160" y="740" on="1"/>
        <pt x="1470" y="50" on="1"/>
        <pt x="1470" y="190" on="1"/>
      </contour>
      <contour>
        <pt x="930" y="730" on="1"/>
        <pt x="1630" y="1430" on="1"/>
        <pt x="2150" y="910" on="1"/>
        <pt x="1450" y="210" on="1"/>
        <pt x="930" y="730" on="1"/>
      </contour>
      <contour>
        <pt x="390" y="1450" on="1"/>
        <pt x="1090" y="2150" on="1"/>
        <pt x="1430" y="1810" on="1"/>
        <pt x="730" y="1110" on="1"/>
        <pt x="390" y="1450" on="1"/>
      </contour>
      <contour>
        <pt x="1470" y="1450" on="1"/>
        <pt x="2160" y="2140" on="1"/>
        <pt x="2160" y="2000" on="1"/>
        <pt x="1470" y="1310" on="1"/>
        <pt x="1470" y="1450" on="1"/>
      </contour>
      <contour>
        <pt x="730" y="2150" on="1"/>
        <pt x="1050" y="2150" on="1"/>
        <pt x="360" y="1460" on="1"/>
        <pt x="40" y="1460" on="1"/>
        <pt x="730" y="2150" on="1"/>
      </contour>
      <contour>
        <pt x="1810" y="2150" on="1"/>
        <pt x="2130" y="2150" on="1"/>
        <pt x="1440" y="1460" on="1"/>
        <pt x="1120" y="1460" on="1"/>
        <pt x="1810" y="2150" on="1"/>
      </contour>
    </TTGlyph>
    <TTGlyph name="Y" xMin="10" yMin="0" xMax="1810" yMax="2180">
      <contour>
        <pt x="185" y="0" on="1"/>
        <pt x="550" y="0" on="1"/>
        <pt x="910" y="355" on="1"/>
        <pt x="1450" y="355" on="1"/>
        <pt x="1810" y="730" on="1"/>
        <pt x="1810" y="2180" on="1"/>
        <pt x="1450" y="2180" on="1"/>
        <pt x="1270" y="2010" on="1"/>
        <pt x="745" y="2010" on="1"/>
        <pt x="745" y="2170" on="1"/>
        <pt x="380" y="2170" on="1"/>
        <pt x="380" y="2155" on="1"/>
        <pt x="690" y="2155" on="1"/>
        <pt x="541" y="1990" on="1"/>
        <pt x="1270" y="1990" on="1"/>
        <pt x="1450" y="2160" on="1"/>
        <pt x="1780" y="2160" on="1"/>
        <pt x="1450" y="1830" on="1"/>
        <pt x="910" y="1810" on="1"/>
        <pt x="900" y="1810" on="1"/>
        <pt x="540" y="1460" on="1"/>
        <pt x="220" y="1460" on="1"/>
        <pt x="559" y="1810" on="1"/>
        <pt x="40" y="1830" on="1"/>
        <pt x="360" y="2160" on="1"/>
        <pt x="360" y="2170" on="1"/>
        <pt x="10" y="1820" on="1"/>
        <pt x="10" y="355" on="1"/>
        <pt x="185" y="355" on="1"/>
      </contour>
      <contour>
        <pt x="210" y="1430" on="1"/>
        <pt x="540" y="1430" on="1"/>
        <pt x="540" y="20" on="1"/>
        <pt x="210" y="20" on="1"/>
      </contour>
      <contour>
        <pt x="570" y="1450" on="1"/>
        <pt x="900" y="1780" on="1"/>
        <pt x="900" y="380" on="1"/>
        <pt x="570" y="50" on="1"/>
      </contour>
      <contour>
        <pt x="30" y="1800" on="1"/>
        <pt x="110" y="1800" on="1"/>
        <pt x="190" y="1800" on="1"/>
        <pt x="202" y="1800" on="0"/>
        <pt x="252" y="1798" on="0"/>
        <pt x="315" y="1796" on="0"/>
        <pt x="385" y="1794" on="0"/>
        <pt x="448" y="1792" on="0"/>
        <pt x="498" y="1791" on="0"/>
        <pt x="510" y="1790" on="1"/>
        <pt x="185" y="1460" on="1"/>
        <pt x="185" y="380" on="1"/>
        <pt x="30" y="380" on="1"/>
      </contour>
      <contour>
        <pt x="930" y="1790" on="1"/>
        <pt x="982" y="1792" on="0"/>
        <pt x="1108" y="1796" on="0"/>
        <pt x="1240" y="1799" on="0"/>
        <pt x="1372" y="1801" on="0"/>
        <pt x="1430" y="1801" on="1"/>
        <pt x="1430" y="380" on="1"/>
        <pt x="930" y="380" on="1"/>
      </contour>
      <contour>
        <pt x="1460" y="1810" on="1"/>
        <pt x="1790" y="2140" on="1"/>
        <pt x="1790" y="730" on="1"/>
        <pt x="1460" y="400" on="1"/>
      </contour>
      <contour>
        <pt x="720" y="2150" on="1"/>
        <pt x="720" y="2010" on="1"/>
        <pt x="580" y="2010" on="1"/>
      </contour>
    </TTGlyph>
    <TTGlyph name="Z" xMin="10" yMin="0" xMax="2180" yMax="2170">
      <contour>
        <pt x="10" y="0" on="1"/>
        <pt x="1480" y="0" on="1"/>
        <pt x="1725" y="240" on="1"/>
        <pt x="1725" y="355" on="1"/>
        <pt x="1820" y="355" on="1"/>
        <pt x="2180" y="720" on="1"/>
        <pt x="2180" y="2170" on="1"/>
        <pt x="740" y="2170" on="1"/>
        <pt x="605" y="2040" on="1"/>
        <pt x="605" y="1955" on="1"/>
        <pt x="510" y="1955" on="1"/>
        <pt x="10" y="1440" on="1"/>
      </contour>
      <contour>
        <pt x="30" y="1430" on="1"/>
        <pt x="1440" y="1430" on="1"/>
        <pt x="1440" y="20" on="1"/>
        <pt x="30" y="20" on="1"/>
      </contour>
      <contour>
        <pt x="1470" y="1440" on="1"/>
        <pt x="1700" y="1670" on="1"/>
        <pt x="1700" y="250" on="1"/>
        <pt x="1470" y="20" on="1"/>
      </contour>
      <contour>
        <pt x="1725" y="1715" on="1"/>
        <pt x="750" y="1715" on="1"/>
        <pt x="750" y="1790" on="1"/>
        <pt x="1800" y="1790" on="1"/>
        <pt x="1800" y="380" on="1"/>
        <pt x="1725" y="380" on="1"/>
      </contour>
      <contour>
        <pt x="1830" y="1800" on="1"/>
        <pt x="2160" y="2130" on="1"/>
        <pt x="2160" y="720" on="1"/>
        <pt x="1830" y="390" on="1"/>
      </contour>
      <contour>
        <pt x="520" y="1935" on="1"/>
        <pt x="1590" y="1935" on="1"/>
        <pt x="1690" y="2040" on="1"/>
        <pt x="1690" y="2055" on="1"/>
        <pt x="650" y="2055" on="1"/>
        <pt x="740" y="2150" on="1"/>
        <pt x="2150" y="2150" on="1"/>
        <pt x="1820" y="1815" on="1"/>
        <pt x="740" y="1815" on="1"/>
        <pt x="738" y="1815" on="0"/>
        <pt x="723" y="1803" on="0"/>
        <pt x="720" y="1800" on="1"/>
        <pt x="714" y="1794" on="0"/>
        <pt x="686" y="1765" on="0"/>
        <pt x="654" y="1731" on="0"/>
        <pt x="626" y="1701" on="0"/>
        <pt x="620" y="1695" on="1"/>
        <pt x="1690" y="1695" on="1"/>
        <pt x="1460" y="1460" on="1"/>
        <pt x="50" y="1460" on="1"/>
      </contour>
      <contour>
        <pt x="720" y="1780" on="1"/>
        <pt x="720" y="1720" on="1"/>
        <pt x="660" y="1720" on="1"/>
      </contour>
      <contour>
        <pt x="630" y="2030" on="1"/>
        <pt x="1660" y="2030" on="1"/>
        <pt x="1590" y="1960" on="1"/>
        <pt x="630" y="1960" on="1"/>
      </contour>
    </TTGlyph>
    <TTGlyph name="a" xMin="10" yMin="0" xMax="2180" yMax="2170">
      <contour>
        <pt x="10" y="0" on="1"/>
        <pt x="560" y="0" on="1"/>
        <pt x="905" y="340" on="1"/>
        <pt x="905" y="0" on="1"/>
        <pt x="1460" y="0" on="1"/>
        <pt x="1725" y="260" on="1"/>
        <pt x="1725" y="455" on="1"/>
        <pt x="1920" y="455" on="1"/>
        <pt x="2180" y="720" on="1"/>
        <pt x="2180" y="2170" on="1"/>
        <pt x="740" y="2170" on="1"/>
        <pt x="10" y="1440" on="1"/>
        <pt x="10" y="0" on="1"/>
      </contour>
      <contour>
        <pt x="30" y="1430" on="1"/>
        <pt x="1440" y="1430" on="1"/>
        <pt x="1440" y="20" on="1"/>
        <pt x="915" y="20" on="1"/>
        <pt x="915" y="540" on="1"/>
        <pt x="555" y="540" on="1"/>
        <pt x="555" y="20" on="1"/>
        <pt x="30" y="20" on="1"/>
        <pt x="30" y="1430" on="1"/>
      </contour>
      <contour>
        <pt x="1470" y="1440" on="1"/>
        <pt x="2160" y="2130" on="1"/>
        <pt x="2160" y="720" on="1"/>
        <pt x="1905" y="470" on="1"/>
        <pt x="1905" y="990" on="1"/>
        <pt x="1715" y="810" on="1"/>
        <pt x="1715" y="270" on="1"/>
        <pt x="1470" y="30" on="1"/>
        <pt x="1470" y="1440" on="1"/>
      </contour>
      <contour>
        <pt x="570" y="530" on="1"/>
        <pt x="900" y="530" on="1"/>
        <pt x="900" y="370" on="1"/>
        <pt x="570" y="40" on="1"/>
        <pt x="570" y="530" on="1"/>
      </contour>
      <contour>
        <pt x="1730" y="810" on="1"/>
        <pt x="1890" y="970" on="1"/>
        <pt x="1890" y="470" on="1"/>
        <pt x="1730" y="470" on="1"/>
        <pt x="1730" y="810" on="1"/>
      </contour>
      <contour>
        <pt x="550" y="720" on="1"/>
        <pt x="910" y="720" on="1"/>
        <pt x="910" y="900" on="1"/>
        <pt x="550" y="900" on="1"/>
        <pt x="550" y="720" on="1"/>
      </contour>
      <contour>
        <pt x="730" y="890" on="1"/>
        <pt x="900" y="890" on="1"/>
        <pt x="900" y="730" on="1"/>
        <pt x="570" y="730" on="1"/>
        <pt x="730" y="890" on="1"/>
      </contour>
      <contour>
        <pt x="560" y="890" on="1"/>
        <pt x="710" y="890" on="1"/>
        <pt x="560" y="740" on="1"/>
        <pt x="560" y="890" on="1"/>
      </contour>
      <contour>
        <pt x="1710" y="1160" on="1"/>
        <pt x="1710" y="970" on="1"/>
        <pt x="1900" y="1160" on="1"/>
        <pt x="1900" y="1350" on="1"/>
        <pt x="1710" y="1160" on="1"/>
      </contour>
      <contour>
        <pt x="1720" y="1160" on="1"/>
        <pt x="1880" y="1160" on="1"/>
        <pt x="1720" y="1000" on="1"/>
        <pt x="1720" y="1160" on="1"/>
      </contour>
      <contour>
        <pt x="1890" y="1330" on="1"/>
        <pt x="1890" y="1180" on="1"/>
        <pt x="1740" y="1180" on="1"/>
        <pt x="1890" y="1330" on="1"/>
      </contour>
      <contour>
        <pt x="740" y="2150" on="1"/>
        <pt x="2150" y="2150" on="1"/>
        <pt x="1460" y="1460" on="1"/>
        <pt x="50" y="1460" on="1"/>
        <pt x="740" y="2150" on="1"/>
      </contour>
    </TTGlyph>
    <TTGlyph name="b" xMin="10" yMin="0" xMax="2180" yMax="2170">
      <contour>
        <pt x="10" y="0" on="1"/>
        <pt x="1090" y="0" on="1"/>
        <pt x="2180" y="1090" on="1"/>
        <pt x="2180" y="1455" on="1"/>
        <pt x="2020" y="1455" on="1"/>
        <pt x="2180" y="1630" on="1"/>
        <pt x="2180" y="2170" on="1"/>
        <pt x="720" y="2170" on="1"/>
        <pt x="10" y="1460" on="1"/>
      </contour>
      <contour>
        <pt x="30" y="1430" on="1"/>
        <pt x="1440" y="1430" on="1"/>
        <pt x="1440" y="920" on="1"/>
        <pt x="1270" y="740" on="1"/>
        <pt x="1270" y="740" on="0"/>
        <pt x="1269" y="737" on="0"/>
        <pt x="1269" y="735" on="1"/>
        <pt x="1269" y="734" on="0"/>
        <pt x="1270" y="730" on="0"/>
        <pt x="1270" y="730" on="1"/>
        <pt x="1272" y="727" on="0"/>
        <pt x="1279" y="715" on="0"/>
        <pt x="1280" y="715" on="1"/>
        <pt x="1440" y="715" on="1"/>
        <pt x="1440" y="380" on="1"/>
        <pt x="1080" y="20" on="1"/>
        <pt x="30" y="20" on="1"/>
      </contour>
      <contour>
        <pt x="550" y="360" on="1"/>
        <pt x="910" y="360" on="1"/>
        <pt x="1090" y="540" on="1"/>
        <pt x="1090" y="550" on="1"/>
        <pt x="550" y="550" on="1"/>
      </contour>
      <contour>
        <pt x="730" y="530" on="1"/>
        <pt x="1050" y="530" on="1"/>
        <pt x="900" y="380" on="1"/>
        <pt x="580" y="380" on="1"/>
      </contour>
      <contour>
        <pt x="570" y="530" on="1"/>
        <pt x="690" y="530" on="1"/>
        <pt x="570" y="410" on="1"/>
      </contour>
      <contour>
        <pt x="1470" y="730" on="1"/>
        <pt x="2160" y="1420" on="1"/>
        <pt x="2160" y="1100" on="1"/>
        <pt x="1470" y="410" on="1"/>
      </contour>
      <contour>
        <pt x="1990" y="1430" on="1"/>
        <pt x="2130" y="1430" on="1"/>
        <pt x="1440" y="740" on="1"/>
        <pt x="1300" y="740" on="1"/>
      </contour>
      <contour>
        <pt x="550" y="900" on="1"/>
        <pt x="910" y="900" on="1"/>
        <pt x="1090" y="1080" on="1"/>
        <pt x="1090" y="1090" on="1"/>
        <pt x="550" y="1090" on="1"/>
      </contour>
      <contour>
        <pt x="730" y="1070" on="1"/>
        <pt x="1050" y="1070" on="1"/>
        <pt x="900" y="920" on="1"/>
        <pt x="580" y="920" on="1"/>
      </contour>
      <contour>
        <pt x="570" y="1070" on="1"/>
        <pt x="690" y="1070" on="1"/>
        <pt x="570" y="950" on="1"/>
      </contour>
      <contour>
        <pt x="1470" y="1450" on="1"/>
        <pt x="2160" y="2140" on="1"/>
        <pt x="2160" y="1640" on="1"/>
        <pt x="1470" y="950" on="1"/>
      </contour>
      <contour>
        <pt x="730" y="2150" on="1"/>
        <pt x="2130" y="2150" on="1"/>
        <pt x="1440" y="1460" on="1"/>
        <pt x="40" y="1460" on="1"/>
      </contour>
    </TTGlyph>
    <TTGlyph name="c" xMin="10" yMin="0" xMax="2180" yMax="2170">
      <contour>
        <pt x="10" y="0" on="1"/>
        <pt x="1460" y="0" on="1"/>
        <pt x="2180" y="720" on="1"/>
        <pt x="2180" y="2170" on="1"/>
        <pt x="740" y="2170" on="1"/>
        <pt x="10" y="1440" on="1"/>
        <pt x="10" y="0" on="1"/>
      </contour>
      <contour>
        <pt x="30" y="1430" on="1"/>
        <pt x="1440" y="1430" on="1"/>
        <pt x="1440" y="1105" on="1"/>
        <pt x="380" y="1105" on="1"/>
        <pt x="380" y="335" on="1"/>
        <pt x="1440" y="335" on="1"/>
        <pt x="1440" y="20" on="1"/>
        <pt x="30" y="20" on="1"/>
        <pt x="30" y="1430" on="1"/>
      </contour>
      <contour>
        <pt x="1470" y="350" on="1"/>
        <pt x="2000" y="890" on="1"/>
        <pt x="2000" y="1650" on="1"/>
        <pt x="1470" y="1130" on="1"/>
        <pt x="1470" y="1440" on="1"/>
        <pt x="2160" y="2130" on="1"/>
        <pt x="2160" y="720" on="1"/>
        <pt x="1470" y="30" on="1"/>
        <pt x="1470" y="350" on="1"/>
      </contour>
      <contour>
        <pt x="930" y="880" on="1"/>
        <pt x="1970" y="880" on="1"/>
        <pt x="1440" y="350" on="1"/>
        <pt x="400" y="350" on="1"/>
        <pt x="930" y="880" on="1"/>
      </contour>
      <contour>
        <pt x="390" y="1090" on="1"/>
        <pt x="910" y="1090" on="1"/>
        <pt x="910" y="880" on="1"/>
        <pt x="390" y="360" on="1"/>
        <pt x="390" y="1090" on="1"/>
      </contour>
      <contour>
        <pt x="930" y="1095" on="1"/>
        <pt x="1460" y="1095" on="1"/>
        <pt x="1990" y="1620" on="1"/>
        <pt x="1990" y="900" on="1"/>
        <pt x="930" y="900" on="1"/>
        <pt x="930" y="1095" on="1"/>
      </contour>
      <contour>
        <pt x="740" y="2150" on="1"/>
        <pt x="2150" y="2150" on="1"/>
        <pt x="1460" y="1460" on="1"/>
        <pt x="50" y="1460" on="1"/>
        <pt x="740" y="2150" on="1"/>
      </contour>
    </TTGlyph>
    <TTGlyph name="d" xMin="10" yMin="0" xMax="2180" yMax="2170">
      <contour>
        <pt x="10" y="0" on="1"/>
        <pt x="1100" y="0" on="1"/>
        <pt x="2180" y="1080" on="1"/>
        <pt x="2180" y="1810" on="1"/>
        <pt x="1820" y="2170" on="1"/>
        <pt x="740" y="2170" on="1"/>
        <pt x="10" y="1440" on="1"/>
        <pt x="10" y="1090" on="1"/>
        <pt x="910" y="1095" on="1"/>
        <pt x="30" y="1095" on="1"/>
        <pt x="30" y="1430" on="1"/>
        <pt x="1100" y="1430" on="1"/>
        <pt x="1810" y="2150" on="1"/>
        <pt x="2155" y="1805" on="1"/>
        <pt x="1440" y="1090" on="1"/>
        <pt x="1440" y="360" on="1"/>
        <pt x="1100" y="20" on="1"/>
        <pt x="30" y="20" on="1"/>
        <pt x="30" y="355" on="1"/>
        <pt x="910" y="355" on="1"/>
        <pt x="1100" y="540" on="1"/>
        <pt x="1100" y="910" on="1"/>
        <pt x="570" y="910" on="1"/>
        <pt x="555" y="1070" on="1"/>
        <pt x="555" y="900" on="1"/>
        <pt x="10" y="360" on="1"/>
      </contour>
      <contour>
        <pt x="560" y="890" on="1"/>
        <pt x="1090" y="890" on="1"/>
        <pt x="1090" y="550" on="1"/>
        <pt x="910" y="370" on="1"/>
        <pt x="40" y="370" on="1"/>
      </contour>
      <contour>
        <pt x="1470" y="1100" on="1"/>
        <pt x="2160" y="1790" on="1"/>
        <pt x="2160" y="1080" on="1"/>
        <pt x="1470" y="390" on="1"/>
      </contour>
      <contour>
        <pt x="1080" y="930" on="1"/>
        <pt x="1072" y="930" on="0"/>
        <pt x="1072" y="920" on="1"/>
        <pt x="1072" y="910" on="0"/>
        <pt x="1080" y="910" on="1"/>
        <pt x="1088" y="910" on="0"/>
        <pt x="1088" y="920" on="1"/>
        <pt x="1088" y="930" on="0"/>
      </contour>
      <contour>
        <pt x="1070" y="940" on="1"/>
        <pt x="1062" y="940" on="0"/>
        <pt x="1062" y="930" on="1"/>
        <pt x="1062" y="920" on="0"/>
        <pt x="1070" y="920" on="1"/>
        <pt x="1078" y="920" on="0"/>
        <pt x="1078" y="930" on="1"/>
        <pt x="1078" y="940" on="0"/>
      </contour>
      <contour>
        <pt x="1060" y="950" on="1"/>
        <pt x="1052" y="950" on="0"/>
        <pt x="1052" y="940" on="1"/>
        <pt x="1052" y="930" on="0"/>
        <pt x="1060" y="930" on="1"/>
        <pt x="1068" y="930" on="0"/>
        <pt x="1068" y="940" on="1"/>
        <pt x="1068" y="950" on="0"/>
      </contour>
      <contour>
        <pt x="1050" y="960" on="1"/>
        <pt x="1042" y="960" on="0"/>
        <pt x="1042" y="950" on="1"/>
        <pt x="1042" y="940" on="0"/>
        <pt x="1050" y="940" on="1"/>
        <pt x="1058" y="940" on="0"/>
        <pt x="1058" y="950" on="1"/>
        <pt x="1058" y="960" on="0"/>
      </contour>
      <contour>
        <pt x="1040" y="970" on="1"/>
        <pt x="1032" y="970" on="0"/>
        <pt x="1032" y="960" on="1"/>
        <pt x="1032" y="950" on="0"/>
        <pt x="1040" y="950" on="1"/>
        <pt x="1048" y="950" on="0"/>
        <pt x="1048" y="960" on="1"/>
        <pt x="1048" y="970" on="0"/>
      </contour>
      <contour>
        <pt x="1030" y="980" on="1"/>
        <pt x="1022" y="980" on="0"/>
        <pt x="1022" y="970" on="1"/>
        <pt x="1022" y="960" on="0"/>
        <pt x="1030" y="960" on="1"/>
        <pt x="1038" y="960" on="0"/>
        <pt x="1038" y="970" on="1"/>
        <pt x="1038" y="980" on="0"/>
      </contour>
      <contour>
        <pt x="1020" y="990" on="1"/>
        <pt x="1012" y="990" on="0"/>
        <pt x="1012" y="980" on="1"/>
        <pt x="1012" y="970" on="0"/>
        <pt x="1020" y="970" on="1"/>
        <pt x="1028" y="970" on="0"/>
        <pt x="1028" y="980" on="1"/>
        <pt x="1028" y="990" on="0"/>
      </contour>
      <contour>
        <pt x="1010" y="1000" on="1"/>
        <pt x="1002" y="1000" on="0"/>
        <pt x="1002" y="990" on="1"/>
        <pt x="1002" y="980" on="0"/>
        <pt x="1010" y="980" on="1"/>
        <pt x="1018" y="980" on="0"/>
        <pt x="1018" y="990" on="1"/>
        <pt x="1018" y="1000" on="0"/>
      </contour>
      <contour>
        <pt x="1000" y="1010" on="1"/>
        <pt x="992" y="1010" on="0"/>
        <pt x="992" y="1000" on="1"/>
        <pt x="992" y="990" on="0"/>
        <pt x="1000" y="990" on="1"/>
        <pt x="1008" y="990" on="0"/>
        <pt x="1008" y="1000" on="1"/>
        <pt x="1008" y="1010" on="0"/>
      </contour>
      <contour>
        <pt x="990" y="1020" on="1"/>
        <pt x="982" y="1020" on="0"/>
        <pt x="982" y="1010" on="1"/>
        <pt x="982" y="1000" on="0"/>
        <pt x="990" y="1000" on="1"/>
        <pt x="998" y="1000" on="0"/>
        <pt x="998" y="1010" on="1"/>
        <pt x="998" y="1020" on="0"/>
      </contour>
      <contour>
        <pt x="980" y="1030" on="1"/>
        <pt x="972" y="1030" on="0"/>
        <pt x="972" y="1020" on="1"/>
        <pt x="972" y="1010" on="0"/>
        <pt x="980" y="1010" on="1"/>
        <pt x="988" y="1010" on="0"/>
        <pt x="988" y="1020" on="1"/>
        <pt x="988" y="1030" on="0"/>
      </contour>
      <contour>
        <pt x="970" y="1040" on="1"/>
        <pt x="962" y="1040" on="0"/>
        <pt x="962" y="1030" on="1"/>
        <pt x="962" y="1020" on="0"/>
        <pt x="970" y="1020" on="1"/>
        <pt x="978" y="1020" on="0"/>
        <pt x="978" y="1030" on="1"/>
        <pt x="978" y="1040" on="0"/>
      </contour>
      <contour>
        <pt x="960" y="1050" on="1"/>
        <pt x="952" y="1050" on="0"/>
        <pt x="952" y="1040" on="1"/>
        <pt x="952" y="1030" on="0"/>
        <pt x="960" y="1030" on="1"/>
        <pt x="968" y="1030" on="0"/>
        <pt x="968" y="1040" on="1"/>
        <pt x="968" y="1050" on="0"/>
      </contour>
      <contour>
        <pt x="950" y="1060" on="1"/>
        <pt x="942" y="1060" on="0"/>
        <pt x="942" y="1050" on="1"/>
        <pt x="942" y="1040" on="0"/>
        <pt x="950" y="1040" on="1"/>
        <pt x="958" y="1040" on="0"/>
        <pt x="958" y="1050" on="1"/>
        <pt x="958" y="1060" on="0"/>
      </contour>
      <contour>
        <pt x="940" y="1070" on="1"/>
        <pt x="932" y="1070" on="0"/>
        <pt x="932" y="1060" on="1"/>
        <pt x="932" y="1050" on="0"/>
        <pt x="940" y="1050" on="1"/>
        <pt x="948" y="1050" on="0"/>
        <pt x="948" y="1060" on="1"/>
        <pt x="948" y="1070" on="0"/>
      </contour>
      <contour>
        <pt x="930" y="1080" on="1"/>
        <pt x="922" y="1080" on="0"/>
        <pt x="922" y="1070" on="1"/>
        <pt x="922" y="1060" on="0"/>
        <pt x="930" y="1060" on="1"/>
        <pt x="938" y="1060" on="0"/>
        <pt x="938" y="1070" on="1"/>
        <pt x="938" y="1080" on="0"/>
      </contour>
      <contour>
        <pt x="920" y="1090" on="1"/>
        <pt x="912" y="1090" on="0"/>
        <pt x="912" y="1080" on="1"/>
        <pt x="912" y="1070" on="0"/>
        <pt x="920" y="1070" on="1"/>
        <pt x="928" y="1070" on="0"/>
        <pt x="928" y="1080" on="1"/>
        <pt x="928" y="1090" on="0"/>
      </contour>
      <contour>
        <pt x="1430" y="1110" on="1"/>
        <pt x="1422" y="1110" on="0"/>
        <pt x="1422" y="1100" on="1"/>
        <pt x="1422" y="1090" on="0"/>
        <pt x="1430" y="1090" on="1"/>
        <pt x="1438" y="1090" on="0"/>
        <pt x="1438" y="1100" on="1"/>
        <pt x="1438" y="1110" on="0"/>
      </contour>
      <contour>
        <pt x="1420" y="1120" on="1"/>
        <pt x="1412" y="1120" on="0"/>
        <pt x="1412" y="1110" on="1"/>
        <pt x="1412" y="1100" on="0"/>
        <pt x="1420" y="1100" on="1"/>
        <pt x="1428" y="1100" on="0"/>
        <pt x="1428" y="1110" on="1"/>
        <pt x="1428" y="1120" on="0"/>
      </contour>
      <contour>
        <pt x="1410" y="1130" on="1"/>
        <pt x="1402" y="1130" on="0"/>
        <pt x="1402" y="1120" on="1"/>
        <pt x="1402" y="1110" on="0"/>
        <pt x="1410" y="1110" on="1"/>
        <pt x="1418" y="1110" on="0"/>
        <pt x="1418" y="1120" on="1"/>
        <pt x="1418" y="1130" on="0"/>
      </contour>
      <contour>
        <pt x="1400" y="1140" on="1"/>
        <pt x="1392" y="1140" on="0"/>
        <pt x="1392" y="1130" on="1"/>
        <pt x="1392" y="1120" on="0"/>
        <pt x="1400" y="1120" on="1"/>
        <pt x="1408" y="1120" on="0"/>
        <pt x="1408" y="1130" on="1"/>
        <pt x="1408" y="1140" on="0"/>
      </contour>
      <contour>
        <pt x="1390" y="1150" on="1"/>
        <pt x="1382" y="1150" on="0"/>
        <pt x="1382" y="1140" on="1"/>
        <pt x="1382" y="1130" on="0"/>
        <pt x="1390" y="1130" on="1"/>
        <pt x="1398" y="1130" on="0"/>
        <pt x="1398" y="1140" on="1"/>
        <pt x="1398" y="1150" on="0"/>
      </contour>
      <contour>
        <pt x="1380" y="1160" on="1"/>
        <pt x="1372" y="1160" on="0"/>
        <pt x="1372" y="1150" on="1"/>
        <pt x="1372" y="1140" on="0"/>
        <pt x="1380" y="1140" on="1"/>
        <pt x="1388" y="1140" on="0"/>
        <pt x="1388" y="1150" on="1"/>
        <pt x="1388" y="1160" on="0"/>
      </contour>
      <contour>
        <pt x="1370" y="1170" on="1"/>
        <pt x="1362" y="1170" on="0"/>
        <pt x="1362" y="1160" on="1"/>
        <pt x="1362" y="1150" on="0"/>
        <pt x="1370" y="1150" on="1"/>
        <pt x="1378" y="1150" on="0"/>
        <pt x="1378" y="1160" on="1"/>
        <pt x="1378" y="1170" on="0"/>
      </contour>
      <contour>
        <pt x="1360" y="1180" on="1"/>
        <pt x="1352" y="1180" on="0"/>
        <pt x="1352" y="1170" on="1"/>
        <pt x="1352" y="1160" on="0"/>
        <pt x="1360" y="1160" on="1"/>
        <pt x="1368" y="1160" on="0"/>
        <pt x="1368" y="1170" on="1"/>
        <pt x="1368" y="1180" on="0"/>
      </contour>
      <contour>
        <pt x="1350" y="1190" on="1"/>
        <pt x="1342" y="1190" on="0"/>
        <pt x="1342" y="1180" on="1"/>
        <pt x="1342" y="1170" on="0"/>
        <pt x="1350" y="1170" on="1"/>
        <pt x="1358" y="1170" on="0"/>
        <pt x="1358" y="1180" on="1"/>
        <pt x="1358" y="1190" on="0"/>
      </contour>
      <contour>
        <pt x="1340" y="1200" on="1"/>
        <pt x="1332" y="1200" on="0"/>
        <pt x="1332" y="1190" on="1"/>
        <pt x="1332" y="1180" on="0"/>
        <pt x="1340" y="1180" on="1"/>
        <pt x="1348" y="1180" on="0"/>
        <pt x="1348" y="1190" on="1"/>
        <pt x="1348" y="1200" on="0"/>
      </contour>
      <contour>
        <pt x="1330" y="1210" on="1"/>
        <pt x="1322" y="1210" on="0"/>
        <pt x="1322" y="1200" on="1"/>
        <pt x="1322" y="1190" on="0"/>
        <pt x="1330" y="1190" on="1"/>
        <pt x="1338" y="1190" on="0"/>
        <pt x="1338" y="1200" on="1"/>
        <pt x="1338" y="1210" on="0"/>
      </contour>
      <contour>
        <pt x="1320" y="1220" on="1"/>
        <pt x="1312" y="1220" on="0"/>
        <pt x="1312" y="1210" on="1"/>
        <pt x="1312" y="1200" on="0"/>
        <pt x="1320" y="1200" on="1"/>
        <pt x="1328" y="1200" on="0"/>
        <pt x="1328" y="1210" on="1"/>
        <pt x="1328" y="1220" on="0"/>
      </contour>
      <contour>
        <pt x="1310" y="1230" on="1"/>
        <pt x="1302" y="1230" on="0"/>
        <pt x="1302" y="1220" on="1"/>
        <pt x="1302" y="1210" on="0"/>
        <pt x="1310" y="1210" on="1"/>
        <pt x="1318" y="1210" on="0"/>
        <pt x="1318" y="1220" on="1"/>
        <pt x="1318" y="1230" on="0"/>
      </contour>
      <contour>
        <pt x="1300" y="1240" on="1"/>
        <pt x="1292" y="1240" on="0"/>
        <pt x="1292" y="1230" on="1"/>
        <pt x="1292" y="1220" on="0"/>
        <pt x="1300" y="1220" on="1"/>
        <pt x="1308" y="1220" on="0"/>
        <pt x="1308" y="1230" on="1"/>
        <pt x="1308" y="1240" on="0"/>
      </contour>
      <contour>
        <pt x="1290" y="1250" on="1"/>
        <pt x="1282" y="1250" on="0"/>
        <pt x="1282" y="1240" on="1"/>
        <pt x="1282" y="1230" on="0"/>
        <pt x="1290" y="1230" on="1"/>
        <pt x="1298" y="1230" on="0"/>
        <pt x="1298" y="1240" on="1"/>
        <pt x="1298" y="1250" on="0"/>
      </contour>
      <contour>
        <pt x="1280" y="1260" on="1"/>
        <pt x="1272" y="1260" on="0"/>
        <pt x="1272" y="1250" on="1"/>
        <pt x="1272" y="1240" on="0"/>
        <pt x="1280" y="1240" on="1"/>
        <pt x="1288" y="1240" on="0"/>
        <pt x="1288" y="1250" on="1"/>
        <pt x="1288" y="1260" on="0"/>
      </contour>
      <contour>
        <pt x="1270" y="1270" on="1"/>
        <pt x="1262" y="1270" on="0"/>
        <pt x="1262" y="1260" on="1"/>
        <pt x="1262" y="1250" on="0"/>
        <pt x="1270" y="1250" on="1"/>
        <pt x="1278" y="1250" on="0"/>
        <pt x="1278" y="1260" on="1"/>
        <pt x="1278" y="1270" on="0"/>
      </contour>
      <contour>
        <pt x="1260" y="1280" on="1"/>
        <pt x="1252" y="1280" on="0"/>
        <pt x="1252" y="1270" on="1"/>
        <pt x="1252" y="1260" on="0"/>
        <pt x="1260" y="1260" on="1"/>
        <pt x="1268" y="1260" on="0"/>
        <pt x="1268" y="1270" on="1"/>
        <pt x="1268" y="1280" on="0"/>
      </contour>
      <contour>
        <pt x="1250" y="1290" on="1"/>
        <pt x="1242" y="1290" on="0"/>
        <pt x="1242" y="1280" on="1"/>
        <pt x="1242" y="1270" on="0"/>
        <pt x="1250" y="1270" on="1"/>
        <pt x="1258" y="1270" on="0"/>
        <pt x="1258" y="1280" on="1"/>
        <pt x="1258" y="1290" on="0"/>
      </contour>
      <contour>
        <pt x="1240" y="1300" on="1"/>
        <pt x="1232" y="1300" on="0"/>
        <pt x="1232" y="1290" on="1"/>
        <pt x="1232" y="1280" on="0"/>
        <pt x="1240" y="1280" on="1"/>
        <pt x="1248" y="1280" on="0"/>
        <pt x="1248" y="1290" on="1"/>
        <pt x="1248" y="1300" on="0"/>
      </contour>
      <contour>
        <pt x="1230" y="1310" on="1"/>
        <pt x="1222" y="1310" on="0"/>
        <pt x="1222" y="1300" on="1"/>
        <pt x="1222" y="1290" on="0"/>
        <pt x="1230" y="1290" on="1"/>
        <pt x="1238" y="1290" on="0"/>
        <pt x="1238" y="1300" on="1"/>
        <pt x="1238" y="1310" on="0"/>
      </contour>
      <contour>
        <pt x="1220" y="1320" on="1"/>
        <pt x="1212" y="1320" on="0"/>
        <pt x="1212" y="1310" on="1"/>
        <pt x="1212" y="1300" on="0"/>
        <pt x="1220" y="1300" on="1"/>
        <pt x="1228" y="1300" on="0"/>
        <pt x="1228" y="1310" on="1"/>
        <pt x="1228" y="1320" on="0"/>
      </contour>
      <contour>
        <pt x="1210" y="1330" on="1"/>
        <pt x="1202" y="1330" on="0"/>
        <pt x="1202" y="1320" on="1"/>
        <pt x="1202" y="1310" on="0"/>
        <pt x="1210" y="1310" on="1"/>
        <pt x="1218" y="1310" on="0"/>
        <pt x="1218" y="1320" on="1"/>
        <pt x="1218" y="1330" on="0"/>
      </contour>
      <contour>
        <pt x="1200" y="1340" on="1"/>
        <pt x="1192" y="1340" on="0"/>
        <pt x="1192" y="1330" on="1"/>
        <pt x="1192" y="1320" on="0"/>
        <pt x="1200" y="1320" on="1"/>
        <pt x="1208" y="1320" on="0"/>
        <pt x="1208" y="1330" on="1"/>
        <pt x="1208" y="1340" on="0"/>
      </contour>
      <contour>
        <pt x="1190" y="1350" on="1"/>
        <pt x="1182" y="1350" on="0"/>
        <pt x="1182" y="1340" on="1"/>
        <pt x="1182" y="1330" on="0"/>
        <pt x="1190" y="1330" on="1"/>
        <pt x="1198" y="1330" on="0"/>
        <pt x="1198" y="1340" on="1"/>
        <pt x="1198" y="1350" on="0"/>
      </contour>
      <contour>
        <pt x="1180" y="1360" on="1"/>
        <pt x="1172" y="1360" on="0"/>
        <pt x="1172" y="1350" on="1"/>
        <pt x="1172" y="1340" on="0"/>
        <pt x="1180" y="1340" on="1"/>
        <pt x="1188" y="1340" on="0"/>
        <pt x="1188" y="1350" on="1"/>
        <pt x="1188" y="1360" on="0"/>
      </contour>
      <contour>
        <pt x="1170" y="1370" on="1"/>
        <pt x="1162" y="1370" on="0"/>
        <pt x="1162" y="1360" on="1"/>
        <pt x="1162" y="1350" on="0"/>
        <pt x="1170" y="1350" on="1"/>
        <pt x="1178" y="1350" on="0"/>
        <pt x="1178" y="1360" on="1"/>
        <pt x="1178" y="1370" on="0"/>
      </contour>
      <contour>
        <pt x="1160" y="1380" on="1"/>
        <pt x="1152" y="1380" on="0"/>
        <pt x="1152" y="1370" on="1"/>
        <pt x="1152" y="1360" on="0"/>
        <pt x="1160" y="1360" on="1"/>
        <pt x="1168" y="1360" on="0"/>
        <pt x="1168" y="1370" on="1"/>
        <pt x="1168" y="1380" on="0"/>
      </contour>
      <contour>
        <pt x="1150" y="1390" on="1"/>
        <pt x="1142" y="1390" on="0"/>
        <pt x="1142" y="1380" on="1"/>
        <pt x="1142" y="1370" on="0"/>
        <pt x="1150" y="1370" on="1"/>
        <pt x="1158" y="1370" on="0"/>
        <pt x="1158" y="1380" on="1"/>
        <pt x="1158" y="1390" on="0"/>
      </contour>
      <contour>
        <pt x="1140" y="1400" on="1"/>
        <pt x="1132" y="1400" on="0"/>
        <pt x="1132" y="1390" on="1"/>
        <pt x="1132" y="1380" on="0"/>
        <pt x="1140" y="1380" on="1"/>
        <pt x="1148" y="1380" on="0"/>
        <pt x="1148" y="1390" on="1"/>
        <pt x="1148" y="1400" on="0"/>
      </contour>
      <contour>
        <pt x="1130" y="1410" on="1"/>
        <pt x="1122" y="1410" on="0"/>
        <pt x="1122" y="1400" on="1"/>
        <pt x="1122" y="1390" on="0"/>
        <pt x="1130" y="1390" on="1"/>
        <pt x="1138" y="1390" on="0"/>
        <pt x="1138" y="1400" on="1"/>
        <pt x="1138" y="1410" on="0"/>
      </contour>
      <contour>
        <pt x="1120" y="1420" on="1"/>
        <pt x="1112" y="1420" on="0"/>
        <pt x="1112" y="1410" on="1"/>
        <pt x="1112" y="1400" on="0"/>
        <pt x="1120" y="1400" on="1"/>
        <pt x="1128" y="1400" on="0"/>
        <pt x="1128" y="1410" on="1"/>
        <pt x="1128" y="1420" on="0"/>
      </contour>
      <contour>
        <pt x="1110" y="1430" on="1"/>
        <pt x="1102" y="1430" on="0"/>
        <pt x="1102" y="1420" on="1"/>
        <pt x="1102" y="1410" on="0"/>
        <pt x="1110" y="1410" on="1"/>
        <pt x="1118" y="1410" on="0"/>
        <pt x="1118" y="1420" on="1"/>
        <pt x="1118" y="1430" on="0"/>
      </contour>
      <contour>
        <pt x="740" y="2150" on="1"/>
        <pt x="1790" y="2150" on="1"/>
        <pt x="1100" y="1460" on="1"/>
        <pt x="50" y="1460" on="1"/>
      </contour>
    </TTGlyph>
    <TTGlyph name="e" xMin="10" yMin="0" xMax="2180" yMax="2170">
      <contour>
        <pt x="10" y="0" on="1"/>
        <pt x="1460" y="0" on="1"/>
        <pt x="2180" y="720" on="1"/>
        <pt x="2180" y="1085" on="1"/>
        <pt x="2000" y="1085" on="1"/>
        <pt x="2180" y="1270" on="1"/>
        <pt x="2180" y="1625" on="1"/>
        <pt x="2010" y="1625" on="1"/>
        <pt x="2180" y="1810" on="1"/>
        <pt x="2180" y="2170" on="1"/>
        <pt x="740" y="2170" on="1"/>
        <pt x="10" y="1440" on="1"/>
        <pt x="10" y="1075" on="1"/>
        <pt x="170" y="1075" on="1"/>
        <pt x="10" y="900" on="1"/>
        <pt x="10" y="535" on="1"/>
        <pt x="170" y="535" on="1"/>
        <pt x="10" y="360" on="1"/>
        <pt x="10" y="0" on="1"/>
      </contour>
      <contour>
        <pt x="30" y="350" on="1"/>
        <pt x="1440" y="350" on="1"/>
        <pt x="1440" y="20" on="1"/>
        <pt x="30" y="20" on="1"/>
        <pt x="30" y="350" on="1"/>
      </contour>
      <contour>
        <pt x="1470" y="370" on="1"/>
        <pt x="2160" y="1060" on="1"/>
        <pt x="2160" y="720" on="1"/>
        <pt x="1470" y="30" on="1"/>
        <pt x="1470" y="370" on="1"/>
      </contour>
      <contour>
        <pt x="200" y="535" on="1"/>
        <pt x="1450" y="535" on="1"/>
        <pt x="1980" y="1070" on="1"/>
        <pt x="2140" y="1070" on="1"/>
        <pt x="1450" y="370" on="1"/>
        <pt x="40" y="370" on="1"/>
        <pt x="200" y="535" on="1"/>
      </contour>
      <contour>
        <pt x="30" y="890" on="1"/>
        <pt x="1440" y="890" on="1"/>
        <pt x="1440" y="550" on="1"/>
        <pt x="30" y="550" on="1"/>
        <pt x="30" y="890" on="1"/>
      </contour>
      <contour>
        <pt x="1470" y="910" on="1"/>
        <pt x="2160" y="1600" on="1"/>
        <pt x="2160" y="1270" on="1"/>
        <pt x="1470" y="580" on="1"/>
        <pt x="1470" y="910" on="1"/>
      </contour>
      <contour>
        <pt x="190" y="1075" on="1"/>
        <pt x="1450" y="1075" on="1"/>
        <pt x="1990" y="1610" on="1"/>
        <pt x="2150" y="1610" on="1"/>
        <pt x="1450" y="910" on="1"/>
        <pt x="30" y="910" on="1"/>
        <pt x="190" y="1075" on="1"/>
      </contour>
      <contour>
        <pt x="30" y="1430" on="1"/>
        <pt x="1440" y="1430" on="1"/>
        <pt x="1440" y="1090" on="1"/>
        <pt x="30" y="1090" on="1"/>
        <pt x="30" y="1430" on="1"/>
      </contour>
      <contour>
        <pt x="1470" y="1440" on="1"/>
        <pt x="2160" y="2130" on="1"/>
        <pt x="2160" y="1810" on="1"/>
        <pt x="1470" y="1120" on="1"/>
        <pt x="1470" y="1440" on="1"/>
      </contour>
      <contour>
        <pt x="740" y="2150" on="1"/>
        <pt x="2150" y="2150" on="1"/>
        <pt x="1460" y="1460" on="1"/>
        <pt x="50" y="1460" on="1"/>
        <pt x="740" y="2150" on="1"/>
      </contour>
    </TTGlyph>
    <TTGlyph name="eight" xMin="10" yMin="0" xMax="2180" yMax="2170">
      <contour>
        <pt x="190" y="0" on="1"/>
        <pt x="1270" y="0" on="1"/>
        <pt x="2180" y="910" on="1"/>
        <pt x="2180" y="1269" on="1"/>
        <pt x="2010" y="1450" on="1"/>
        <pt x="2180" y="1630" on="1"/>
        <pt x="2180" y="1990" on="1"/>
        <pt x="2000" y="2170" on="1"/>
        <pt x="900" y="2170" on="1"/>
        <pt x="10" y="1280" on="1"/>
        <pt x="10" y="900" on="1"/>
        <pt x="170" y="730" on="1"/>
        <pt x="10" y="560" on="1"/>
        <pt x="10" y="180" on="1"/>
        <pt x="190" y="0" on="1"/>
      </contour>
      <contour>
        <pt x="30" y="190" on="1"/>
        <pt x="30" y="550" on="1"/>
        <pt x="199" y="730" on="1"/>
        <pt x="30" y="910" on="1"/>
        <pt x="30" y="1270" on="1"/>
        <pt x="190" y="1430" on="1"/>
        <pt x="1270" y="1430" on="1"/>
        <pt x="1440" y="1260" on="1"/>
        <pt x="1440" y="920" on="1"/>
        <pt x="1261" y="730" on="1"/>
        <pt x="1440" y="540" on="1"/>
        <pt x="1440" y="200" on="1"/>
        <pt x="1260" y="20" on="1"/>
        <pt x="200" y="20" on="1"/>
        <pt x="30" y="190" on="1"/>
      </contour>
      <contour>
        <pt x="1470" y="550" on="1"/>
        <pt x="2160" y="1240" on="1"/>
        <pt x="2160" y="920" on="1"/>
        <pt x="1470" y="230" on="1"/>
        <pt x="1470" y="550" on="1"/>
      </contour>
      <contour>
        <pt x="550" y="270" on="1"/>
        <pt x="920" y="270" on="1"/>
        <pt x="920" y="450" on="1"/>
        <pt x="550" y="450" on="1"/>
        <pt x="550" y="270" on="1"/>
      </contour>
      <contour>
        <pt x="720" y="430" on="1"/>
        <pt x="900" y="430" on="1"/>
        <pt x="900" y="290" on="1"/>
        <pt x="580" y="290" on="1"/>
        <pt x="720" y="430" on="1"/>
      </contour>
      <contour>
        <pt x="570" y="430" on="1"/>
        <pt x="680" y="430" on="1"/>
        <pt x="570" y="320" on="1"/>
        <pt x="570" y="430" on="1"/>
      </contour>
      <contour>
        <pt x="1290" y="730" on="1"/>
        <pt x="1990" y="1430" on="1"/>
        <pt x="2150" y="1270" on="1"/>
        <pt x="1450" y="570" on="1"/>
        <pt x="1290" y="730" on="1"/>
      </contour>
      <contour>
        <pt x="1470" y="1270" on="1"/>
        <pt x="2160" y="1960" on="1"/>
        <pt x="2160" y="1640" on="1"/>
        <pt x="1470" y="950" on="1"/>
        <pt x="1470" y="1270" on="1"/>
      </contour>
      <contour>
        <pt x="540" y="960" on="1"/>
        <pt x="910" y="960" on="1"/>
        <pt x="910" y="1140" on="1"/>
        <pt x="540" y="1140" on="1"/>
        <pt x="540" y="960" on="1"/>
      </contour>
      <contour>
        <pt x="710" y="1120" on="1"/>
        <pt x="890" y="1120" on="1"/>
        <pt x="890" y="980" on="1"/>
        <pt x="570" y="980" on="1"/>
        <pt x="710" y="1120" on="1"/>
      </contour>
      <contour>
        <pt x="560" y="1120" on="1"/>
        <pt x="670" y="1120" on="1"/>
        <pt x="560" y="1010" on="1"/>
        <pt x="560" y="1120" on="1"/>
      </contour>
      <contour>
        <pt x="1290" y="1450" on="1"/>
        <pt x="1990" y="2150" on="1"/>
        <pt x="2150" y="1990" on="1"/>
        <pt x="1450" y="1290" on="1"/>
        <pt x="1290" y="1450" on="1"/>
      </contour>
      <contour>
        <pt x="910" y="2150" on="1"/>
        <pt x="1950" y="2150" on="1"/>
        <pt x="1260" y="1460" on="1"/>
        <pt x="220" y="1460" on="1"/>
        <pt x="910" y="2150" on="1"/>
      </contour>
    </TTGlyph>
    <TTGlyph name="exclam" xMin="10" yMin="0" xMax="1100" yMax="2170">
      <contour>
        <pt x="10" y="0" on="1"/>
        <pt x="370" y="0" on="1"/>
        <pt x="1100" y="730" on="1"/>
        <pt x="1100" y="1095" on="1"/>
        <pt x="940" y="1095" on="1"/>
        <pt x="1070" y="1240" on="1"/>
        <pt x="1071" y="1240" on="0"/>
        <pt x="1084" y="1246" on="0"/>
        <pt x="1100" y="1256" on="0"/>
        <pt x="1100" y="1260" on="1"/>
        <pt x="1100" y="2170" on="1"/>
        <pt x="720" y="2170" on="1"/>
        <pt x="10" y="1460" on="1"/>
        <pt x="10" y="535" on="1"/>
        <pt x="150" y="535" on="1"/>
        <pt x="10" y="380" on="1"/>
      </contour>
      <contour>
        <pt x="30" y="350" on="1"/>
        <pt x="360" y="350" on="1"/>
        <pt x="360" y="20" on="1"/>
        <pt x="30" y="20" on="1"/>
      </contour>
      <contour>
        <pt x="390" y="370" on="1"/>
        <pt x="1080" y="1060" on="1"/>
        <pt x="1080" y="740" on="1"/>
        <pt x="390" y="50" on="1"/>
      </contour>
      <contour>
        <pt x="190" y="535" on="1"/>
        <pt x="370" y="535" on="1"/>
        <pt x="910" y="1070" on="1"/>
        <pt x="1050" y="1070" on="1"/>
        <pt x="360" y="380" on="1"/>
        <pt x="40" y="380" on="1"/>
      </contour>
      <contour>
        <pt x="30" y="1430" on="1"/>
        <pt x="360" y="1430" on="1"/>
        <pt x="360" y="560" on="1"/>
        <pt x="30" y="560" on="1"/>
      </contour>
      <contour>
        <pt x="390" y="1450" on="1"/>
        <pt x="1080" y="2140" on="1"/>
        <pt x="1080" y="1280" on="1"/>
        <pt x="390" y="590" on="1"/>
      </contour>
      <contour>
        <pt x="730" y="2150" on="1"/>
        <pt x="1050" y="2150" on="1"/>
        <pt x="360" y="1460" on="1"/>
        <pt x="40" y="1460" on="1"/>
      </contour>
    </TTGlyph>
    <TTGlyph name="f" xMin="10" yMin="0" xMax="2180" yMax="2170">
      <contour>
        <pt x="10" y="0" on="1"/>
        <pt x="380" y="0" on="1"/>
        <pt x="900" y="525" on="1"/>
        <pt x="1990" y="525" on="1"/>
        <pt x="2180" y="720" on="1"/>
        <pt x="2180" y="2170" on="1"/>
        <pt x="740" y="2170" on="1"/>
        <pt x="10" y="1440" on="1"/>
        <pt x="10" y="0" on="1"/>
      </contour>
      <contour>
        <pt x="30" y="1430" on="1"/>
        <pt x="1440" y="1430" on="1"/>
        <pt x="1440" y="1095" on="1"/>
        <pt x="370" y="1095" on="1"/>
        <pt x="370" y="905" on="1"/>
        <pt x="1450" y="905" on="1"/>
        <pt x="1450" y="565" on="1"/>
        <pt x="390" y="565" on="1"/>
        <pt x="375" y="550" on="1"/>
        <pt x="375" y="20" on="1"/>
        <pt x="30" y="20" on="1"/>
        <pt x="30" y="1430" on="1"/>
      </contour>
      <contour>
        <pt x="390" y="550" on="1"/>
        <pt x="910" y="550" on="1"/>
        <pt x="390" y="30" on="1"/>
        <pt x="390" y="550" on="1"/>
      </contour>
      <contour>
        <pt x="930" y="555" on="1"/>
        <pt x="1460" y="555" on="1"/>
        <pt x="1970" y="1060" on="1"/>
        <pt x="1970" y="540" on="1"/>
        <pt x="920" y="540" on="1"/>
        <pt x="930" y="555" on="1"/>
      </contour>
      <contour>
        <pt x="1985" y="1070" on="1"/>
        <pt x="1970" y="1070" on="1"/>
        <pt x="1470" y="580" on="1"/>
        <pt x="1470" y="910" on="1"/>
        <pt x="1980" y="1420" on="1"/>
        <pt x="1980" y="1620" on="1"/>
        <pt x="1470" y="1120" on="1"/>
        <pt x="1470" y="1440" on="1"/>
        <pt x="2160" y="2130" on="1"/>
        <pt x="2160" y="720" on="1"/>
        <pt x="1985" y="550" on="1"/>
        <pt x="1985" y="1070" on="1"/>
      </contour>
      <contour>
        <pt x="550" y="1085" on="1"/>
        <pt x="1460" y="1085" on="1"/>
        <pt x="1800" y="1420" on="1"/>
        <pt x="1950" y="1420" on="1"/>
        <pt x="1450" y="920" on="1"/>
        <pt x="390" y="920" on="1"/>
        <pt x="550" y="1085" on="1"/>
      </contour>
      <contour>
        <pt x="380" y="1080" on="1"/>
        <pt x="530" y="1080" on="1"/>
        <pt x="380" y="930" on="1"/>
        <pt x="380" y="1080" on="1"/>
      </contour>
      <contour>
        <pt x="1970" y="1590" on="1"/>
        <pt x="1970" y="1440" on="1"/>
        <pt x="1820" y="1440" on="1"/>
        <pt x="1970" y="1590" on="1"/>
      </contour>
      <contour>
        <pt x="740" y="2150" on="1"/>
        <pt x="2150" y="2150" on="1"/>
        <pt x="1460" y="1460" on="1"/>
        <pt x="50" y="1460" on="1"/>
        <pt x="740" y="2150" on="1"/>
      </contour>
    </TTGlyph>
    <TTGlyph name="five" xMin="10" yMin="0" xMax="2180" yMax="2170">
      <contour>
        <pt x="10" y="0" on="1"/>
        <pt x="1450" y="0" on="1"/>
        <pt x="2180" y="730" on="1"/>
        <pt x="2180" y="1635" on="1"/>
        <pt x="2020" y="1635" on="1"/>
        <pt x="2180" y="1810" on="1"/>
        <pt x="2180" y="2170" on="1"/>
        <pt x="720" y="2170" on="1"/>
        <pt x="10" y="1460" on="1"/>
        <pt x="10" y="900" on="1"/>
        <pt x="260" y="640" on="1"/>
        <pt x="10" y="380" on="1"/>
      </contour>
      <contour>
        <pt x="30" y="355" on="1"/>
        <pt x="1100" y="355" on="1"/>
        <pt x="1100" y="555" on="1"/>
        <pt x="380" y="555" on="1"/>
        <pt x="30" y="910" on="1"/>
        <pt x="30" y="1430" on="1"/>
        <pt x="1440" y="1430" on="1"/>
        <pt x="1440" y="1095" on="1"/>
        <pt x="370" y="1095" on="1"/>
        <pt x="370" y="895" on="1"/>
        <pt x="1440" y="895" on="1"/>
        <pt x="1440" y="20" on="1"/>
        <pt x="30" y="20" on="1"/>
      </contour>
      <contour>
        <pt x="1470" y="910" on="1"/>
        <pt x="2160" y="1600" on="1"/>
        <pt x="2160" y="740" on="1"/>
        <pt x="1470" y="50" on="1"/>
      </contour>
      <contour>
        <pt x="280" y="620" on="1"/>
        <pt x="284" y="616" on="0"/>
        <pt x="307" y="596" on="0"/>
        <pt x="333" y="573" on="0"/>
        <pt x="355" y="554" on="0"/>
        <pt x="360" y="550" on="1"/>
        <pt x="364" y="546" on="0"/>
        <pt x="379" y="535" on="0"/>
        <pt x="380" y="535" on="1"/>
        <pt x="1080" y="535" on="1"/>
        <pt x="1080" y="380" on="1"/>
        <pt x="40" y="380" on="1"/>
      </contour>
      <contour>
        <pt x="550" y="1075" on="1"/>
        <pt x="1450" y="1075" on="1"/>
        <pt x="1990" y="1610" on="1"/>
        <pt x="2130" y="1610" on="1"/>
        <pt x="1440" y="920" on="1"/>
        <pt x="400" y="920" on="1"/>
      </contour>
      <contour>
        <pt x="390" y="1070" on="1"/>
        <pt x="510" y="1070" on="1"/>
        <pt x="390" y="950" on="1"/>
      </contour>
      <contour>
        <pt x="1470" y="1450" on="1"/>
        <pt x="2160" y="2140" on="1"/>
        <pt x="2160" y="1820" on="1"/>
        <pt x="1470" y="1130" on="1"/>
      </contour>
      <contour>
        <pt x="730" y="2150" on="1"/>
        <pt x="2130" y="2150" on="1"/>
        <pt x="1440" y="1460" on="1"/>
        <pt x="40" y="1460" on="1"/>
      </contour>
    </TTGlyph>
    <TTGlyph name="four" xMin="10" yMin="0" xMax="2180" yMax="2170">
      <contour>
        <pt x="545" y="0" on="1"/>
        <pt x="1090" y="0" on="1"/>
        <pt x="1825" y="730" on="1"/>
        <pt x="1825" y="910" on="1"/>
        <pt x="2180" y="1270" on="1"/>
        <pt x="2180" y="1635" on="1"/>
        <pt x="1825" y="1635" on="1"/>
        <pt x="1825" y="2170" on="1"/>
        <pt x="1440" y="2170" on="1"/>
        <pt x="1105" y="1850" on="1"/>
        <pt x="1105" y="2170" on="1"/>
        <pt x="720" y="2170" on="1"/>
        <pt x="10" y="1460" on="1"/>
        <pt x="10" y="535" on="1"/>
        <pt x="545" y="535" on="1"/>
        <pt x="545" y="0" on="1"/>
      </contour>
      <contour>
        <pt x="565" y="540" on="1"/>
        <pt x="550" y="555" on="1"/>
        <pt x="30" y="555" on="1"/>
        <pt x="30" y="1430" on="1"/>
        <pt x="365" y="1430" on="1"/>
        <pt x="365" y="900" on="1"/>
        <pt x="745" y="900" on="1"/>
        <pt x="745" y="1430" on="1"/>
        <pt x="1085" y="1430" on="1"/>
        <pt x="1085" y="910" on="1"/>
        <pt x="1100" y="895" on="1"/>
        <pt x="1440" y="895" on="1"/>
        <pt x="1440" y="555" on="1"/>
        <pt x="1100" y="555" on="1"/>
        <pt x="1085" y="540" on="1"/>
        <pt x="1085" y="20" on="1"/>
        <pt x="565" y="20" on="1"/>
        <pt x="565" y="540" on="1"/>
      </contour>
      <contour>
        <pt x="1110" y="535" on="1"/>
        <pt x="1450" y="535" on="1"/>
        <pt x="1800" y="880" on="1"/>
        <pt x="1800" y="740" on="1"/>
        <pt x="1110" y="50" on="1"/>
        <pt x="1110" y="535" on="1"/>
      </contour>
      <contour>
        <pt x="1470" y="910" on="1"/>
        <pt x="2160" y="1600" on="1"/>
        <pt x="2160" y="1280" on="1"/>
        <pt x="1470" y="590" on="1"/>
        <pt x="1470" y="910" on="1"/>
      </contour>
      <contour>
        <pt x="720" y="1240" on="1"/>
        <pt x="720" y="920" on="1"/>
        <pt x="400" y="920" on="1"/>
        <pt x="720" y="1240" on="1"/>
      </contour>
      <contour>
        <pt x="1810" y="1610" on="1"/>
        <pt x="2130" y="1610" on="1"/>
        <pt x="1440" y="920" on="1"/>
        <pt x="1120" y="920" on="1"/>
        <pt x="1810" y="1610" on="1"/>
      </contour>
      <contour>
        <pt x="390" y="1450" on="1"/>
        <pt x="1080" y="2140" on="1"/>
        <pt x="1080" y="1820" on="1"/>
        <pt x="725" y="1460" on="1"/>
        <pt x="725" y="1280" on="1"/>
        <pt x="390" y="950" on="1"/>
        <pt x="390" y="1450" on="1"/>
      </contour>
      <contour>
        <pt x="1110" y="1450" on="1"/>
        <pt x="1800" y="2140" on="1"/>
        <pt x="1800" y="1640" on="1"/>
        <pt x="1110" y="950" on="1"/>
        <pt x="1110" y="1450" on="1"/>
      </contour>
      <contour>
        <pt x="730" y="2150" on="1"/>
        <pt x="1050" y="2150" on="1"/>
        <pt x="360" y="1460" on="1"/>
        <pt x="40" y="1460" on="1"/>
        <pt x="730" y="2150" on="1"/>
      </contour>
      <contour>
        <pt x="1450" y="2150" on="1"/>
        <pt x="1770" y="2150" on="1"/>
        <pt x="1080" y="1460" on="1"/>
        <pt x="760" y="1460" on="1"/>
        <pt x="1450" y="2150" on="1"/>
      </contour>
    </TTGlyph>
    <TTGlyph name="g" xMin="10" yMin="0" xMax="2180" yMax="2170">
      <contour>
        <pt x="10" y="1440" on="1"/>
        <pt x="10" y="0" on="1"/>
        <pt x="1100" y="0" on="1"/>
        <pt x="2180" y="1080" on="1"/>
        <pt x="2180" y="1435" on="1"/>
        <pt x="2020" y="1435" on="1"/>
        <pt x="2180" y="1600" on="1"/>
        <pt x="2180" y="2170" on="1"/>
        <pt x="740" y="2170" on="1"/>
        <pt x="10" y="1440" on="1"/>
      </contour>
      <contour>
        <pt x="30" y="1430" on="1"/>
        <pt x="1440" y="1430" on="1"/>
        <pt x="1440" y="900" on="1"/>
        <pt x="1105" y="900" on="1"/>
        <pt x="1105" y="1090" on="1"/>
        <pt x="380" y="1090" on="1"/>
        <pt x="380" y="340" on="1"/>
        <pt x="920" y="350" on="1"/>
        <pt x="1090" y="525" on="1"/>
        <pt x="930" y="525" on="1"/>
        <pt x="930" y="710" on="1"/>
        <pt x="1440" y="710" on="1"/>
        <pt x="1440" y="370" on="1"/>
        <pt x="1090" y="20" on="1"/>
        <pt x="30" y="20" on="1"/>
        <pt x="30" y="1430" on="1"/>
      </contour>
      <contour>
        <pt x="1090" y="1050" on="1"/>
        <pt x="1090" y="900" on="1"/>
        <pt x="920" y="720" on="1"/>
        <pt x="920" y="515" on="1"/>
        <pt x="1070" y="515" on="1"/>
        <pt x="920" y="360" on="1"/>
        <pt x="400" y="360" on="1"/>
        <pt x="1090" y="1050" on="1"/>
      </contour>
      <contour>
        <pt x="390" y="1080" on="1"/>
        <pt x="1090" y="1080" on="1"/>
        <pt x="1090" y="1070" on="1"/>
        <pt x="390" y="370" on="1"/>
        <pt x="390" y="1080" on="1"/>
      </contour>
      <contour>
        <pt x="1470" y="720" on="1"/>
        <pt x="2160" y="1410" on="1"/>
        <pt x="2160" y="1080" on="1"/>
        <pt x="1470" y="390" on="1"/>
        <pt x="1470" y="720" on="1"/>
      </contour>
      <contour>
        <pt x="1100" y="885" on="1"/>
        <pt x="1455" y="885" on="1"/>
        <pt x="2000" y="1420" on="1"/>
        <pt x="2150" y="1420" on="1"/>
        <pt x="1460" y="730" on="1"/>
        <pt x="950" y="730" on="1"/>
        <pt x="1100" y="885" on="1"/>
      </contour>
      <contour>
        <pt x="1470" y="1440" on="1"/>
        <pt x="2160" y="2130" on="1"/>
        <pt x="2160" y="1610" on="1"/>
        <pt x="1470" y="920" on="1"/>
        <pt x="1470" y="1440" on="1"/>
      </contour>
      <contour>
        <pt x="740" y="2150" on="1"/>
        <pt x="2150" y="2150" on="1"/>
        <pt x="1460" y="1460" on="1"/>
        <pt x="50" y="1460" on="1"/>
        <pt x="740" y="2150" on="1"/>
      </contour>
    </TTGlyph>
    <TTGlyph name="h" xMin="10" yMin="0" xMax="2180" yMax="2170">
      <contour>
        <pt x="10" y="0" on="1"/>
        <pt x="550" y="0" on="1"/>
        <pt x="905" y="340" on="1"/>
        <pt x="905" y="0" on="1"/>
        <pt x="1460" y="0" on="1"/>
        <pt x="1715" y="250" on="1"/>
        <pt x="1715" y="445" on="1"/>
        <pt x="1910" y="445" on="1"/>
        <pt x="2180" y="720" on="1"/>
        <pt x="2180" y="2170" on="1"/>
        <pt x="1640" y="2170" on="1"/>
        <pt x="1355" y="1880" on="1"/>
        <pt x="1355" y="1700" on="1"/>
        <pt x="1285" y="1700" on="1"/>
        <pt x="1285" y="2170" on="1"/>
        <pt x="740" y="2170" on="1"/>
        <pt x="455" y="1890" on="1"/>
        <pt x="455" y="1695" on="1"/>
        <pt x="260" y="1695" on="1"/>
        <pt x="10" y="1440" on="1"/>
        <pt x="10" y="0" on="1"/>
      </contour>
      <contour>
        <pt x="30" y="1430" on="1"/>
        <pt x="535" y="1430" on="1"/>
        <pt x="535" y="890" on="1"/>
        <pt x="915" y="890" on="1"/>
        <pt x="915" y="1430" on="1"/>
        <pt x="1440" y="1430" on="1"/>
        <pt x="1440" y="20" on="1"/>
        <pt x="915" y="20" on="1"/>
        <pt x="915" y="560" on="1"/>
        <pt x="900" y="360" on="1"/>
        <pt x="560" y="30" on="1"/>
        <pt x="560" y="565" on="1"/>
        <pt x="900" y="565" on="1"/>
        <pt x="545" y="570" on="1"/>
        <pt x="545" y="20" on="1"/>
        <pt x="30" y="20" on="1"/>
        <pt x="30" y="1430" on="1"/>
      </contour>
      <contour>
        <pt x="1470" y="1440" on="1"/>
        <pt x="1695" y="1660" on="1"/>
        <pt x="1695" y="1140" on="1"/>
        <pt x="1895" y="1330" on="1"/>
        <pt x="1895" y="1870" on="1"/>
        <pt x="2160" y="2130" on="1"/>
        <pt x="2160" y="720" on="1"/>
        <pt x="1905" y="470" on="1"/>
        <pt x="1905" y="970" on="1"/>
        <pt x="1890" y="970" on="1"/>
        <pt x="1705" y="790" on="1"/>
        <pt x="1705" y="260" on="1"/>
        <pt x="1470" y="30" on="1"/>
        <pt x="1470" y="1440" on="1"/>
      </contour>
      <contour>
        <pt x="1720" y="790" on="1"/>
        <pt x="1890" y="960" on="1"/>
        <pt x="1890" y="460" on="1"/>
        <pt x="1720" y="460" on="1"/>
        <pt x="1720" y="790" on="1"/>
      </contour>
      <contour>
        <pt x="790" y="1120" on="1"/>
        <pt x="900" y="1120" on="1"/>
        <pt x="900" y="900" on="1"/>
        <pt x="570" y="900" on="1"/>
        <pt x="790" y="1120" on="1"/>
      </contour>
      <contour>
        <pt x="550" y="1440" on="1"/>
        <pt x="780" y="1670" on="1"/>
        <pt x="780" y="1140" on="1"/>
        <pt x="550" y="910" on="1"/>
        <pt x="550" y="1440" on="1"/>
      </contour>
      <contour>
        <pt x="900" y="1230" on="1"/>
        <pt x="900" y="1140" on="1"/>
        <pt x="810" y="1140" on="1"/>
        <pt x="900" y="1230" on="1"/>
      </contour>
      <contour>
        <pt x="795" y="1695" on="1"/>
        <pt x="470" y="1695" on="1"/>
        <pt x="470" y="1870" on="1"/>
        <pt x="990" y="1870" on="1"/>
        <pt x="990" y="1530" on="1"/>
        <pt x="905" y="1440" on="1"/>
        <pt x="905" y="1250" on="1"/>
        <pt x="795" y="1150" on="1"/>
        <pt x="795" y="1695" on="1"/>
      </contour>
      <contour>
        <pt x="1705" y="1695" on="1"/>
        <pt x="1370" y="1695" on="1"/>
        <pt x="1370" y="1860" on="1"/>
        <pt x="1880" y="1860" on="1"/>
        <pt x="1880" y="1330" on="1"/>
        <pt x="1705" y="1160" on="1"/>
        <pt x="1705" y="1695" on="1"/>
      </contour>
      <contour>
        <pt x="270" y="1680" on="1"/>
        <pt x="760" y="1680" on="1"/>
        <pt x="540" y="1460" on="1"/>
        <pt x="50" y="1460" on="1"/>
        <pt x="270" y="1680" on="1"/>
      </contour>
      <contour>
        <pt x="1160" y="1680" on="1"/>
        <pt x="1680" y="1680" on="1"/>
        <pt x="1460" y="1460" on="1"/>
        <pt x="940" y="1460" on="1"/>
        <pt x="1160" y="1680" on="1"/>
      </contour>
      <contour>
        <pt x="1010" y="1880" on="1"/>
        <pt x="1270" y="2150" on="1"/>
        <pt x="1270" y="1695" on="1"/>
        <pt x="1160" y="1695" on="1"/>
        <pt x="1010" y="1550" on="1"/>
        <pt x="1010" y="1880" on="1"/>
      </contour>
      <contour>
        <pt x="1640" y="2150" on="1"/>
        <pt x="2150" y="2150" on="1"/>
        <pt x="1880" y="1880" on="1"/>
        <pt x="1370" y="1880" on="1"/>
        <pt x="1640" y="2150" on="1"/>
      </contour>
      <contour>
        <pt x="740" y="2150" on="1"/>
        <pt x="1250" y="2150" on="1"/>
        <pt x="990" y="1890" on="1"/>
        <pt x="480" y="1890" on="1"/>
        <pt x="740" y="2150" on="1"/>
      </contour>
    </TTGlyph>
    <TTGlyph name="i" xMin="10" yMin="0" xMax="2180" yMax="2170">
      <contour>
        <pt x="10" y="0" on="1"/>
        <pt x="1450" y="0" on="1"/>
        <pt x="2180" y="730" on="1"/>
        <pt x="2180" y="1635" on="1"/>
        <pt x="2020" y="1635" on="1"/>
        <pt x="2180" y="1810" on="1"/>
        <pt x="2180" y="2170" on="1"/>
        <pt x="720" y="2170" on="1"/>
        <pt x="10" y="1460" on="1"/>
        <pt x="10" y="1075" on="1"/>
        <pt x="150" y="1075" on="1"/>
        <pt x="10" y="920" on="1"/>
        <pt x="10" y="0" on="1"/>
      </contour>
      <contour>
        <pt x="30" y="890" on="1"/>
        <pt x="1440" y="890" on="1"/>
        <pt x="1440" y="20" on="1"/>
        <pt x="30" y="20" on="1"/>
        <pt x="30" y="890" on="1"/>
      </contour>
      <contour>
        <pt x="1470" y="910" on="1"/>
        <pt x="2160" y="1600" on="1"/>
        <pt x="2160" y="740" on="1"/>
        <pt x="1470" y="50" on="1"/>
        <pt x="1470" y="910" on="1"/>
      </contour>
      <contour>
        <pt x="190" y="1075" on="1"/>
        <pt x="1450" y="1075" on="1"/>
        <pt x="1990" y="1610" on="1"/>
        <pt x="2130" y="1610" on="1"/>
        <pt x="1440" y="920" on="1"/>
        <pt x="40" y="920" on="1"/>
        <pt x="190" y="1075" on="1"/>
      </contour>
      <contour>
        <pt x="30" y="1430" on="1"/>
        <pt x="1440" y="1430" on="1"/>
        <pt x="1440" y="1100" on="1"/>
        <pt x="30" y="1100" on="1"/>
        <pt x="30" y="1430" on="1"/>
      </contour>
      <contour>
        <pt x="1470" y="1450" on="1"/>
        <pt x="2160" y="2140" on="1"/>
        <pt x="2160" y="1820" on="1"/>
        <pt x="1470" y="1130" on="1"/>
        <pt x="1470" y="1450" on="1"/>
      </contour>
      <contour>
        <pt x="730" y="2150" on="1"/>
        <pt x="2130" y="2150" on="1"/>
        <pt x="1440" y="1460" on="1"/>
        <pt x="40" y="1460" on="1"/>
        <pt x="730" y="2150" on="1"/>
      </contour>
    </TTGlyph>
    <TTGlyph name="j" xMin="10" yMin="0" xMax="2180" yMax="2170">
      <contour>
        <pt x="370" y="0" on="1"/>
        <pt x="1090" y="0" on="1"/>
        <pt x="2180" y="1090" on="1"/>
        <pt x="2180" y="2170" on="1"/>
        <pt x="720" y="2170" on="1"/>
        <pt x="365" y="1820" on="1"/>
        <pt x="365" y="1100" on="1"/>
        <pt x="10" y="740" on="1"/>
        <pt x="10" y="360" on="1"/>
        <pt x="370" y="0" on="1"/>
      </contour>
      <contour>
        <pt x="30" y="370" on="1"/>
        <pt x="30" y="710" on="1"/>
        <pt x="545" y="710" on="1"/>
        <pt x="545" y="540" on="1"/>
        <pt x="730" y="360" on="1"/>
        <pt x="925" y="550" on="1"/>
        <pt x="925" y="1440" on="1"/>
        <pt x="1440" y="1440" on="1"/>
        <pt x="1440" y="380" on="1"/>
        <pt x="1080" y="20" on="1"/>
        <pt x="380" y="20" on="1"/>
        <pt x="30" y="370" on="1"/>
      </contour>
      <contour>
        <pt x="570" y="550" on="1"/>
        <pt x="900" y="880" on="1"/>
        <pt x="900" y="560" on="1"/>
        <pt x="730" y="390" on="1"/>
        <pt x="570" y="550" on="1"/>
      </contour>
      <contour>
        <pt x="1470" y="1450" on="1"/>
        <pt x="2160" y="2140" on="1"/>
        <pt x="2160" y="1100" on="1"/>
        <pt x="1470" y="410" on="1"/>
        <pt x="1470" y="1450" on="1"/>
      </contour>
      <contour>
        <pt x="570" y="730" on="1"/>
        <pt x="900" y="1060" on="1"/>
        <pt x="900" y="920" on="1"/>
        <pt x="570" y="590" on="1"/>
        <pt x="570" y="730" on="1"/>
      </contour>
      <contour>
        <pt x="370" y="1070" on="1"/>
        <pt x="870" y="1070" on="1"/>
        <pt x="540" y="740" on="1"/>
        <pt x="40" y="740" on="1"/>
        <pt x="370" y="1070" on="1"/>
      </contour>
      <contour>
        <pt x="390" y="1790" on="1"/>
        <pt x="1230" y="1790" on="1"/>
        <pt x="905" y="1460" on="1"/>
        <pt x="905" y="1100" on="1"/>
        <pt x="390" y="1100" on="1"/>
        <pt x="390" y="1790" on="1"/>
      </contour>
      <contour>
        <pt x="1270" y="1800" on="1"/>
        <pt x="1270" y="1815" on="1"/>
        <pt x="400" y="1815" on="1"/>
        <pt x="730" y="2150" on="1"/>
        <pt x="2130" y="2150" on="1"/>
        <pt x="1450" y="1470" on="1"/>
        <pt x="950" y="1470" on="1"/>
        <pt x="1270" y="1800" on="1"/>
      </contour>
    </TTGlyph>
    <TTGlyph name="k" xMin="10" yMin="0" xMax="2180" yMax="2170">
      <contour>
        <pt x="10" y="0" on="1"/>
        <pt x="560" y="0" on="1"/>
        <pt x="730" y="170" on="1"/>
        <pt x="905" y="170" on="1"/>
        <pt x="905" y="0" on="1"/>
        <pt x="1450" y="0" on="1"/>
        <pt x="2180" y="730" on="1"/>
        <pt x="2180" y="2170" on="1"/>
        <pt x="720" y="2170" on="1"/>
        <pt x="10" y="1460" on="1"/>
        <pt x="10" y="0" on="1"/>
      </contour>
      <contour>
        <pt x="30" y="1430" on="1"/>
        <pt x="545" y="1430" on="1"/>
        <pt x="545" y="1260" on="1"/>
        <pt x="925" y="1260" on="1"/>
        <pt x="925" y="1430" on="1"/>
        <pt x="1440" y="1430" on="1"/>
        <pt x="1440" y="815" on="1"/>
        <pt x="910" y="815" on="1"/>
        <pt x="910" y="635" on="1"/>
        <pt x="1440" y="635" on="1"/>
        <pt x="1440" y="20" on="1"/>
        <pt x="925" y="20" on="1"/>
        <pt x="925" y="190" on="1"/>
        <pt x="545" y="190" on="1"/>
        <pt x="545" y="20" on="1"/>
        <pt x="30" y="20" on="1"/>
        <pt x="30" y="1430" on="1"/>
      </contour>
      <contour>
        <pt x="570" y="170" on="1"/>
        <pt x="690" y="170" on="1"/>
        <pt x="570" y="50" on="1"/>
        <pt x="570" y="170" on="1"/>
      </contour>
      <contour>
        <pt x="1470" y="640" on="1"/>
        <pt x="2000" y="1180" on="1"/>
        <pt x="2000" y="1340" on="1"/>
        <pt x="1970" y="1340" on="1"/>
        <pt x="1470" y="850" on="1"/>
        <pt x="1470" y="1450" on="1"/>
        <pt x="2160" y="2140" on="1"/>
        <pt x="2160" y="740" on="1"/>
        <pt x="1470" y="50" on="1"/>
        <pt x="1470" y="640" on="1"/>
      </contour>
      <contour>
        <pt x="1080" y="795" on="1"/>
        <pt x="1450" y="795" on="1"/>
        <pt x="1980" y="1320" on="1"/>
        <pt x="1980" y="1190" on="1"/>
        <pt x="1450" y="660" on="1"/>
        <pt x="950" y="660" on="1"/>
        <pt x="1080" y="795" on="1"/>
      </contour>
      <contour>
        <pt x="930" y="790" on="1"/>
        <pt x="1040" y="790" on="1"/>
        <pt x="930" y="680" on="1"/>
        <pt x="930" y="790" on="1"/>
      </contour>
      <contour>
        <pt x="1000" y="1700" on="1"/>
        <pt x="1140" y="1700" on="1"/>
        <pt x="905" y="1460" on="1"/>
        <pt x="905" y="1280" on="1"/>
        <pt x="580" y="1280" on="1"/>
        <pt x="1000" y="1700" on="1"/>
      </contour>
      <contour>
        <pt x="570" y="1450" on="1"/>
        <pt x="990" y="1870" on="1"/>
        <pt x="990" y="1730" on="1"/>
        <pt x="570" y="1310" on="1"/>
        <pt x="570" y="1450" on="1"/>
      </contour>
      <contour>
        <pt x="730" y="2150" on="1"/>
        <pt x="2130" y="2150" on="1"/>
        <pt x="1440" y="1460" on="1"/>
        <pt x="940" y="1460" on="1"/>
        <pt x="1370" y="1900" on="1"/>
        <pt x="990" y="1900" on="1"/>
        <pt x="540" y="1460" on="1"/>
        <pt x="40" y="1460" on="1"/>
        <pt x="730" y="2150" on="1"/>
      </contour>
      <contour>
        <pt x="1020" y="1880" on="1"/>
        <pt x="1320" y="1880" on="1"/>
        <pt x="1170" y="1730" on="1"/>
        <pt x="1020" y="1730" on="1"/>
        <pt x="1020" y="1880" on="1"/>
      </contour>
    </TTGlyph>
    <TTGlyph name="l" xMin="10" yMin="0" xMax="2180" yMax="2170">
      <contour>
        <pt x="10" y="0" on="1"/>
        <pt x="1450" y="0" on="1"/>
        <pt x="2180" y="730" on="1"/>
        <pt x="2180" y="2170" on="1"/>
        <pt x="720" y="2170" on="1"/>
        <pt x="10" y="1460" on="1"/>
      </contour>
      <contour>
        <pt x="30" y="1430" on="1"/>
        <pt x="545" y="1430" on="1"/>
        <pt x="545" y="550" on="1"/>
        <pt x="560" y="535" on="1"/>
        <pt x="1440" y="535" on="1"/>
        <pt x="1440" y="20" on="1"/>
        <pt x="30" y="20" on="1"/>
      </contour>
      <contour>
        <pt x="1470" y="550" on="1"/>
        <pt x="1890" y="970" on="1"/>
        <pt x="1915" y="980" on="1"/>
        <pt x="1915" y="1910" on="1"/>
        <pt x="2160" y="2150" on="1"/>
        <pt x="2160" y="740" on="1"/>
        <pt x="1470" y="50" on="1"/>
      </contour>
      <contour>
        <pt x="1000" y="980" on="1"/>
        <pt x="1850" y="970" on="1"/>
        <pt x="1440" y="560" on="1"/>
        <pt x="580" y="560" on="1"/>
      </contour>
      <contour>
        <pt x="570" y="1450" on="1"/>
        <pt x="990" y="1870" on="1"/>
        <pt x="990" y="1010" on="1"/>
        <pt x="570" y="590" on="1"/>
      </contour>
      <contour>
        <pt x="1020" y="1890" on="1"/>
        <pt x="1890" y="1890" on="1"/>
        <pt x="1890" y="1000" on="1"/>
        <pt x="1020" y="1000" on="1"/>
      </contour>
      <contour>
        <pt x="730" y="2150" on="1"/>
        <pt x="2120" y="2150" on="1"/>
        <pt x="1890" y="1920" on="1"/>
        <pt x="1010" y="1910" on="1"/>
        <pt x="1000" y="1910" on="1"/>
        <pt x="540" y="1460" on="1"/>
        <pt x="40" y="1460" on="1"/>
      </contour>
    </TTGlyph>
    <TTGlyph name="m" xMin="10" yMin="0" xMax="2180" yMax="2170">
      <contour>
        <pt x="10" y="0" on="1"/>
        <pt x="370" y="0" on="1"/>
        <pt x="545" y="160" on="1"/>
        <pt x="545" y="0" on="1"/>
        <pt x="910" y="0" on="1"/>
        <pt x="1085" y="160" on="1"/>
        <pt x="1085" y="0" on="1"/>
        <pt x="1450" y="0" on="1"/>
        <pt x="1635" y="180" on="1"/>
        <pt x="1635" y="255" on="1"/>
        <pt x="1710" y="255" on="1"/>
        <pt x="1905" y="460" on="1"/>
        <pt x="1905" y="535" on="1"/>
        <pt x="1990" y="535" on="1"/>
        <pt x="2180" y="730" on="1"/>
        <pt x="2180" y="2170" on="1"/>
        <pt x="720" y="2170" on="1"/>
        <pt x="10" y="1460" on="1"/>
      </contour>
      <contour>
        <pt x="30" y="1430" on="1"/>
        <pt x="1440" y="1430" on="1"/>
        <pt x="1440" y="20" on="1"/>
        <pt x="1105" y="20" on="1"/>
        <pt x="1105" y="730" on="1"/>
        <pt x="905" y="730" on="1"/>
        <pt x="905" y="20" on="1"/>
        <pt x="565" y="20" on="1"/>
        <pt x="565" y="730" on="1"/>
        <pt x="365" y="730" on="1"/>
        <pt x="365" y="20" on="1"/>
        <pt x="30" y="20" on="1"/>
      </contour>
      <contour>
        <pt x="390" y="710" on="1"/>
        <pt x="540" y="710" on="1"/>
        <pt x="540" y="200" on="1"/>
        <pt x="390" y="50" on="1"/>
      </contour>
      <contour>
        <pt x="930" y="710" on="1"/>
        <pt x="1080" y="710" on="1"/>
        <pt x="1080" y="200" on="1"/>
        <pt x="930" y="50" on="1"/>
      </contour>
      <contour>
        <pt x="1470" y="1450" on="1"/>
        <pt x="2160" y="2140" on="1"/>
        <pt x="2160" y="740" on="1"/>
        <pt x="2005" y="590" on="1"/>
        <pt x="2005" y="1270" on="1"/>
        <pt x="1990" y="1270" on="1"/>
        <pt x="1990" y="1270" on="0"/>
        <pt x="1969" y="1249" on="0"/>
        <pt x="1940" y="1221" on="0"/>
        <pt x="1910" y="1190" on="0"/>
        <pt x="1900" y="1180" on="1"/>
        <pt x="1897" y="1176" on="0"/>
        <pt x="1885" y="1161" on="0"/>
        <pt x="1885" y="1160" on="1"/>
        <pt x="1885" y="470" on="1"/>
        <pt x="1725" y="320" on="1"/>
        <pt x="1725" y="1000" on="1"/>
        <pt x="1710" y="1000" on="1"/>
        <pt x="1710" y="1000" on="0"/>
        <pt x="1691" y="982" on="0"/>
        <pt x="1665" y="956" on="0"/>
        <pt x="1639" y="929" on="0"/>
        <pt x="1630" y="920" on="1"/>
        <pt x="1627" y="916" on="0"/>
        <pt x="1615" y="901" on="0"/>
        <pt x="1615" y="900" on="1"/>
        <pt x="1615" y="190" on="1"/>
        <pt x="1470" y="50" on="1"/>
      </contour>
      <contour>
        <pt x="1640" y="900" on="1"/>
        <pt x="1700" y="960" on="1"/>
        <pt x="1700" y="280" on="1"/>
        <pt x="1640" y="280" on="1"/>
      </contour>
      <contour>
        <pt x="1910" y="1160" on="1"/>
        <pt x="1980" y="1230" on="1"/>
        <pt x="1980" y="560" on="1"/>
        <pt x="1910" y="560" on="1"/>
      </contour>
      <contour>
        <pt x="730" y="2150" on="1"/>
        <pt x="2130" y="2150" on="1"/>
        <pt x="1440" y="1460" on="1"/>
        <pt x="40" y="1460" on="1"/>
      </contour>
    </TTGlyph>
    <TTGlyph name="n" xMin="10" yMin="0" xMax="2180" yMax="2170">
      <contour>
        <pt x="10" y="0" on="1"/>
        <pt x="460" y="0" on="1"/>
        <pt x="625" y="160" on="1"/>
        <pt x="625" y="0" on="1"/>
        <pt x="1450" y="0" on="1"/>
        <pt x="2180" y="730" on="1"/>
        <pt x="2180" y="2170" on="1"/>
        <pt x="720" y="2170" on="1"/>
        <pt x="10" y="1460" on="1"/>
        <pt x="10" y="0" on="1"/>
      </contour>
      <contour>
        <pt x="30" y="1430" on="1"/>
        <pt x="815" y="1430" on="1"/>
        <pt x="815" y="360" on="1"/>
        <pt x="1015" y="360" on="1"/>
        <pt x="1015" y="1430" on="1"/>
        <pt x="1440" y="1430" on="1"/>
        <pt x="1440" y="20" on="1"/>
        <pt x="645" y="20" on="1"/>
        <pt x="645" y="1090" on="1"/>
        <pt x="445" y="1090" on="1"/>
        <pt x="445" y="20" on="1"/>
        <pt x="30" y="20" on="1"/>
        <pt x="30" y="1430" on="1"/>
      </contour>
      <contour>
        <pt x="470" y="1070" on="1"/>
        <pt x="620" y="1070" on="1"/>
        <pt x="620" y="180" on="1"/>
        <pt x="610" y="180" on="1"/>
        <pt x="470" y="50" on="1"/>
        <pt x="470" y="1070" on="1"/>
      </contour>
      <contour>
        <pt x="1470" y="1450" on="1"/>
        <pt x="2160" y="2140" on="1"/>
        <pt x="2160" y="740" on="1"/>
        <pt x="1470" y="50" on="1"/>
        <pt x="1470" y="1450" on="1"/>
      </contour>
      <contour>
        <pt x="990" y="500" on="1"/>
        <pt x="990" y="380" on="1"/>
        <pt x="870" y="380" on="1"/>
        <pt x="990" y="500" on="1"/>
      </contour>
      <contour>
        <pt x="840" y="1440" on="1"/>
        <pt x="1340" y="1940" on="1"/>
        <pt x="1470" y="1940" on="1"/>
        <pt x="995" y="1460" on="1"/>
        <pt x="995" y="520" on="1"/>
        <pt x="980" y="520" on="1"/>
        <pt x="840" y="390" on="1"/>
        <pt x="840" y="1440" on="1"/>
      </contour>
      <contour>
        <pt x="730" y="2150" on="1"/>
        <pt x="2130" y="2150" on="1"/>
        <pt x="1440" y="1460" on="1"/>
        <pt x="1030" y="1460" on="1"/>
        <pt x="1520" y="1960" on="1"/>
        <pt x="1330" y="1960" on="1"/>
        <pt x="820" y="1460" on="1"/>
        <pt x="40" y="1460" on="1"/>
        <pt x="730" y="2150" on="1"/>
      </contour>
    </TTGlyph>
    <TTGlyph name="nine" xMin="10" yMin="0" xMax="2180" yMax="2170">
      <contour>
        <pt x="1085" y="0" on="1"/>
        <pt x="1450" y="0" on="1"/>
        <pt x="1725" y="270" on="1"/>
        <pt x="1725" y="810" on="1"/>
        <pt x="2180" y="1270" on="1"/>
        <pt x="2180" y="2170" on="1"/>
        <pt x="720" y="2170" on="1"/>
        <pt x="10" y="1460" on="1"/>
        <pt x="10" y="535" on="1"/>
        <pt x="1085" y="535" on="1"/>
        <pt x="1085" y="0" on="1"/>
      </contour>
      <contour>
        <pt x="1105" y="540" on="1"/>
        <pt x="1090" y="555" on="1"/>
        <pt x="30" y="555" on="1"/>
        <pt x="30" y="1430" on="1"/>
        <pt x="1440" y="1430" on="1"/>
        <pt x="1440" y="20" on="1"/>
        <pt x="1105" y="20" on="1"/>
        <pt x="1105" y="540" on="1"/>
      </contour>
      <contour>
        <pt x="1470" y="1450" on="1"/>
        <pt x="2160" y="2140" on="1"/>
        <pt x="2160" y="1280" on="1"/>
        <pt x="1705" y="820" on="1"/>
        <pt x="1705" y="280" on="1"/>
        <pt x="1470" y="50" on="1"/>
        <pt x="1470" y="1450" on="1"/>
      </contour>
      <contour>
        <pt x="370" y="900" on="1"/>
        <pt x="1100" y="900" on="1"/>
        <pt x="1100" y="1090" on="1"/>
        <pt x="370" y="1090" on="1"/>
        <pt x="370" y="900" on="1"/>
      </contour>
      <contour>
        <pt x="550" y="1070" on="1"/>
        <pt x="1080" y="1070" on="1"/>
        <pt x="1080" y="920" on="1"/>
        <pt x="400" y="920" on="1"/>
        <pt x="550" y="1070" on="1"/>
      </contour>
      <contour>
        <pt x="390" y="1070" on="1"/>
        <pt x="510" y="1070" on="1"/>
        <pt x="390" y="950" on="1"/>
        <pt x="390" y="1070" on="1"/>
      </contour>
      <contour>
        <pt x="730" y="2150" on="1"/>
        <pt x="2130" y="2150" on="1"/>
        <pt x="1440" y="1460" on="1"/>
        <pt x="40" y="1460" on="1"/>
        <pt x="730" y="2150" on="1"/>
      </contour>
    </TTGlyph>
    <TTGlyph name="o" xMin="10" yMin="0" xMax="2180" yMax="2170">
      <contour>
        <pt x="10" y="0" on="1"/>
        <pt x="1450" y="0" on="1"/>
        <pt x="2180" y="730" on="1"/>
        <pt x="2180" y="2170" on="1"/>
        <pt x="720" y="2170" on="1"/>
        <pt x="10" y="1460" on="1"/>
        <pt x="10" y="0" on="1"/>
      </contour>
      <contour>
        <pt x="30" y="1430" on="1"/>
        <pt x="1440" y="1430" on="1"/>
        <pt x="1440" y="20" on="1"/>
        <pt x="30" y="20" on="1"/>
        <pt x="30" y="1430" on="1"/>
      </contour>
      <contour>
        <pt x="1470" y="1450" on="1"/>
        <pt x="2160" y="2140" on="1"/>
        <pt x="2160" y="740" on="1"/>
        <pt x="1470" y="50" on="1"/>
        <pt x="1470" y="1450" on="1"/>
      </contour>
      <contour>
        <pt x="460" y="440" on="1"/>
        <pt x="1000" y="440" on="1"/>
        <pt x="1000" y="1010" on="1"/>
        <pt x="460" y="1010" on="1"/>
        <pt x="460" y="440" on="1"/>
      </contour>
      <contour>
        <pt x="980" y="930" on="1"/>
        <pt x="980" y="460" on="1"/>
        <pt x="510" y="460" on="1"/>
        <pt x="980" y="930" on="1"/>
      </contour>
      <contour>
        <pt x="480" y="990" on="1"/>
        <pt x="980" y="990" on="1"/>
        <pt x="980" y="970" on="1"/>
        <pt x="480" y="470" on="1"/>
        <pt x="480" y="990" on="1"/>
      </contour>
      <contour>
        <pt x="1720" y="1280" on="1"/>
        <pt x="1720" y="730" on="1"/>
        <pt x="1730" y="730" on="1"/>
        <pt x="2000" y="1000" on="1"/>
        <pt x="2000" y="1520" on="1"/>
        <pt x="1980" y="1540" on="1"/>
        <pt x="1720" y="1280" on="1"/>
      </contour>
      <contour>
        <pt x="1740" y="980" on="1"/>
        <pt x="1950" y="980" on="1"/>
        <pt x="1740" y="770" on="1"/>
        <pt x="1740" y="980" on="1"/>
      </contour>
      <contour>
        <pt x="1740" y="1270" on="1"/>
        <pt x="1980" y="1510" on="1"/>
        <pt x="1980" y="1010" on="1"/>
        <pt x="1740" y="1010" on="1"/>
        <pt x="1740" y="1270" on="1"/>
      </contour>
      <contour>
        <pt x="730" y="2150" on="1"/>
        <pt x="2130" y="2150" on="1"/>
        <pt x="1440" y="1460" on="1"/>
        <pt x="40" y="1460" on="1"/>
        <pt x="730" y="2150" on="1"/>
      </contour>
    </TTGlyph>
    <TTGlyph name="one" xMin="10" yMin="0" xMax="1460" yMax="2170">
      <contour>
        <pt x="185" y="0" on="1"/>
        <pt x="730" y="0" on="1"/>
        <pt x="1460" y="730" on="1"/>
        <pt x="1460" y="2170" on="1"/>
        <pt x="900" y="2170" on="1"/>
        <pt x="10" y="1280" on="1"/>
        <pt x="10" y="895" on="1"/>
        <pt x="185" y="895" on="1"/>
        <pt x="185" y="0" on="1"/>
      </contour>
      <contour>
        <pt x="205" y="900" on="1"/>
        <pt x="190" y="915" on="1"/>
        <pt x="30" y="915" on="1"/>
        <pt x="30" y="1270" on="1"/>
        <pt x="190" y="1430" on="1"/>
        <pt x="720" y="1430" on="1"/>
        <pt x="720" y="20" on="1"/>
        <pt x="205" y="20" on="1"/>
        <pt x="205" y="900" on="1"/>
      </contour>
      <contour>
        <pt x="750" y="1450" on="1"/>
        <pt x="1440" y="2140" on="1"/>
        <pt x="1440" y="740" on="1"/>
        <pt x="750" y="50" on="1"/>
        <pt x="750" y="1450" on="1"/>
      </contour>
      <contour>
        <pt x="910" y="2150" on="1"/>
        <pt x="1410" y="2150" on="1"/>
        <pt x="720" y="1460" on="1"/>
        <pt x="220" y="1460" on="1"/>
        <pt x="910" y="2150" on="1"/>
      </contour>
    </TTGlyph>
    <TTGlyph name="p" xMin="10" yMin="0" xMax="2180" yMax="2170">
      <contour>
        <pt x="10" y="0" on="1"/>
        <pt x="550" y="0" on="1"/>
        <pt x="910" y="355" on="1"/>
        <pt x="1090" y="355" on="1"/>
        <pt x="2180" y="1450" on="1"/>
        <pt x="2180" y="1810" on="1"/>
        <pt x="1820" y="2170" on="1"/>
        <pt x="720" y="2170" on="1"/>
        <pt x="10" y="1460" on="1"/>
        <pt x="10" y="0" on="1"/>
      </contour>
      <contour>
        <pt x="30" y="1430" on="1"/>
        <pt x="1090" y="1430" on="1"/>
        <pt x="1440" y="1080" on="1"/>
        <pt x="1440" y="740" on="1"/>
        <pt x="1080" y="375" on="1"/>
        <pt x="560" y="375" on="1"/>
        <pt x="545" y="360" on="1"/>
        <pt x="545" y="20" on="1"/>
        <pt x="30" y="20" on="1"/>
        <pt x="30" y="1430" on="1"/>
      </contour>
      <contour>
        <pt x="570" y="350" on="1"/>
        <pt x="870" y="350" on="1"/>
        <pt x="570" y="50" on="1"/>
        <pt x="570" y="350" on="1"/>
      </contour>
      <contour>
        <pt x="550" y="720" on="1"/>
        <pt x="910" y="720" on="1"/>
        <pt x="1090" y="900" on="1"/>
        <pt x="1090" y="920" on="1"/>
        <pt x="920" y="1090" on="1"/>
        <pt x="550" y="1090" on="1"/>
        <pt x="550" y="720" on="1"/>
      </contour>
      <contour>
        <pt x="910" y="1070" on="1"/>
        <pt x="1070" y="910" on="1"/>
        <pt x="900" y="740" on="1"/>
        <pt x="580" y="740" on="1"/>
        <pt x="910" y="1070" on="1"/>
      </contour>
      <contour>
        <pt x="570" y="1070" on="1"/>
        <pt x="870" y="1070" on="1"/>
        <pt x="570" y="770" on="1"/>
        <pt x="570" y="1070" on="1"/>
      </contour>
      <contour>
        <pt x="1470" y="1090" on="1"/>
        <pt x="2160" y="1780" on="1"/>
        <pt x="2160" y="1460" on="1"/>
        <pt x="1470" y="770" on="1"/>
        <pt x="1470" y="1090" on="1"/>
      </contour>
      <contour>
        <pt x="1110" y="1450" on="1"/>
        <pt x="1810" y="2150" on="1"/>
        <pt x="2150" y="1810" on="1"/>
        <pt x="1450" y="1110" on="1"/>
        <pt x="1110" y="1450" on="1"/>
      </contour>
      <contour>
        <pt x="730" y="2150" on="1"/>
        <pt x="1770" y="2150" on="1"/>
        <pt x="1080" y="1460" on="1"/>
        <pt x="40" y="1460" on="1"/>
        <pt x="730" y="2150" on="1"/>
      </contour>
    </TTGlyph>
    <TTGlyph name="q" xMin="10" yMin="0" xMax="2180" yMax="2170">
      <contour>
        <pt x="10" y="0" on="1"/>
        <pt x="1450" y="0" on="1"/>
        <pt x="2180" y="730" on="1"/>
        <pt x="2180" y="2170" on="1"/>
        <pt x="720" y="2170" on="1"/>
        <pt x="10" y="1460" on="1"/>
      </contour>
      <contour>
        <pt x="30" y="1430" on="1"/>
        <pt x="1440" y="1430" on="1"/>
        <pt x="1440" y="20" on="1"/>
        <pt x="30" y="20" on="1"/>
      </contour>
      <contour>
        <pt x="1470" y="1450" on="1"/>
        <pt x="2160" y="2140" on="1"/>
        <pt x="2160" y="740" on="1"/>
        <pt x="1470" y="50" on="1"/>
      </contour>
      <contour>
        <pt x="370" y="360" on="1"/>
        <pt x="910" y="360" on="1"/>
        <pt x="910" y="380" on="1"/>
        <pt x="770" y="535" on="1"/>
        <pt x="1100" y="535" on="1"/>
        <pt x="1100" y="1090" on="1"/>
        <pt x="370" y="1090" on="1"/>
      </contour>
      <contour>
        <pt x="1080" y="1060" on="1"/>
        <pt x="1080" y="920" on="1"/>
        <pt x="720" y="550" on="1"/>
        <pt x="880" y="380" on="1"/>
        <pt x="400" y="380" on="1"/>
      </contour>
      <contour>
        <pt x="390" y="1070" on="1"/>
        <pt x="1050" y="1070" on="1"/>
        <pt x="390" y="410" on="1"/>
      </contour>
      <contour>
        <pt x="1080" y="880" on="1"/>
        <pt x="1080" y="560" on="1"/>
        <pt x="760" y="560" on="1"/>
      </contour>
      <contour>
        <pt x="1805" y="880" on="1"/>
        <pt x="1805" y="730" on="1"/>
        <pt x="1820" y="730" on="1"/>
        <pt x="2000" y="910" on="1"/>
        <pt x="2000" y="1620" on="1"/>
        <pt x="1980" y="1620" on="1"/>
        <pt x="1720" y="1360" on="1"/>
        <pt x="1710" y="820" on="1"/>
        <pt x="1710" y="810" on="1"/>
        <pt x="1730" y="810" on="1"/>
      </contour>
      <contour>
        <pt x="1830" y="890" on="1"/>
        <pt x="1950" y="890" on="1"/>
        <pt x="1830" y="770" on="1"/>
      </contour>
      <contour>
        <pt x="1740" y="890" on="1"/>
        <pt x="1770" y="890" on="1"/>
        <pt x="1740" y="860" on="1"/>
      </contour>
      <contour>
        <pt x="1740" y="1350" on="1"/>
        <pt x="1980" y="1590" on="1"/>
        <pt x="1980" y="920" on="1"/>
        <pt x="1740" y="920" on="1"/>
      </contour>
      <contour>
        <pt x="730" y="2150" on="1"/>
        <pt x="2130" y="2150" on="1"/>
        <pt x="1440" y="1460" on="1"/>
        <pt x="40" y="1460" on="1"/>
      </contour>
    </TTGlyph>
    <TTGlyph name="question" xMin="10" yMin="0" xMax="2180" yMax="2170">
      <contour>
        <pt x="730" y="0" on="1"/>
        <pt x="1090" y="0" on="1"/>
        <pt x="1820" y="730" on="1"/>
        <pt x="1820" y="915" on="1"/>
        <pt x="1660" y="915" on="1"/>
        <pt x="1825" y="1090" on="1"/>
        <pt x="1825" y="1270" on="1"/>
        <pt x="2180" y="1630" on="1"/>
        <pt x="2180" y="2160" on="1"/>
        <pt x="2160" y="2170" on="1"/>
        <pt x="1440" y="1460" on="1"/>
        <pt x="40" y="1460" on="1"/>
        <pt x="730" y="2155" on="1"/>
        <pt x="2080" y="2155" on="1"/>
        <pt x="2080" y="2170" on="1"/>
        <pt x="720" y="2170" on="1"/>
        <pt x="10" y="1460" on="1"/>
        <pt x="10" y="720" on="1"/>
        <pt x="370" y="720" on="1"/>
        <pt x="730" y="1070" on="1"/>
        <pt x="1080" y="1070" on="1"/>
        <pt x="1080" y="920" on="1"/>
        <pt x="730" y="560" on="1"/>
        <pt x="730" y="355" on="1"/>
        <pt x="870" y="355" on="1"/>
        <pt x="730" y="200" on="1"/>
        <pt x="730" y="0" on="1"/>
      </contour>
      <contour>
        <pt x="750" y="170" on="1"/>
        <pt x="1080" y="170" on="1"/>
        <pt x="1080" y="20" on="1"/>
        <pt x="750" y="20" on="1"/>
        <pt x="750" y="170" on="1"/>
      </contour>
      <contour>
        <pt x="1110" y="190" on="1"/>
        <pt x="1800" y="880" on="1"/>
        <pt x="1800" y="740" on="1"/>
        <pt x="1110" y="50" on="1"/>
        <pt x="1110" y="190" on="1"/>
      </contour>
      <contour>
        <pt x="910" y="355" on="1"/>
        <pt x="1090" y="355" on="1"/>
        <pt x="1630" y="890" on="1"/>
        <pt x="1770" y="890" on="1"/>
        <pt x="1080" y="200" on="1"/>
        <pt x="760" y="200" on="1"/>
        <pt x="910" y="355" on="1"/>
      </contour>
      <contour>
        <pt x="750" y="550" on="1"/>
        <pt x="1100" y="910" on="1"/>
        <pt x="1100" y="1090" on="1"/>
        <pt x="365" y="1090" on="1"/>
        <pt x="365" y="740" on="1"/>
        <pt x="30" y="740" on="1"/>
        <pt x="30" y="1430" on="1"/>
        <pt x="1440" y="1430" on="1"/>
        <pt x="1440" y="920" on="1"/>
        <pt x="1085" y="560" on="1"/>
        <pt x="1085" y="380" on="1"/>
        <pt x="750" y="380" on="1"/>
        <pt x="750" y="550" on="1"/>
      </contour>
      <contour>
        <pt x="1110" y="550" on="1"/>
        <pt x="1800" y="1240" on="1"/>
        <pt x="1800" y="1100" on="1"/>
        <pt x="1110" y="410" on="1"/>
        <pt x="1110" y="550" on="1"/>
      </contour>
      <contour>
        <pt x="390" y="1070" on="1"/>
        <pt x="690" y="1070" on="1"/>
        <pt x="390" y="770" on="1"/>
        <pt x="390" y="1070" on="1"/>
      </contour>
      <contour>
        <pt x="1470" y="1450" on="1"/>
        <pt x="2160" y="2140" on="1"/>
        <pt x="2160" y="1640" on="1"/>
        <pt x="1470" y="950" on="1"/>
        <pt x="1470" y="1450" on="1"/>
      </contour>
    </TTGlyph>
    <TTGlyph name="r" xMin="10" yMin="0" xMax="2180" yMax="2170">
      <contour>
        <pt x="10" y="0" on="1"/>
        <pt x="550" y="0" on="1"/>
        <pt x="905" y="340" on="1"/>
        <pt x="905" y="0" on="1"/>
        <pt x="1450" y="0" on="1"/>
        <pt x="1825" y="370" on="1"/>
        <pt x="1825" y="535" on="1"/>
        <pt x="1990" y="535" on="1"/>
        <pt x="2180" y="730" on="1"/>
        <pt x="2180" y="1090" on="1"/>
        <pt x="1920" y="1360" on="1"/>
        <pt x="2180" y="1630" on="1"/>
        <pt x="2180" y="1990" on="1"/>
        <pt x="2000" y="2170" on="1"/>
        <pt x="720" y="2170" on="1"/>
        <pt x="10" y="1460" on="1"/>
        <pt x="10" y="0" on="1"/>
      </contour>
      <contour>
        <pt x="30" y="1430" on="1"/>
        <pt x="1270" y="1430" on="1"/>
        <pt x="1440" y="1260" on="1"/>
        <pt x="1440" y="920" on="1"/>
        <pt x="1261" y="730" on="1"/>
        <pt x="1440" y="540" on="1"/>
        <pt x="1440" y="20" on="1"/>
        <pt x="925" y="20" on="1"/>
        <pt x="925" y="365" on="1"/>
        <pt x="740" y="550" on="1"/>
        <pt x="545" y="550" on="1"/>
        <pt x="545" y="20" on="1"/>
        <pt x="30" y="20" on="1"/>
        <pt x="30" y="1430" on="1"/>
      </contour>
      <contour>
        <pt x="570" y="530" on="1"/>
        <pt x="730" y="530" on="1"/>
        <pt x="890" y="370" on="1"/>
        <pt x="570" y="50" on="1"/>
        <pt x="570" y="530" on="1"/>
      </contour>
      <contour>
        <pt x="1470" y="550" on="1"/>
        <pt x="1800" y="880" on="1"/>
        <pt x="1800" y="380" on="1"/>
        <pt x="1470" y="50" on="1"/>
        <pt x="1470" y="550" on="1"/>
      </contour>
      <contour>
        <pt x="1825" y="904" on="1"/>
        <pt x="1650" y="1090" on="1"/>
        <pt x="1720" y="1160" on="1"/>
        <pt x="1980" y="900" on="1"/>
        <pt x="1980" y="560" on="1"/>
        <pt x="1825" y="560" on="1"/>
        <pt x="1825" y="904" on="1"/>
      </contour>
      <contour>
        <pt x="1290" y="730" on="1"/>
        <pt x="1630" y="1070" on="1"/>
        <pt x="1790" y="910" on="1"/>
        <pt x="1450" y="570" on="1"/>
        <pt x="1290" y="730" on="1"/>
      </contour>
      <contour>
        <pt x="2010" y="910" on="1"/>
        <pt x="2160" y="1060" on="1"/>
        <pt x="2160" y="740" on="1"/>
        <pt x="2010" y="590" on="1"/>
        <pt x="2010" y="910" on="1"/>
      </contour>
      <contour>
        <pt x="550" y="900" on="1"/>
        <pt x="910" y="900" on="1"/>
        <pt x="1090" y="1080" on="1"/>
        <pt x="1090" y="1090" on="1"/>
        <pt x="550" y="1090" on="1"/>
        <pt x="550" y="900" on="1"/>
      </contour>
      <contour>
        <pt x="730" y="1070" on="1"/>
        <pt x="1050" y="1070" on="1"/>
        <pt x="900" y="920" on="1"/>
        <pt x="580" y="920" on="1"/>
        <pt x="730" y="1070" on="1"/>
      </contour>
      <contour>
        <pt x="1740" y="1180" on="1"/>
        <pt x="1900" y="1340" on="1"/>
        <pt x="2150" y="1090" on="1"/>
        <pt x="1990" y="930" on="1"/>
        <pt x="1740" y="1180" on="1"/>
      </contour>
      <contour>
        <pt x="570" y="1070" on="1"/>
        <pt x="690" y="1070" on="1"/>
        <pt x="570" y="950" on="1"/>
        <pt x="570" y="1070" on="1"/>
      </contour>
      <contour>
        <pt x="1470" y="1270" on="1"/>
        <pt x="2160" y="1960" on="1"/>
        <pt x="2160" y="1640" on="1"/>
        <pt x="1470" y="950" on="1"/>
        <pt x="1470" y="1270" on="1"/>
      </contour>
      <contour>
        <pt x="1290" y="1450" on="1"/>
        <pt x="1990" y="2150" on="1"/>
        <pt x="2150" y="1990" on="1"/>
        <pt x="1450" y="1290" on="1"/>
        <pt x="1290" y="1450" on="1"/>
      </contour>
      <contour>
        <pt x="730" y="2150" on="1"/>
        <pt x="1950" y="2150" on="1"/>
        <pt x="1260" y="1460" on="1"/>
        <pt x="40" y="1460" on="1"/>
        <pt x="730" y="2150" on="1"/>
      </contour>
    </TTGlyph>
    <TTGlyph name="s" xMin="10" yMin="0" xMax="2180" yMax="2170">
      <contour>
        <pt x="10" y="0" on="1"/>
        <pt x="1450" y="0" on="1"/>
        <pt x="2180" y="730" on="1"/>
        <pt x="2180" y="1095" on="1"/>
        <pt x="2020" y="1095" on="1"/>
        <pt x="2180" y="1270" on="1"/>
        <pt x="2180" y="2170" on="1"/>
        <pt x="720" y="2170" on="1"/>
        <pt x="10" y="1460" on="1"/>
        <pt x="10" y="535" on="1"/>
        <pt x="150" y="535" on="1"/>
        <pt x="10" y="380" on="1"/>
        <pt x="10" y="0" on="1"/>
      </contour>
      <contour>
        <pt x="30" y="355" on="1"/>
        <pt x="1100" y="355" on="1"/>
        <pt x="1100" y="555" on="1"/>
        <pt x="30" y="555" on="1"/>
        <pt x="30" y="1430" on="1"/>
        <pt x="1440" y="1430" on="1"/>
        <pt x="1440" y="1095" on="1"/>
        <pt x="370" y="1095" on="1"/>
        <pt x="370" y="895" on="1"/>
        <pt x="1440" y="895" on="1"/>
        <pt x="1440" y="20" on="1"/>
        <pt x="30" y="20" on="1"/>
        <pt x="30" y="355" on="1"/>
      </contour>
      <contour>
        <pt x="1470" y="910" on="1"/>
        <pt x="2000" y="1450" on="1"/>
        <pt x="2000" y="1620" on="1"/>
        <pt x="1980" y="1630" on="1"/>
        <pt x="1470" y="1130" on="1"/>
        <pt x="1470" y="1450" on="1"/>
        <pt x="2160" y="2140" on="1"/>
        <pt x="2160" y="1280" on="1"/>
        <pt x="1630" y="740" on="1"/>
        <pt x="1630" y="540" on="1"/>
        <pt x="2160" y="1060" on="1"/>
        <pt x="2160" y="740" on="1"/>
        <pt x="1470" y="50" on="1"/>
        <pt x="1470" y="910" on="1"/>
      </contour>
      <contour>
        <pt x="190" y="530" on="1"/>
        <pt x="1080" y="530" on="1"/>
        <pt x="1080" y="380" on="1"/>
        <pt x="40" y="380" on="1"/>
        <pt x="190" y="530" on="1"/>
      </contour>
      <contour>
        <pt x="1650" y="730" on="1"/>
        <pt x="1990" y="1070" on="1"/>
        <pt x="2130" y="1070" on="1"/>
        <pt x="1650" y="590" on="1"/>
        <pt x="1650" y="730" on="1"/>
      </contour>
      <contour>
        <pt x="550" y="1075" on="1"/>
        <pt x="1450" y="1075" on="1"/>
        <pt x="1980" y="1600" on="1"/>
        <pt x="1980" y="1460" on="1"/>
        <pt x="1440" y="920" on="1"/>
        <pt x="400" y="920" on="1"/>
        <pt x="550" y="1075" on="1"/>
      </contour>
      <contour>
        <pt x="390" y="1070" on="1"/>
        <pt x="510" y="1070" on="1"/>
        <pt x="390" y="950" on="1"/>
        <pt x="390" y="1070" on="1"/>
      </contour>
      <contour>
        <pt x="730" y="2150" on="1"/>
        <pt x="2130" y="2150" on="1"/>
        <pt x="1440" y="1460" on="1"/>
        <pt x="40" y="1460" on="1"/>
        <pt x="730" y="2150" on="1"/>
      </contour>
    </TTGlyph>
    <TTGlyph name="seven" xMin="10" yMin="0" xMax="2180" yMax="2170">
      <contour>
        <pt x="1085" y="0" on="1"/>
        <pt x="1450" y="0" on="1"/>
        <pt x="2180" y="730" on="1"/>
        <pt x="2180" y="2170" on="1"/>
        <pt x="720" y="2170" on="1"/>
        <pt x="10" y="1460" on="1"/>
        <pt x="10" y="1075" on="1"/>
        <pt x="690" y="1075" on="1"/>
        <pt x="550" y="920" on="1"/>
        <pt x="550" y="535" on="1"/>
        <pt x="1085" y="535" on="1"/>
        <pt x="1085" y="0" on="1"/>
      </contour>
      <contour>
        <pt x="1105" y="540" on="1"/>
        <pt x="1090" y="555" on="1"/>
        <pt x="570" y="555" on="1"/>
        <pt x="570" y="895" on="1"/>
        <pt x="1100" y="895" on="1"/>
        <pt x="1100" y="1095" on="1"/>
        <pt x="30" y="1095" on="1"/>
        <pt x="30" y="1430" on="1"/>
        <pt x="1440" y="1430" on="1"/>
        <pt x="1440" y="20" on="1"/>
        <pt x="1105" y="20" on="1"/>
        <pt x="1105" y="540" on="1"/>
      </contour>
      <contour>
        <pt x="1470" y="1450" on="1"/>
        <pt x="2160" y="2140" on="1"/>
        <pt x="2160" y="740" on="1"/>
        <pt x="1470" y="50" on="1"/>
        <pt x="1470" y="1450" on="1"/>
      </contour>
      <contour>
        <pt x="730" y="1070" on="1"/>
        <pt x="1080" y="1070" on="1"/>
        <pt x="1080" y="920" on="1"/>
        <pt x="580" y="920" on="1"/>
        <pt x="730" y="1070" on="1"/>
      </contour>
      <contour>
        <pt x="730" y="2150" on="1"/>
        <pt x="2130" y="2150" on="1"/>
        <pt x="1440" y="1460" on="1"/>
        <pt x="40" y="1460" on="1"/>
        <pt x="730" y="2150" on="1"/>
      </contour>
    </TTGlyph>
    <TTGlyph name="six" xMin="10" yMin="0" xMax="2180" yMax="2170">
      <contour>
        <pt x="10" y="0" on="1"/>
        <pt x="1450" y="0" on="1"/>
        <pt x="2180" y="730" on="1"/>
        <pt x="2180" y="2170" on="1"/>
        <pt x="720" y="2170" on="1"/>
        <pt x="10" y="1460" on="1"/>
      </contour>
      <contour>
        <pt x="30" y="1430" on="1"/>
        <pt x="365" y="1430" on="1"/>
        <pt x="365" y="910" on="1"/>
        <pt x="380" y="895" on="1"/>
        <pt x="1440" y="895" on="1"/>
        <pt x="1440" y="20" on="1"/>
        <pt x="30" y="20" on="1"/>
      </contour>
      <contour>
        <pt x="1470" y="910" on="1"/>
        <pt x="2005" y="1450" on="1"/>
        <pt x="2005" y="1990" on="1"/>
        <pt x="2160" y="2140" on="1"/>
        <pt x="2160" y="740" on="1"/>
        <pt x="1470" y="50" on="1"/>
      </contour>
      <contour>
        <pt x="370" y="360" on="1"/>
        <pt x="1100" y="360" on="1"/>
        <pt x="1100" y="550" on="1"/>
        <pt x="370" y="550" on="1"/>
      </contour>
      <contour>
        <pt x="550" y="530" on="1"/>
        <pt x="1080" y="530" on="1"/>
        <pt x="1080" y="380" on="1"/>
        <pt x="400" y="380" on="1"/>
      </contour>
      <contour>
        <pt x="390" y="530" on="1"/>
        <pt x="510" y="530" on="1"/>
        <pt x="390" y="410" on="1"/>
      </contour>
      <contour>
        <pt x="910" y="1430" on="1"/>
        <pt x="1950" y="1430" on="1"/>
        <pt x="1440" y="920" on="1"/>
        <pt x="400" y="920" on="1"/>
      </contour>
      <contour>
        <pt x="390" y="1450" on="1"/>
        <pt x="900" y="1960" on="1"/>
        <pt x="900" y="1460" on="1"/>
        <pt x="390" y="950" on="1"/>
      </contour>
      <contour>
        <pt x="730" y="2150" on="1"/>
        <pt x="2130" y="2150" on="1"/>
        <pt x="1980" y="2000" on="1"/>
        <pt x="910" y="1990" on="1"/>
        <pt x="900" y="1990" on="1"/>
        <pt x="360" y="1460" on="1"/>
        <pt x="40" y="1460" on="1"/>
      </contour>
      <contour>
        <pt x="930" y="1970" on="1"/>
        <pt x="1980" y="1970" on="1"/>
        <pt x="1980" y="1460" on="1"/>
        <pt x="930" y="1460" on="1"/>
      </contour>
    </TTGlyph>
    <TTGlyph name="t" xMin="10" yMin="0" xMax="2180" yMax="2170">
      <contour>
        <pt x="545" y="0" on="1"/>
        <pt x="910" y="0" on="1"/>
        <pt x="1270" y="355" on="1"/>
        <pt x="1630" y="355" on="1"/>
        <pt x="1915" y="630" on="1"/>
        <pt x="1915" y="1360" on="1"/>
        <pt x="2180" y="1630" on="1"/>
        <pt x="2180" y="2170" on="1"/>
        <pt x="720" y="2170" on="1"/>
        <pt x="10" y="1460" on="1"/>
        <pt x="10" y="895" on="1"/>
        <pt x="545" y="895" on="1"/>
        <pt x="545" y="0" on="1"/>
      </contour>
      <contour>
        <pt x="565" y="915" on="1"/>
        <pt x="30" y="915" on="1"/>
        <pt x="30" y="1430" on="1"/>
        <pt x="1440" y="1430" on="1"/>
        <pt x="1440" y="915" on="1"/>
        <pt x="905" y="915" on="1"/>
        <pt x="905" y="20" on="1"/>
        <pt x="565" y="20" on="1"/>
        <pt x="565" y="915" on="1"/>
      </contour>
      <contour>
        <pt x="930" y="890" on="1"/>
        <pt x="1260" y="890" on="1"/>
        <pt x="1260" y="380" on="1"/>
        <pt x="930" y="50" on="1"/>
        <pt x="930" y="890" on="1"/>
      </contour>
      <contour>
        <pt x="1290" y="895" on="1"/>
        <pt x="1450" y="895" on="1"/>
        <pt x="1620" y="1060" on="1"/>
        <pt x="1620" y="380" on="1"/>
        <pt x="1290" y="380" on="1"/>
        <pt x="1290" y="895" on="1"/>
      </contour>
      <contour>
        <pt x="1645" y="1040" on="1"/>
        <pt x="1630" y="1100" on="1"/>
        <pt x="1470" y="950" on="1"/>
        <pt x="1470" y="1450" on="1"/>
        <pt x="2160" y="2140" on="1"/>
        <pt x="2160" y="1640" on="1"/>
        <pt x="1890" y="1360" on="1"/>
        <pt x="1890" y="650" on="1"/>
        <pt x="1645" y="410" on="1"/>
        <pt x="1645" y="1040" on="1"/>
      </contour>
      <contour>
        <pt x="730" y="2150" on="1"/>
        <pt x="2130" y="2150" on="1"/>
        <pt x="1440" y="1460" on="1"/>
        <pt x="40" y="1460" on="1"/>
        <pt x="730" y="2150" on="1"/>
      </contour>
    </TTGlyph>
    <TTGlyph name="three" xMin="10" yMin="0" xMax="2180" yMax="2170">
      <contour>
        <pt x="10" y="0" on="1"/>
        <pt x="1460" y="0" on="1"/>
        <pt x="2180" y="720" on="1"/>
        <pt x="2180" y="2170" on="1"/>
        <pt x="740" y="2170" on="1"/>
        <pt x="10" y="1440" on="1"/>
        <pt x="10" y="1085" on="1"/>
        <pt x="160" y="1085" on="1"/>
        <pt x="10" y="920" on="1"/>
        <pt x="10" y="535" on="1"/>
        <pt x="160" y="535" on="1"/>
        <pt x="10" y="370" on="1"/>
        <pt x="10" y="0" on="1"/>
      </contour>
      <contour>
        <pt x="30" y="365" on="1"/>
        <pt x="370" y="365" on="1"/>
        <pt x="370" y="545" on="1"/>
        <pt x="30" y="545" on="1"/>
        <pt x="30" y="915" on="1"/>
        <pt x="370" y="915" on="1"/>
        <pt x="370" y="1095" on="1"/>
        <pt x="30" y="1095" on="1"/>
        <pt x="30" y="1430" on="1"/>
        <pt x="1440" y="1430" on="1"/>
        <pt x="1440" y="20" on="1"/>
        <pt x="30" y="20" on="1"/>
        <pt x="30" y="365" on="1"/>
      </contour>
      <contour>
        <pt x="1470" y="1440" on="1"/>
        <pt x="2160" y="2130" on="1"/>
        <pt x="2160" y="720" on="1"/>
        <pt x="1470" y="30" on="1"/>
        <pt x="1470" y="1440" on="1"/>
      </contour>
      <contour>
        <pt x="190" y="530" on="1"/>
        <pt x="360" y="530" on="1"/>
        <pt x="360" y="380" on="1"/>
        <pt x="40" y="380" on="1"/>
        <pt x="190" y="530" on="1"/>
      </contour>
      <contour>
        <pt x="190" y="1080" on="1"/>
        <pt x="360" y="1080" on="1"/>
        <pt x="360" y="930" on="1"/>
        <pt x="40" y="930" on="1"/>
        <pt x="190" y="1080" on="1"/>
      </contour>
      <contour>
        <pt x="740" y="2150" on="1"/>
        <pt x="2150" y="2150" on="1"/>
        <pt x="1460" y="1460" on="1"/>
        <pt x="50" y="1460" on="1"/>
        <pt x="740" y="2150" on="1"/>
      </contour>
    </TTGlyph>
    <TTGlyph name="two" xMin="10" yMin="0" xMax="2180" yMax="2170">
      <contour>
        <pt x="10" y="0" on="1"/>
        <pt x="1450" y="0" on="1"/>
        <pt x="2180" y="730" on="1"/>
        <pt x="2180" y="1095" on="1"/>
        <pt x="1840" y="1095" on="1"/>
        <pt x="2180" y="1450" on="1"/>
        <pt x="2180" y="2170" on="1"/>
        <pt x="900" y="2170" on="1"/>
        <pt x="10" y="1280" on="1"/>
        <pt x="10" y="900" on="1"/>
        <pt x="370" y="900" on="1"/>
        <pt x="550" y="1070" on="1"/>
        <pt x="690" y="1070" on="1"/>
        <pt x="10" y="380" on="1"/>
      </contour>
      <contour>
        <pt x="30" y="370" on="1"/>
        <pt x="550" y="895" on="1"/>
        <pt x="1100" y="895" on="1"/>
        <pt x="1100" y="1090" on="1"/>
        <pt x="365" y="1090" on="1"/>
        <pt x="365" y="920" on="1"/>
        <pt x="30" y="920" on="1"/>
        <pt x="30" y="1270" on="1"/>
        <pt x="190" y="1430" on="1"/>
        <pt x="1440" y="1430" on="1"/>
        <pt x="1440" y="740" on="1"/>
        <pt x="1413" y="739" on="0"/>
        <pt x="1303" y="738" on="0"/>
        <pt x="1163" y="736" on="0"/>
        <pt x="1008" y="734" on="0"/>
        <pt x="868" y="732" on="0"/>
        <pt x="757" y="730" on="0"/>
        <pt x="730" y="730" on="1"/>
        <pt x="720" y="730" on="1"/>
        <pt x="370" y="380" on="1"/>
        <pt x="370" y="380" on="0"/>
        <pt x="369" y="377" on="0"/>
        <pt x="369" y="375" on="1"/>
        <pt x="369" y="374" on="0"/>
        <pt x="370" y="370" on="0"/>
        <pt x="370" y="370" on="1"/>
        <pt x="372" y="366" on="0"/>
        <pt x="379" y="355" on="0"/>
        <pt x="380" y="355" on="1"/>
        <pt x="1440" y="355" on="1"/>
        <pt x="1440" y="20" on="1"/>
        <pt x="30" y="20" on="1"/>
      </contour>
      <contour>
        <pt x="1470" y="370" on="1"/>
        <pt x="2160" y="1060" on="1"/>
        <pt x="2160" y="740" on="1"/>
        <pt x="1470" y="50" on="1"/>
      </contour>
      <contour>
        <pt x="730" y="715" on="1"/>
        <pt x="1450" y="715" on="1"/>
        <pt x="1810" y="1070" on="1"/>
        <pt x="2130" y="1070" on="1"/>
        <pt x="1440" y="380" on="1"/>
        <pt x="400" y="380" on="1"/>
      </contour>
      <contour>
        <pt x="1470" y="1450" on="1"/>
        <pt x="2160" y="2140" on="1"/>
        <pt x="2160" y="1460" on="1"/>
        <pt x="1470" y="770" on="1"/>
      </contour>
      <contour>
        <pt x="730" y="1070" on="1"/>
        <pt x="1080" y="1070" on="1"/>
        <pt x="1080" y="920" on="1"/>
        <pt x="580" y="920" on="1"/>
      </contour>
      <contour>
        <pt x="390" y="1070" on="1"/>
        <pt x="510" y="1070" on="1"/>
        <pt x="390" y="950" on="1"/>
      </contour>
      <contour>
        <pt x="910" y="2150" on="1"/>
        <pt x="2130" y="2150" on="1"/>
        <pt x="1440" y="1460" on="1"/>
        <pt x="220" y="1460" on="1"/>
      </contour>
    </TTGlyph>
    <TTGlyph name="u" xMin="10" yMin="0" xMax="2180" yMax="2170">
      <contour>
        <pt x="10" y="0" on="1"/>
        <pt x="1450" y="0" on="1"/>
        <pt x="2180" y="730" on="1"/>
        <pt x="2180" y="2170" on="1"/>
        <pt x="720" y="2170" on="1"/>
        <pt x="10" y="1460" on="1"/>
        <pt x="10" y="0" on="1"/>
      </contour>
      <contour>
        <pt x="30" y="1430" on="1"/>
        <pt x="545" y="1430" on="1"/>
        <pt x="545" y="360" on="1"/>
        <pt x="925" y="360" on="1"/>
        <pt x="925" y="1430" on="1"/>
        <pt x="1440" y="1430" on="1"/>
        <pt x="1440" y="20" on="1"/>
        <pt x="30" y="20" on="1"/>
        <pt x="30" y="1430" on="1"/>
      </contour>
      <contour>
        <pt x="1470" y="1450" on="1"/>
        <pt x="1715" y="1690" on="1"/>
        <pt x="1715" y="650" on="1"/>
        <pt x="1730" y="650" on="1"/>
        <pt x="1905" y="810" on="1"/>
        <pt x="1905" y="1890" on="1"/>
        <pt x="2160" y="2140" on="1"/>
        <pt x="2160" y="740" on="1"/>
        <pt x="1470" y="50" on="1"/>
        <pt x="1470" y="1450" on="1"/>
      </contour>
      <contour>
        <pt x="900" y="700" on="1"/>
        <pt x="900" y="380" on="1"/>
        <pt x="580" y="380" on="1"/>
        <pt x="900" y="700" on="1"/>
      </contour>
      <contour>
        <pt x="570" y="1450" on="1"/>
        <pt x="990" y="1870" on="1"/>
        <pt x="990" y="1550" on="1"/>
        <pt x="905" y="1460" on="1"/>
        <pt x="905" y="740" on="1"/>
        <pt x="570" y="410" on="1"/>
        <pt x="570" y="1450" on="1"/>
      </contour>
      <contour>
        <pt x="1735" y="1710" on="1"/>
        <pt x="1160" y="1710" on="1"/>
        <pt x="1020" y="1580" on="1"/>
        <pt x="1020" y="1880" on="1"/>
        <pt x="1880" y="1880" on="1"/>
        <pt x="1880" y="830" on="1"/>
        <pt x="1735" y="690" on="1"/>
        <pt x="1735" y="1710" on="1"/>
      </contour>
      <contour>
        <pt x="730" y="2150" on="1"/>
        <pt x="2130" y="2150" on="1"/>
        <pt x="1890" y="1910" on="1"/>
        <pt x="1000" y="1910" on="1"/>
        <pt x="540" y="1460" on="1"/>
        <pt x="40" y="1460" on="1"/>
        <pt x="730" y="2150" on="1"/>
      </contour>
      <contour>
        <pt x="1180" y="1700" on="1"/>
        <pt x="1670" y="1690" on="1"/>
        <pt x="1440" y="1460" on="1"/>
        <pt x="940" y="1460" on="1"/>
        <pt x="1180" y="1700" on="1"/>
      </contour>
    </TTGlyph>
    <TTGlyph name="v" xMin="10" yMin="0" xMax="2180" yMax="2170">
      <contour>
        <pt x="550" y="0" on="1"/>
        <pt x="910" y="0" on="1"/>
        <pt x="2180" y="1270" on="1"/>
        <pt x="2180" y="2170" on="1"/>
        <pt x="1620" y="2170" on="1"/>
        <pt x="1285" y="1850" on="1"/>
        <pt x="1285" y="2170" on="1"/>
        <pt x="720" y="2170" on="1"/>
        <pt x="10" y="1460" on="1"/>
        <pt x="10" y="540" on="1"/>
        <pt x="550" y="0" on="1"/>
      </contour>
      <contour>
        <pt x="30" y="550" on="1"/>
        <pt x="30" y="1430" on="1"/>
        <pt x="545" y="1430" on="1"/>
        <pt x="545" y="360" on="1"/>
        <pt x="925" y="360" on="1"/>
        <pt x="925" y="1430" on="1"/>
        <pt x="1440" y="1430" on="1"/>
        <pt x="1440" y="560" on="1"/>
        <pt x="900" y="20" on="1"/>
        <pt x="560" y="20" on="1"/>
        <pt x="30" y="550" on="1"/>
      </contour>
      <contour>
        <pt x="900" y="700" on="1"/>
        <pt x="900" y="380" on="1"/>
        <pt x="580" y="380" on="1"/>
        <pt x="900" y="700" on="1"/>
      </contour>
      <contour>
        <pt x="570" y="1450" on="1"/>
        <pt x="1260" y="2140" on="1"/>
        <pt x="1260" y="1820" on="1"/>
        <pt x="905" y="1460" on="1"/>
        <pt x="905" y="740" on="1"/>
        <pt x="570" y="410" on="1"/>
        <pt x="570" y="1450" on="1"/>
      </contour>
      <contour>
        <pt x="1470" y="1450" on="1"/>
        <pt x="2160" y="2140" on="1"/>
        <pt x="2160" y="1280" on="1"/>
        <pt x="1470" y="590" on="1"/>
        <pt x="1470" y="1450" on="1"/>
      </contour>
      <contour>
        <pt x="730" y="2150" on="1"/>
        <pt x="1230" y="2150" on="1"/>
        <pt x="540" y="1460" on="1"/>
        <pt x="40" y="1460" on="1"/>
        <pt x="730" y="2150" on="1"/>
      </contour>
      <contour>
        <pt x="1630" y="2150" on="1"/>
        <pt x="2130" y="2150" on="1"/>
        <pt x="1440" y="1460" on="1"/>
        <pt x="940" y="1460" on="1"/>
        <pt x="1630" y="2150" on="1"/>
      </contour>
    </TTGlyph>
    <TTGlyph name="w" xMin="10" yMin="0" xMax="2180" yMax="2170">
      <contour>
        <pt x="370" y="0" on="1"/>
        <pt x="1090" y="0" on="1"/>
        <pt x="2180" y="1090" on="1"/>
        <pt x="2180" y="2170" on="1"/>
        <pt x="720" y="2170" on="1"/>
        <pt x="10" y="1460" on="1"/>
        <pt x="10" y="360" on="1"/>
      </contour>
      <contour>
        <pt x="30" y="370" on="1"/>
        <pt x="30" y="1430" on="1"/>
        <pt x="365" y="1430" on="1"/>
        <pt x="365" y="540" on="1"/>
        <pt x="540" y="370" on="1"/>
        <pt x="565" y="370" on="1"/>
        <pt x="565" y="1250" on="1"/>
        <pt x="905" y="1250" on="1"/>
        <pt x="905" y="370" on="1"/>
        <pt x="920" y="370" on="1"/>
        <pt x="1105" y="550" on="1"/>
        <pt x="1105" y="1430" on="1"/>
        <pt x="1440" y="1430" on="1"/>
        <pt x="1440" y="380" on="1"/>
        <pt x="1080" y="20" on="1"/>
        <pt x="380" y="20" on="1"/>
      </contour>
      <contour>
        <pt x="390" y="550" on="1"/>
        <pt x="390" y="1450" on="1"/>
        <pt x="900" y="1960" on="1"/>
        <pt x="900" y="1953" on="0"/>
        <pt x="900" y="1934" on="1"/>
        <pt x="900" y="1916" on="0"/>
        <pt x="901" y="1875" on="0"/>
        <pt x="901" y="1856" on="1"/>
        <pt x="901" y="1837" on="0"/>
        <pt x="901" y="1830" on="1"/>
        <pt x="901" y="1818" on="0"/>
        <pt x="901" y="1797" on="1"/>
        <pt x="901" y="1776" on="0"/>
        <pt x="900" y="1734" on="0"/>
        <pt x="900" y="1718" on="1"/>
        <pt x="900" y="1702" on="0"/>
        <pt x="900" y="1700" on="1"/>
        <pt x="900" y="1673" on="0"/>
        <pt x="897" y="1593" on="0"/>
        <pt x="894" y="1518" on="0"/>
        <pt x="891" y="1465" on="0"/>
        <pt x="890" y="1465" on="1"/>
        <pt x="730" y="1465" on="1"/>
        <pt x="545" y="1280" on="1"/>
        <pt x="545" y="400" on="1"/>
      </contour>
      <contour>
        <pt x="930" y="1270" on="1"/>
        <pt x="1080" y="1420" on="1"/>
        <pt x="1080" y="560" on="1"/>
        <pt x="930" y="410" on="1"/>
      </contour>
      <contour>
        <pt x="1470" y="1450" on="1"/>
        <pt x="2160" y="2140" on="1"/>
        <pt x="2160" y="1100" on="1"/>
        <pt x="1470" y="410" on="1"/>
      </contour>
      <contour>
        <pt x="740" y="1440" on="1"/>
        <pt x="1060" y="1440" on="1"/>
        <pt x="900" y="1280" on="1"/>
        <pt x="580" y="1280" on="1"/>
      </contour>
      <contour>
        <pt x="730" y="2150" on="1"/>
        <pt x="2130" y="2150" on="1"/>
        <pt x="1440" y="1460" on="1"/>
        <pt x="1120" y="1460" on="1"/>
        <pt x="1640" y="1990" on="1"/>
        <pt x="900" y="1990" on="1"/>
        <pt x="360" y="1460" on="1"/>
        <pt x="40" y="1460" on="1"/>
      </contour>
      <contour>
        <pt x="930" y="1970" on="1"/>
        <pt x="1440" y="1970" on="1"/>
        <pt x="1440" y="1810" on="1"/>
        <pt x="1090" y="1470" on="1"/>
        <pt x="918" y="1470" on="1"/>
        <pt x="918" y="1595" on="0"/>
        <pt x="924" y="1845" on="0"/>
      </contour>
      <contour>
        <pt x="1470" y="1970" on="1"/>
        <pt x="1590" y="1970" on="1"/>
        <pt x="1470" y="1850" on="1"/>
      </contour>
    </TTGlyph>
    <TTGlyph name="x" xMin="10" yMin="0" xMax="2180" yMax="2170">
      <contour>
        <pt x="10" y="0" on="1"/>
        <pt x="370" y="0" on="1"/>
        <pt x="910" y="530" on="1"/>
        <pt x="1085" y="360" on="1"/>
        <pt x="1085" y="0" on="1"/>
        <pt x="1450" y="0" on="1"/>
        <pt x="2180" y="730" on="1"/>
        <pt x="2180" y="1269" on="1"/>
        <pt x="2010" y="1450" on="1"/>
        <pt x="2180" y="1630" on="1"/>
        <pt x="2180" y="2170" on="1"/>
        <pt x="1800" y="2170" on="1"/>
        <pt x="1270" y="1650" on="1"/>
        <pt x="1105" y="1810" on="1"/>
        <pt x="1105" y="2170" on="1"/>
        <pt x="720" y="2170" on="1"/>
        <pt x="10" y="1460" on="1"/>
        <pt x="10" y="900" on="1"/>
        <pt x="170" y="730" on="1"/>
        <pt x="10" y="560" on="1"/>
        <pt x="10" y="0" on="1"/>
      </contour>
      <contour>
        <pt x="30" y="550" on="1"/>
        <pt x="199" y="730" on="1"/>
        <pt x="30" y="910" on="1"/>
        <pt x="30" y="1430" on="1"/>
        <pt x="365" y="1430" on="1"/>
        <pt x="365" y="1080" on="1"/>
        <pt x="550" y="900" on="1"/>
        <pt x="910" y="900" on="1"/>
        <pt x="1105" y="1090" on="1"/>
        <pt x="1105" y="1430" on="1"/>
        <pt x="1440" y="1430" on="1"/>
        <pt x="1440" y="920" on="1"/>
        <pt x="1261" y="730" on="1"/>
        <pt x="1440" y="540" on="1"/>
        <pt x="1440" y="20" on="1"/>
        <pt x="1105" y="20" on="1"/>
        <pt x="1105" y="365" on="1"/>
        <pt x="920" y="550" on="1"/>
        <pt x="540" y="550" on="1"/>
        <pt x="365" y="380" on="1"/>
        <pt x="365" y="20" on="1"/>
        <pt x="30" y="20" on="1"/>
        <pt x="30" y="550" on="1"/>
      </contour>
      <contour>
        <pt x="390" y="370" on="1"/>
        <pt x="550" y="530" on="1"/>
        <pt x="870" y="530" on="1"/>
        <pt x="390" y="50" on="1"/>
        <pt x="390" y="370" on="1"/>
      </contour>
      <contour>
        <pt x="1470" y="550" on="1"/>
        <pt x="2160" y="1240" on="1"/>
        <pt x="2160" y="740" on="1"/>
        <pt x="1470" y="50" on="1"/>
        <pt x="1470" y="550" on="1"/>
      </contour>
      <contour>
        <pt x="1290" y="730" on="1"/>
        <pt x="1990" y="1430" on="1"/>
        <pt x="2150" y="1270" on="1"/>
        <pt x="1450" y="570" on="1"/>
        <pt x="1290" y="730" on="1"/>
      </contour>
      <contour>
        <pt x="1080" y="1420" on="1"/>
        <pt x="1080" y="1100" on="1"/>
        <pt x="900" y="920" on="1"/>
        <pt x="580" y="920" on="1"/>
        <pt x="1080" y="1420" on="1"/>
      </contour>
      <contour>
        <pt x="390" y="1090" on="1"/>
        <pt x="1090" y="1790" on="1"/>
        <pt x="1250" y="1630" on="1"/>
        <pt x="550" y="930" on="1"/>
        <pt x="390" y="1090" on="1"/>
      </contour>
      <contour>
        <pt x="1470" y="1450" on="1"/>
        <pt x="2160" y="2140" on="1"/>
        <pt x="2160" y="1640" on="1"/>
        <pt x="1470" y="950" on="1"/>
        <pt x="1470" y="1450" on="1"/>
      </contour>
      <contour>
        <pt x="390" y="1450" on="1"/>
        <pt x="1080" y="2140" on="1"/>
        <pt x="1080" y="1820" on="1"/>
        <pt x="390" y="1130" on="1"/>
        <pt x="390" y="1450" on="1"/>
      </contour>
      <contour>
        <pt x="730" y="2150" on="1"/>
        <pt x="1050" y="2150" on="1"/>
        <pt x="360" y="1460" on="1"/>
        <pt x="40" y="1460" on="1"/>
        <pt x="730" y="2150" on="1"/>
      </contour>
      <contour>
        <pt x="1810" y="2150" on="1"/>
        <pt x="2130" y="2150" on="1"/>
        <pt x="1440" y="1460" on="1"/>
        <pt x="1120" y="1460" on="1"/>
        <pt x="1810" y="2150" on="1"/>
      </contour>
    </TTGlyph>
    <TTGlyph name="y" xMin="10" yMin="0" xMax="2180" yMax="2170">
      <contour>
        <pt x="545" y="0" on="1"/>
        <pt x="910" y="0" on="1"/>
        <pt x="1645" y="730" on="1"/>
        <pt x="1645" y="1450" on="1"/>
        <pt x="2180" y="1990" on="1"/>
        <pt x="2180" y="2170" on="1"/>
        <pt x="1800" y="2170" on="1"/>
        <pt x="1450" y="1830" on="1"/>
        <pt x="1100" y="2170" on="1"/>
        <pt x="720" y="2170" on="1"/>
        <pt x="10" y="1460" on="1"/>
        <pt x="10" y="1260" on="1"/>
        <pt x="375" y="895" on="1"/>
        <pt x="545" y="895" on="1"/>
        <pt x="545" y="0" on="1"/>
      </contour>
      <contour>
        <pt x="565" y="900" on="1"/>
        <pt x="550" y="915" on="1"/>
        <pt x="380" y="915" on="1"/>
        <pt x="30" y="1270" on="1"/>
        <pt x="30" y="1430" on="1"/>
        <pt x="370" y="1430" on="1"/>
        <pt x="730" y="1080" on="1"/>
        <pt x="1090" y="1430" on="1"/>
        <pt x="1440" y="1430" on="1"/>
        <pt x="1440" y="1280" on="1"/>
        <pt x="1080" y="915" on="1"/>
        <pt x="920" y="915" on="1"/>
        <pt x="905" y="900" on="1"/>
        <pt x="905" y="20" on="1"/>
        <pt x="565" y="20" on="1"/>
        <pt x="565" y="900" on="1"/>
      </contour>
      <contour>
        <pt x="930" y="895" on="1"/>
        <pt x="1090" y="895" on="1"/>
        <pt x="1620" y="1420" on="1"/>
        <pt x="1620" y="740" on="1"/>
        <pt x="930" y="50" on="1"/>
        <pt x="930" y="895" on="1"/>
      </contour>
      <contour>
        <pt x="390" y="1450" on="1"/>
        <pt x="1090" y="2150" on="1"/>
        <pt x="1430" y="1810" on="1"/>
        <pt x="730" y="1110" on="1"/>
        <pt x="390" y="1450" on="1"/>
      </contour>
      <contour>
        <pt x="1470" y="1450" on="1"/>
        <pt x="2160" y="2140" on="1"/>
        <pt x="2160" y="2000" on="1"/>
        <pt x="1470" y="1310" on="1"/>
        <pt x="1470" y="1450" on="1"/>
      </contour>
      <contour>
        <pt x="730" y="2150" on="1"/>
        <pt x="1050" y="2150" on="1"/>
        <pt x="360" y="1460" on="1"/>
        <pt x="40" y="1460" on="1"/>
        <pt x="730" y="2150" on="1"/>
      </contour>
      <contour>
        <pt x="1810" y="2150" on="1"/>
        <pt x="2130" y="2150" on="1"/>
        <pt x="1440" y="1460" on="1"/>
        <pt x="1120" y="1460" on="1"/>
        <pt x="1810" y="2150" on="1"/>
      </contour>
    </TTGlyph>
    <TTGlyph name="z" xMin="10" yMin="0" xMax="2180" yMax="2170">
      <contour>
        <pt x="10" y="0" on="1"/>
        <pt x="1450" y="0" on="1"/>
        <pt x="2180" y="730" on="1"/>
        <pt x="2180" y="1095" on="1"/>
        <pt x="1480" y="1095" on="1"/>
        <pt x="2180" y="1810" on="1"/>
        <pt x="2180" y="2170" on="1"/>
        <pt x="720" y="2170" on="1"/>
        <pt x="10" y="1460" on="1"/>
        <pt x="10" y="1075" on="1"/>
        <pt x="690" y="1075" on="1"/>
        <pt x="10" y="380" on="1"/>
      </contour>
      <contour>
        <pt x="30" y="370" on="1"/>
        <pt x="730" y="1080" on="1"/>
        <pt x="730" y="1095" on="1"/>
        <pt x="30" y="1095" on="1"/>
        <pt x="30" y="1430" on="1"/>
        <pt x="1440" y="1430" on="1"/>
        <pt x="1440" y="1100" on="1"/>
        <pt x="730" y="380" on="1"/>
        <pt x="730" y="380" on="0"/>
        <pt x="729" y="377" on="0"/>
        <pt x="729" y="375" on="1"/>
        <pt x="729" y="374" on="0"/>
        <pt x="730" y="370" on="0"/>
        <pt x="730" y="370" on="1"/>
        <pt x="732" y="366" on="0"/>
        <pt x="739" y="355" on="0"/>
        <pt x="740" y="355" on="1"/>
        <pt x="1440" y="355" on="1"/>
        <pt x="1440" y="20" on="1"/>
        <pt x="30" y="20" on="1"/>
      </contour>
      <contour>
        <pt x="1470" y="370" on="1"/>
        <pt x="2160" y="1060" on="1"/>
        <pt x="2160" y="740" on="1"/>
        <pt x="1470" y="50" on="1"/>
      </contour>
      <contour>
        <pt x="1450" y="1070" on="1"/>
        <pt x="2130" y="1070" on="1"/>
        <pt x="1440" y="380" on="1"/>
        <pt x="760" y="380" on="1"/>
      </contour>
      <contour>
        <pt x="1470" y="1450" on="1"/>
        <pt x="2160" y="2140" on="1"/>
        <pt x="2160" y="1820" on="1"/>
        <pt x="1470" y="1130" on="1"/>
      </contour>
      <contour>
        <pt x="730" y="2150" on="1"/>
        <pt x="2130" y="2150" on="1"/>
        <pt x="1440" y="1460" on="1"/>
        <pt x="40" y="1460" on="1"/>
      </contour>
    </TTGlyph>
</ttFont>
